<svg width="104" height="74" viewBox="0 0 104 74" fill="none" xmlns="http://www.w3.org/2000/svg">
<ellipse opacity="0.8" cx="71.4284" cy="28.8235" rx="28.5714" ry="28.8235" fill="#E9E8EC" fill-opacity="0.5"/>
<ellipse opacity="0.4" cx="14.2857" cy="55.5883" rx="14.2857" ry="14.4118" fill="#E9E8EC" fill-opacity="0.5"/>
<g filter="url(#filter0_d_4722_205278)">
<path d="M13.2656 7.14697C13.2656 6.0424 14.1611 5.14697 15.2656 5.14697H84.735C85.8396 5.14697 86.735 6.0424 86.735 7.14697V52.4999H13.2656V7.14697Z" fill="#DFDEE4"/>
<path d="M13.2656 52.5H86.735V58.7353C86.735 59.8399 85.8396 60.7353 84.735 60.7353H15.2656C14.1611 60.7353 13.2656 59.8399 13.2656 58.7353V52.5Z" fill="#F2F2F4"/>
<ellipse cx="50.5106" cy="56.103" rx="1.53061" ry="1.54412" fill="#D4D3D7"/>
<rect x="16.3267" y="8.23511" width="67.3469" height="41.1765" rx="1" fill="white"/>
<rect x="16.3267" y="15.4409" width="67.3469" height="1.02941" rx="0.1" fill="#F4EFF7"/>
<ellipse cx="21.9388" cy="11.8381" rx="1.53061" ry="1.54412" fill="#ED0303"/>
<ellipse cx="28.0614" cy="11.8381" rx="1.53061" ry="1.54412" fill="#FFA200"/>
<ellipse cx="34.1839" cy="11.8381" rx="1.53061" ry="1.54412" fill="#00C261"/>
<rect x="18.3677" y="18.5293" width="15.3061" height="28.8235" rx="1" fill="#F5F8FF"/>
<ellipse cx="26.0208" cy="24.1911" rx="1.53061" ry="1.54412" fill="white"/>
<rect x="20.4087" y="27.7939" width="11.2245" height="1.02941" rx="0.514706" fill="white"/>
<rect x="20.4087" y="30.8823" width="11.2245" height="1.02941" rx="0.514706" fill="white"/>
<rect x="20.4087" y="33.9705" width="11.2245" height="1.02941" rx="0.514706" fill="white"/>
<rect x="20.4087" y="37.0586" width="11.2245" height="1.02941" rx="0.514706" fill="white"/>
<rect x="20.4087" y="40.147" width="5.10204" height="1.02941" rx="0.514706" fill="white"/>
<path d="M43.3781 22.6469C43.3781 24.6491 41.7704 26.2646 39.7965 26.2646C37.8225 26.2646 36.2148 24.6491 36.2148 22.6469C36.2148 20.6448 37.8225 19.0293 39.7965 19.0293C41.7704 19.0293 43.3781 20.6448 43.3781 22.6469Z" stroke="#F2FCF7"/>
<mask id="path-19-inside-1_4722_205278" fill="white">
<path d="M39.7965 18.5293C40.7224 18.5293 41.6209 18.8469 42.3443 19.43C43.0677 20.0131 43.5731 20.827 43.7775 21.7381C43.9818 22.6492 43.873 23.6034 43.469 24.4438C43.0649 25.2843 42.3895 25.9612 41.5538 26.3634L41.1147 25.435C41.7417 25.1332 42.2483 24.6255 42.5515 23.9949C42.8546 23.3644 42.9362 22.6487 42.7829 21.9652C42.6296 21.2817 42.2505 20.6711 41.7078 20.2337C41.1651 19.7963 40.4911 19.558 39.7965 19.558L39.7965 18.5293Z"/>
</mask>
<path d="M39.7965 18.5293C40.7224 18.5293 41.6209 18.8469 42.3443 19.43C43.0677 20.0131 43.5731 20.827 43.7775 21.7381C43.9818 22.6492 43.873 23.6034 43.469 24.4438C43.0649 25.2843 42.3895 25.9612 41.5538 26.3634L41.1147 25.435C41.7417 25.1332 42.2483 24.6255 42.5515 23.9949C42.8546 23.3644 42.9362 22.6487 42.7829 21.9652C42.6296 21.2817 42.2505 20.6711 41.7078 20.2337C41.1651 19.7963 40.4911 19.558 39.7965 19.558L39.7965 18.5293Z" stroke="#00C261" stroke-width="2" mask="url(#path-19-inside-1_4722_205278)"/>
<path d="M61.7453 22.6469C61.7453 24.6491 60.1376 26.2646 58.1637 26.2646C56.1897 26.2646 54.582 24.6491 54.582 22.6469C54.582 20.6448 56.1897 19.0293 58.1637 19.0293C60.1376 19.0293 61.7453 20.6448 61.7453 22.6469Z" stroke="#F2FCF7"/>
<mask id="path-21-inside-2_4722_205278" fill="white">
<path d="M58.1637 18.5293C58.8349 18.5293 59.4958 18.6963 60.0877 19.0155C60.6797 19.3347 61.1845 19.7963 61.5574 20.3593C61.9303 20.9223 62.1599 21.5695 62.2256 22.2433C62.2914 22.9172 62.1915 23.5971 61.9346 24.2227C61.6777 24.8483 61.2719 25.4003 60.753 25.8299C60.2342 26.2595 59.6183 26.5534 58.96 26.6855C58.3016 26.8176 57.6212 26.7839 56.9788 26.5873C56.3365 26.3907 55.7521 26.0374 55.2775 25.5586L55.9985 24.8312C56.3546 25.1904 56.793 25.4554 57.2748 25.6029C57.7567 25.7503 58.2672 25.7756 58.761 25.6765C59.2549 25.5774 59.7169 25.357 60.1061 25.0347C60.4954 24.7125 60.7998 24.2983 60.9925 23.829C61.1852 23.3597 61.2602 22.8497 61.2109 22.3442C61.1615 21.8386 60.9893 21.3532 60.7096 20.9308C60.4298 20.5084 60.0511 20.1622 59.6071 19.9227C59.163 19.6833 58.6672 19.558 58.1637 19.558L58.1637 18.5293Z"/>
</mask>
<path d="M58.1637 18.5293C58.8349 18.5293 59.4958 18.6963 60.0877 19.0155C60.6797 19.3347 61.1845 19.7963 61.5574 20.3593C61.9303 20.9223 62.1599 21.5695 62.2256 22.2433C62.2914 22.9172 62.1915 23.5971 61.9346 24.2227C61.6777 24.8483 61.2719 25.4003 60.753 25.8299C60.2342 26.2595 59.6183 26.5534 58.96 26.6855C58.3016 26.8176 57.6212 26.7839 56.9788 26.5873C56.3365 26.3907 55.7521 26.0374 55.2775 25.5586L55.9985 24.8312C56.3546 25.1904 56.793 25.4554 57.2748 25.6029C57.7567 25.7503 58.2672 25.7756 58.761 25.6765C59.2549 25.5774 59.7169 25.357 60.1061 25.0347C60.4954 24.7125 60.7998 24.2983 60.9925 23.829C61.1852 23.3597 61.2602 22.8497 61.2109 22.3442C61.1615 21.8386 60.9893 21.3532 60.7096 20.9308C60.4298 20.5084 60.0511 20.1622 59.6071 19.9227C59.163 19.6833 58.6672 19.558 58.1637 19.558L58.1637 18.5293Z" stroke="#00C261" stroke-width="2" mask="url(#path-21-inside-2_4722_205278)"/>
<path d="M80.113 22.6469C80.113 24.6491 78.5053 26.2646 76.5313 26.2646C74.5574 26.2646 72.9497 24.6491 72.9497 22.6469C72.9497 20.6448 74.5574 19.0293 76.5313 19.0293C78.5053 19.0293 80.113 20.6448 80.113 22.6469Z" stroke="#F2FCF7"/>
<mask id="path-23-inside-3_4722_205278" fill="white">
<path d="M78.9427 25.9692C78.2528 26.4788 77.4218 26.7569 76.5668 26.7644C75.7119 26.7719 74.8762 26.5084 74.1777 26.011C73.4792 25.5137 72.9531 24.8076 72.6737 23.9924C72.3944 23.1772 72.3758 22.2941 72.6207 21.4677L73.5977 21.7623C73.414 22.3822 73.4279 23.0447 73.6375 23.6562C73.847 24.2678 74.2417 24.7975 74.7657 25.1706C75.2897 25.5437 75.9166 25.7414 76.558 25.7358C77.1993 25.7302 77.8228 25.5215 78.3403 25.1392L78.9427 25.9692Z"/>
</mask>
<path d="M78.9427 25.9692C78.2528 26.4788 77.4218 26.7569 76.5668 26.7644C75.7119 26.7719 74.8762 26.5084 74.1777 26.011C73.4792 25.5137 72.9531 24.8076 72.6737 23.9924C72.3944 23.1772 72.3758 22.2941 72.6207 21.4677L73.5977 21.7623C73.414 22.3822 73.4279 23.0447 73.6375 23.6562C73.847 24.2678 74.2417 24.7975 74.7657 25.1706C75.2897 25.5437 75.9166 25.7414 76.558 25.7358C77.1993 25.7302 77.8228 25.5215 78.3403 25.1392L78.9427 25.9692Z" stroke="#00C261" stroke-width="2" mask="url(#path-23-inside-3_4722_205278)"/>
<rect x="36.7349" y="27.7939" width="1.02041" height="19.5588" rx="0.510204" fill="#F5F8FF"/>
<rect x="48.98" y="27.7939" width="1.02041" height="19.5588" rx="0.510204" fill="#F5F8FF"/>
<rect x="59.1841" y="27.7939" width="1.02041" height="19.5588" rx="0.510204" fill="#F5F8FF"/>
<rect x="69.3877" y="27.7939" width="1.02041" height="19.5588" rx="0.510204" fill="#F5F8FF"/>
<rect x="79.5918" y="27.7939" width="1.02041" height="19.5588" rx="0.510204" fill="#F5F8FF"/>
<path d="M48.1008 29.0947L36.7349 41.5013V47.3527H80.6124V28.8232L70.4083 33.9703L59.9642 34.2954L48.6826 28.9802C48.4845 28.8868 48.2487 28.9333 48.1008 29.0947Z" fill="url(#paint0_linear_4722_205278)"/>
<path d="M36.7349 42.2056L48.1072 29.1024C48.2512 28.9365 48.4866 28.884 48.6874 28.973L59.9642 33.9703H70.2883L80.6124 28.8232" stroke="#FFA200" stroke-width="0.5"/>
<g filter="url(#filter1_d_4722_205278)">
<rect x="2.04102" y="14.4116" width="23.4694" height="23.6765" rx="1" fill="white"/>
<g filter="url(#filter2_d_4722_205278)">
<ellipse cx="13.7756" cy="26.2499" rx="6.51927" ry="6.5768" fill="#945DED"/>
</g>
<g clip-path="url(#clip0_4722_205278)">
<path d="M10.8418 23.0273C10.8418 22.8457 10.9877 22.6985 11.1678 22.6985H17.0351C17.2151 22.6985 17.3611 22.8457 17.3611 23.0273V23.685H10.8418V23.0273Z" fill="white"/>
<path d="M10.8418 24.3427H17.3611V27.058C17.0511 26.7997 16.6536 26.6446 16.2202 26.6446C15.2301 26.6446 14.4274 27.4543 14.4274 28.4532C14.4274 28.6242 14.4509 28.7896 14.4949 28.9464H11.1678C10.9877 28.9464 10.8418 28.7992 10.8418 28.6176V24.3427Z" fill="white"/>
<path d="M16.2204 29.7684C16.9405 29.7684 17.5242 29.1795 17.5242 28.4531C17.5242 27.7266 16.9405 27.1377 16.2204 27.1377C15.5003 27.1377 14.9165 27.7266 14.9165 28.4531C14.9165 29.1795 15.5003 29.7684 16.2204 29.7684ZM16.2555 27.6711L16.3731 27.6857C16.4056 27.6897 16.4287 27.7196 16.4247 27.7523L16.2514 29.1766C16.2474 29.2093 16.2178 29.2327 16.1853 29.2286L16.0677 29.214C16.0352 29.21 16.0121 29.1802 16.0161 29.1474L16.1894 27.7232C16.1934 27.6904 16.223 27.6671 16.2555 27.6711ZM15.6075 28.4537L15.7758 28.6962C15.7946 28.7233 15.7881 28.7605 15.7613 28.7795L15.6642 28.8481C15.6374 28.867 15.6004 28.8604 15.5817 28.8334L15.3437 28.4906C15.3317 28.4732 15.33 28.4517 15.3375 28.4335C15.3391 28.4261 15.3422 28.419 15.3467 28.4125L15.5846 28.0697C15.6034 28.0426 15.6404 28.0361 15.6672 28.055L15.7643 28.1236C15.7911 28.1425 15.7976 28.1798 15.7788 28.2069L15.6075 28.4537ZM16.6649 28.2099C16.6461 28.1828 16.6526 28.1456 16.6794 28.1266L16.7765 28.058C16.8033 28.0391 16.8403 28.0457 16.8591 28.0727L17.097 28.4156C17.1091 28.4329 17.1107 28.4544 17.1033 28.4727C17.1016 28.48 17.0986 28.4871 17.094 28.4936L16.8561 28.8364C16.8373 28.8635 16.8003 28.87 16.7735 28.8511L16.6764 28.7825C16.6496 28.7636 16.6431 28.7263 16.6619 28.6992L16.8332 28.4524L16.6649 28.2099Z" fill="white"/>
<path d="M12.8904 26.0092L13.1026 25.4061H13.1072L13.3126 26.0092H12.8904ZM12.9247 25.001L12.3086 26.6445H12.6691L12.7969 26.2785H13.4061L13.5293 26.6445H13.9013L13.292 25.001H12.9247Z" fill="#945DED"/>
<path d="M14.4 25.7744V25.2818H14.6783C14.7194 25.2818 14.759 25.2849 14.797 25.291C14.835 25.2972 14.8685 25.3094 14.8974 25.3278C14.9263 25.3447 14.9491 25.3693 14.9658 25.4015C14.9841 25.4337 14.9932 25.4759 14.9932 25.5281C14.9932 25.5803 14.9841 25.6225 14.9658 25.6547C14.9491 25.6869 14.9263 25.7123 14.8974 25.7307C14.8685 25.7476 14.835 25.7591 14.797 25.7652C14.759 25.7713 14.7194 25.7744 14.6783 25.7744H14.4ZM14.0417 25.001V26.6445H14.4V26.0552H14.7765C14.8784 26.0552 14.9651 26.0407 15.0366 26.0115C15.1081 25.9808 15.1659 25.9409 15.21 25.8918C15.2556 25.8427 15.2883 25.7867 15.3081 25.7238C15.3294 25.6593 15.3401 25.5941 15.3401 25.5281C15.3401 25.4606 15.3294 25.3954 15.3081 25.3324C15.2883 25.2695 15.2556 25.2135 15.21 25.1644C15.1659 25.1153 15.1081 25.0762 15.0366 25.047C14.9651 25.0163 14.8784 25.001 14.7765 25.001H14.0417Z" fill="#945DED"/>
<path d="M15.5636 25.001V26.6445H15.9219V25.001H15.5636Z" fill="#945DED"/>
</g>
</g>
<g filter="url(#filter3_d_4722_205278)">
<g opacity="0.1" filter="url(#filter4_d_4722_205278)">
<rect x="46.311" y="38.0881" width="51.6483" height="28.8235" rx="2" fill="url(#paint1_linear_4722_205278)"/>
<rect x="46.461" y="38.2381" width="51.3484" height="28.5235" rx="1.85" stroke="white" stroke-width="0.3"/>
</g>
<g filter="url(#filter5_d_4722_205278)">
<rect x="46.311" y="38.0881" width="50.5494" height="27.7149" rx="2" fill="#FAFCFF"/>
<rect x="46.461" y="38.2381" width="50.2495" height="27.4149" rx="1.85" stroke="url(#paint2_linear_4722_205278)" stroke-width="0.3"/>
</g>
<rect opacity="0.5" x="48.5088" y="56.9343" width="46.1538" height="1.1086" rx="0.554299" fill="#F2F2F2"/>
<rect opacity="0.5" x="48.5088" y="50.283" width="46.1538" height="1.1086" rx="0.554299" fill="#F2F2F2"/>
<rect opacity="0.5" x="48.5088" y="42.5225" width="46.1538" height="1.1086" rx="0.554299" fill="#F2F2F2"/>
<path d="M54.2568 59.1282C54.2568 58.5759 54.7046 58.1282 55.2568 58.1282H57.2298C57.7821 58.1282 58.2298 58.5759 58.2298 59.1282V61.1342H54.2568V59.1282Z" fill="#3370FF"/>
<path d="M62.2026 54.1182C62.2026 53.5659 62.6504 53.1182 63.2026 53.1182H65.1756C65.7279 53.1182 66.1756 53.5659 66.1756 54.1182V61.1342H62.2026V54.1182Z" fill="#3370FF"/>
<path d="M70.1484 49.1079C70.1484 48.5556 70.5962 48.1079 71.1484 48.1079H73.1214C73.6737 48.1079 74.1214 48.5556 74.1214 49.1079V61.1339H70.1484V49.1079Z" fill="#3370FF"/>
<path d="M78.0947 45.1001C78.0947 44.5478 78.5424 44.1001 79.0947 44.1001H81.0677C81.62 44.1001 82.0677 44.5478 82.0677 45.1001V61.1341H78.0947V45.1001Z" fill="#3370FF"/>
<path d="M86.0405 41.092C86.0405 40.5398 86.4882 40.092 87.0405 40.092H89.0135C89.5658 40.092 90.0135 40.5398 90.0135 41.092V61.1341H86.0405V41.092Z" fill="#3370FF"/>
</g>
</g>
<defs>
<filter id="filter0_d_4722_205278" x="0.0410156" y="3.14697" width="103.918" height="69.7646" filterUnits="userSpaceOnUse" color-interpolation-filters="sRGB">
<feFlood flood-opacity="0" result="BackgroundImageFix"/>
<feColorMatrix in="SourceAlpha" type="matrix" values="0 0 0 0 0 0 0 0 0 0 0 0 0 0 0 0 0 0 127 0" result="hardAlpha"/>
<feOffset dx="2" dy="2"/>
<feGaussianBlur stdDeviation="2"/>
<feComposite in2="hardAlpha" operator="out"/>
<feColorMatrix type="matrix" values="0 0 0 0 0.13092 0 0 0 0 0 0 0 0 0 0.342773 0 0 0 0.11 0"/>
<feBlend mode="normal" in2="BackgroundImageFix" result="effect1_dropShadow_4722_205278"/>
<feBlend mode="normal" in="SourceGraphic" in2="effect1_dropShadow_4722_205278" result="shape"/>
</filter>
<filter id="filter1_d_4722_205278" x="0.0410156" y="13.4116" width="31.4692" height="31.6765" filterUnits="userSpaceOnUse" color-interpolation-filters="sRGB">
<feFlood flood-opacity="0" result="BackgroundImageFix"/>
<feColorMatrix in="SourceAlpha" type="matrix" values="0 0 0 0 0 0 0 0 0 0 0 0 0 0 0 0 0 0 127 0" result="hardAlpha"/>
<feOffset dx="2" dy="3"/>
<feGaussianBlur stdDeviation="2"/>
<feComposite in2="hardAlpha" operator="out"/>
<feColorMatrix type="matrix" values="0 0 0 0 0.218229 0 0 0 0 0.144106 0 0 0 0 0.014989 0 0 0 0.06 0"/>
<feBlend mode="normal" in2="BackgroundImageFix" result="effect1_dropShadow_4722_205278"/>
<feBlend mode="normal" in="SourceGraphic" in2="effect1_dropShadow_4722_205278" result="shape"/>
</filter>
<filter id="filter2_d_4722_205278" x="5.25635" y="17.6731" width="21.0386" height="21.1536" filterUnits="userSpaceOnUse" color-interpolation-filters="sRGB">
<feFlood flood-opacity="0" result="BackgroundImageFix"/>
<feColorMatrix in="SourceAlpha" type="matrix" values="0 0 0 0 0 0 0 0 0 0 0 0 0 0 0 0 0 0 127 0" result="hardAlpha"/>
<feOffset dx="2" dy="2"/>
<feGaussianBlur stdDeviation="2"/>
<feComposite in2="hardAlpha" operator="out"/>
<feColorMatrix type="matrix" values="0 0 0 0 0.138925 0 0 0 0 0.000902143 0 0 0 0 0.362272 0 0 0 0.18 0"/>
<feBlend mode="normal" in2="BackgroundImageFix" result="effect1_dropShadow_4722_205278"/>
<feBlend mode="normal" in="SourceGraphic" in2="effect1_dropShadow_4722_205278" result="shape"/>
</filter>
<filter id="filter3_d_4722_205278" x="44.311" y="37.0881" width="59.6484" height="36.8235" filterUnits="userSpaceOnUse" color-interpolation-filters="sRGB">
<feFlood flood-opacity="0" result="BackgroundImageFix"/>
<feColorMatrix in="SourceAlpha" type="matrix" values="0 0 0 0 0 0 0 0 0 0 0 0 0 0 0 0 0 0 127 0" result="hardAlpha"/>
<feOffset dx="2" dy="3"/>
<feGaussianBlur stdDeviation="2"/>
<feComposite in2="hardAlpha" operator="out"/>
<feColorMatrix type="matrix" values="0 0 0 0 0.218229 0 0 0 0 0.144106 0 0 0 0 0.014989 0 0 0 0.06 0"/>
<feBlend mode="normal" in2="BackgroundImageFix" result="effect1_dropShadow_4722_205278"/>
<feBlend mode="normal" in="SourceGraphic" in2="effect1_dropShadow_4722_205278" result="shape"/>
</filter>
<filter id="filter4_d_4722_205278" x="46.311" y="38.0881" width="53.6484" height="30.8235" filterUnits="userSpaceOnUse" color-interpolation-filters="sRGB">
<feFlood flood-opacity="0" result="BackgroundImageFix"/>
<feColorMatrix in="SourceAlpha" type="matrix" values="0 0 0 0 0 0 0 0 0 0 0 0 0 0 0 0 0 0 127 0" result="hardAlpha"/>
<feOffset dx="1" dy="1"/>
<feGaussianBlur stdDeviation="0.5"/>
<feComposite in2="hardAlpha" operator="out"/>
<feColorMatrix type="matrix" values="0 0 0 0 0.292035 0 0 0 0 0.00276408 0 0 0 0 0.735173 0 0 0 0.2 0"/>
<feBlend mode="normal" in2="BackgroundImageFix" result="effect1_dropShadow_4722_205278"/>
<feBlend mode="normal" in="SourceGraphic" in2="effect1_dropShadow_4722_205278" result="shape"/>
</filter>
<filter id="filter5_d_4722_205278" x="45.311" y="37.0881" width="52.5493" height="29.7148" filterUnits="userSpaceOnUse" color-interpolation-filters="sRGB">
<feFlood flood-opacity="0" result="BackgroundImageFix"/>
<feColorMatrix in="SourceAlpha" type="matrix" values="0 0 0 0 0 0 0 0 0 0 0 0 0 0 0 0 0 0 127 0" result="hardAlpha"/>
<feOffset/>
<feGaussianBlur stdDeviation="0.5"/>
<feComposite in2="hardAlpha" operator="out"/>
<feColorMatrix type="matrix" values="0 0 0 0 0.611765 0 0 0 0 0.407843 0 0 0 0 0.933333 0 0 0 0.02 0"/>
<feBlend mode="normal" in2="BackgroundImageFix" result="effect1_dropShadow_4722_205278"/>
<feBlend mode="normal" in="SourceGraphic" in2="effect1_dropShadow_4722_205278" result="shape"/>
</filter>
<linearGradient id="paint0_linear_4722_205278" x1="59.694" y1="18.5291" x2="59.6956" y2="51.985" gradientUnits="userSpaceOnUse">
<stop stop-color="#FFA200" stop-opacity="0.71"/>
<stop offset="1" stop-color="white" stop-opacity="0.05"/>
</linearGradient>
<linearGradient id="paint1_linear_4722_205278" x1="46.8605" y1="66.3574" x2="98.0756" y2="46.7055" gradientUnits="userSpaceOnUse">
<stop stop-color="#EAF0FD"/>
<stop offset="1" stop-color="#DAE2F7"/>
</linearGradient>
<linearGradient id="paint2_linear_4722_205278" x1="45.7616" y1="40.3053" x2="96.9998" y2="62.1505" gradientUnits="userSpaceOnUse">
<stop stop-color="#FEFCFF"/>
<stop offset="1" stop-color="white"/>
</linearGradient>
<clipPath id="clip0_4722_205278">
<rect width="7.82313" height="7.89216" fill="white" transform="translate(10.1899 22.0408)"/>
</clipPath>
</defs>
</svg>
