<svg width="102" height="72" viewBox="0 0 102 72" fill="none" xmlns="http://www.w3.org/2000/svg">
<ellipse opacity="0.1" cx="71.9392" cy="28.3088" rx="28.0612" ry="28.3088" fill="#60626F"/>
<ellipse opacity="0.1" cx="13.2653" cy="56.6177" rx="13.2653" ry="13.3824" fill="#60626F"/>
<g filter="url(#filter0_d_5607_29083)">
<path d="M6.12207 9.20605C6.12207 8.10149 7.04706 7.20605 8.18808 7.20605H87.7295C88.8706 7.20605 89.7955 8.10149 89.7955 9.20605V14.2061H6.12207V9.20605Z" fill="#434552"/>
<path d="M6.12207 14.2061H89.7955V60.2061C89.7955 61.3106 88.8705 62.2061 87.7295 62.2061H8.18808C7.04705 62.2061 6.12207 61.3106 6.12207 60.2061V14.2061Z" fill="#242633"/>
<path d="M14.2871 10.7646C14.2871 11.5931 13.6155 12.2646 12.7871 12.2646C11.9587 12.2646 11.2871 11.5931 11.2871 10.7646C11.2871 9.93622 11.9587 9.26465 12.7871 9.26465C13.6155 9.26465 14.2871 9.93622 14.2871 10.7646Z" fill="#E2324F"/>
<path d="M20.2871 10.7646C20.2871 11.5931 19.6155 12.2646 18.7871 12.2646C17.9587 12.2646 17.2871 11.5931 17.2871 10.7646C17.2871 9.93622 17.9587 9.26465 18.7871 9.26465C19.6155 9.26465 20.2871 9.93622 20.2871 10.7646Z" fill="#EDAC2C"/>
<path d="M26.2871 10.7646C26.2871 11.5931 25.6155 12.2646 24.7871 12.2646C23.9587 12.2646 23.2871 11.5931 23.2871 10.7646C23.2871 9.93622 23.9587 9.26465 24.7871 9.26465C25.6155 9.26465 26.2871 9.93622 26.2871 10.7646Z" fill="#11B671"/>
<rect x="10.2041" y="35" width="1.02041" height="24.7059" rx="0.510204" fill="#2E313D"/>
<rect x="22.4492" y="35" width="1.02041" height="24.7059" rx="0.510204" fill="#2E313D"/>
<rect x="32.6533" y="35" width="1.02041" height="24.7059" rx="0.510204" fill="#2E313D"/>
<rect x="42.8574" y="35" width="1.02041" height="24.7059" rx="0.510204" fill="#2E313D"/>
<rect x="53.0615" y="35" width="1.02041" height="24.7059" rx="0.510204" fill="#2E313D"/>
<path opacity="0.3" d="M21.8187 40.7017L10.2041 53.7048V59.7062H54.0816V40.7017L43.7575 50.704L33.4334 53.7048L21.8187 40.7017Z" fill="url(#paint0_linear_5607_29083)"/>
<path d="M10.2041 54.0048L21.8187 40.7017L33.4334 54.0048L43.7575 50.9349L54.0817 40.7017" stroke="#945DED" stroke-width="0.5"/>
<path d="M68.8879 39.1176C68.8879 41.1198 67.2802 42.7353 65.3062 42.7353C63.3323 42.7353 61.7246 41.1198 61.7246 39.1176C61.7246 37.1155 63.3323 35.5 65.3062 35.5C67.2802 35.5 68.8879 37.1155 68.8879 39.1176Z" stroke="#F4EFF7"/>
<mask id="path-16-inside-1_5607_29083" fill="white">
<path d="M69.3879 39.1176C69.3879 39.932 69.1485 40.7281 68.7 41.4053C68.2515 42.0824 67.614 42.6102 66.8682 42.9219C66.1224 43.2335 65.3017 43.3151 64.51 43.1562C63.7182 42.9973 62.9909 42.6051 62.4201 42.0293C61.8493 41.4534 61.4605 40.7197 61.303 39.921C61.1455 39.1222 61.2264 38.2943 61.5353 37.5419C61.8442 36.7895 62.3674 36.1464 63.0386 35.6939C63.7098 35.2415 64.499 35 65.3062 35L65.3062 36.0287C64.7006 36.0287 64.1087 36.2099 63.6051 36.5493C63.1016 36.8887 62.7091 37.3711 62.4774 37.9356C62.2456 38.5 62.185 39.1211 62.3031 39.7203C62.4213 40.3195 62.7129 40.8699 63.1411 41.3019C63.5693 41.7339 64.1149 42.0281 64.7089 42.1472C65.3028 42.2664 65.9185 42.2053 66.478 41.9715C67.0375 41.7377 67.5157 41.3418 67.8521 40.8338C68.1886 40.3258 68.3682 39.7286 68.3682 39.1176H69.3879Z"/>
</mask>
<path d="M69.3879 39.1176C69.3879 39.932 69.1485 40.7281 68.7 41.4053C68.2515 42.0824 67.614 42.6102 66.8682 42.9219C66.1224 43.2335 65.3017 43.3151 64.51 43.1562C63.7182 42.9973 62.9909 42.6051 62.4201 42.0293C61.8493 41.4534 61.4605 40.7197 61.303 39.921C61.1455 39.1222 61.2264 38.2943 61.5353 37.5419C61.8442 36.7895 62.3674 36.1464 63.0386 35.6939C63.7098 35.2415 64.499 35 65.3062 35L65.3062 36.0287C64.7006 36.0287 64.1087 36.2099 63.6051 36.5493C63.1016 36.8887 62.7091 37.3711 62.4774 37.9356C62.2456 38.5 62.185 39.1211 62.3031 39.7203C62.4213 40.3195 62.7129 40.8699 63.1411 41.3019C63.5693 41.7339 64.1149 42.0281 64.7089 42.1472C65.3028 42.2664 65.9185 42.2053 66.478 41.9715C67.0375 41.7377 67.5157 41.3418 67.8521 40.8338C68.1886 40.3258 68.3682 39.7286 68.3682 39.1176H69.3879Z" stroke="#FFCA59" stroke-width="2" mask="url(#path-16-inside-1_5607_29083)"/>
<path d="M83.173 39.1176C83.173 41.1198 81.5653 42.7353 79.5914 42.7353C77.6174 42.7353 76.0098 41.1198 76.0098 39.1176C76.0098 37.1155 77.6174 35.5 79.5914 35.5C81.5653 35.5 83.173 37.1155 83.173 39.1176Z" stroke="#F4EFF7"/>
<mask id="path-18-inside-2_5607_29083" fill="white">
<path d="M79.5914 35C80.2626 35 80.9235 35.167 81.5155 35.4862C82.1074 35.8054 82.6122 36.267 82.9852 36.83C83.3581 37.393 83.5876 38.0402 83.6534 38.714C83.7192 39.3879 83.6192 40.0678 83.3623 40.6934C83.1055 41.319 82.6996 41.8711 82.1808 42.3006C81.6619 42.7302 81.046 43.0241 80.3877 43.1562C79.7294 43.2883 79.0489 43.2546 78.4066 43.058C77.7642 42.8614 77.1799 42.5081 76.7052 42.0293L77.4263 41.3019C77.7823 41.6611 78.2207 41.9261 78.7026 42.0736C79.1844 42.221 79.6949 42.2463 80.1888 42.1472C80.6826 42.0481 81.1446 41.8277 81.5339 41.5054C81.9231 41.1832 82.2276 40.7691 82.4203 40.2997C82.613 39.8304 82.6879 39.3204 82.6386 38.8149C82.5892 38.3093 82.4171 37.8239 82.1373 37.4015C81.8576 36.9791 81.4789 36.6329 81.0348 36.3934C80.5907 36.154 80.0949 36.0287 79.5914 36.0287V35Z"/>
</mask>
<path d="M79.5914 35C80.2626 35 80.9235 35.167 81.5155 35.4862C82.1074 35.8054 82.6122 36.267 82.9852 36.83C83.3581 37.393 83.5876 38.0402 83.6534 38.714C83.7192 39.3879 83.6192 40.0678 83.3623 40.6934C83.1055 41.319 82.6996 41.8711 82.1808 42.3006C81.6619 42.7302 81.046 43.0241 80.3877 43.1562C79.7294 43.2883 79.0489 43.2546 78.4066 43.058C77.7642 42.8614 77.1799 42.5081 76.7052 42.0293L77.4263 41.3019C77.7823 41.6611 78.2207 41.9261 78.7026 42.0736C79.1844 42.221 79.6949 42.2463 80.1888 42.1472C80.6826 42.0481 81.1446 41.8277 81.5339 41.5054C81.9231 41.1832 82.2276 40.7691 82.4203 40.2997C82.613 39.8304 82.6879 39.3204 82.6386 38.8149C82.5892 38.3093 82.4171 37.8239 82.1373 37.4015C81.8576 36.9791 81.4789 36.6329 81.0348 36.3934C80.5907 36.154 80.0949 36.0287 79.5914 36.0287V35Z" stroke="#945DED" stroke-width="2" mask="url(#path-18-inside-2_5607_29083)"/>
<path d="M68.8879 55.5884C68.8879 57.5905 67.2802 59.206 65.3062 59.206C63.3323 59.206 61.7246 57.5905 61.7246 55.5884C61.7246 53.5862 63.3323 51.9707 65.3062 51.9707C67.2802 51.9707 68.8879 53.5862 68.8879 55.5884Z" stroke="#434552"/>
<mask id="path-20-inside-3_5607_29083" fill="white">
<path d="M61.4186 56.8427C61.0888 55.8025 61.1822 54.6728 61.6781 53.7021C62.174 52.7313 63.0318 51.9991 64.0629 51.6664C65.094 51.3337 66.2138 51.4279 67.176 51.9282C68.1383 52.4284 68.8641 53.2939 69.1939 54.334L68.2227 54.6474C67.9753 53.8671 67.4308 53.2179 66.7089 52.8426C65.9871 52.4673 65.147 52.3966 64.3735 52.6462C63.6 52.8958 62.9565 53.4451 62.5845 54.1733C62.2125 54.9015 62.1425 55.749 62.3898 56.5293L61.4186 56.8427Z"/>
</mask>
<path d="M61.4186 56.8427C61.0888 55.8025 61.1822 54.6728 61.6781 53.7021C62.174 52.7313 63.0318 51.9991 64.0629 51.6664C65.094 51.3337 66.2138 51.4279 67.176 51.9282C68.1383 52.4284 68.8641 53.2939 69.1939 54.334L68.2227 54.6474C67.9753 53.8671 67.4308 53.2179 66.7089 52.8426C65.9871 52.4673 65.147 52.3966 64.3735 52.6462C63.6 52.8958 62.9565 53.4451 62.5845 54.1733C62.2125 54.9015 62.1425 55.749 62.3898 56.5293L61.4186 56.8427Z" stroke="#00C261" stroke-width="2" mask="url(#path-20-inside-3_5607_29083)"/>
<path d="M83.173 55.5884C83.173 57.5905 81.5653 59.206 79.5914 59.206C77.6174 59.206 76.0098 57.5905 76.0098 55.5884C76.0098 53.5862 77.6174 51.9707 79.5914 51.9707C81.5653 51.9707 83.173 53.5862 83.173 55.5884Z" stroke="#434552"/>
<mask id="path-22-inside-4_5607_29083" fill="white">
<path d="M83.5911 54.7676C83.7065 55.3399 83.6999 55.9304 83.5718 56.4999C83.4436 57.0694 83.1969 57.6049 82.8478 58.0708C82.4988 58.5367 82.0556 58.9224 81.5475 59.2023C81.0394 59.4822 80.4781 59.6499 79.9009 59.6941C79.3237 59.7384 78.7437 59.6583 78.1995 59.4592C77.6554 59.26 77.1594 58.9464 76.7445 58.5391C76.3297 58.1317 76.0055 57.6401 75.7935 57.0967C75.5814 56.5532 75.4864 55.9705 75.5146 55.3872L76.5331 55.4375C76.5119 55.8751 76.5832 56.3122 76.7423 56.7198C76.9014 57.1275 77.1446 57.4963 77.4558 57.8019C77.767 58.1075 78.139 58.3428 78.5473 58.4922C78.9555 58.6416 79.3906 58.7016 79.8236 58.6684C80.2566 58.6352 80.6777 58.5094 81.0588 58.2995C81.44 58.0895 81.7725 57.8002 82.0343 57.4506C82.2961 57.1011 82.4812 56.6994 82.5774 56.2721C82.6735 55.8449 82.6785 55.4019 82.5919 54.9726L83.5911 54.7676Z"/>
</mask>
<path d="M83.5911 54.7676C83.7065 55.3399 83.6999 55.9304 83.5718 56.4999C83.4436 57.0694 83.1969 57.6049 82.8478 58.0708C82.4988 58.5367 82.0556 58.9224 81.5475 59.2023C81.0394 59.4822 80.4781 59.6499 79.9009 59.6941C79.3237 59.7384 78.7437 59.6583 78.1995 59.4592C77.6554 59.26 77.1594 58.9464 76.7445 58.5391C76.3297 58.1317 76.0055 57.6401 75.7935 57.0967C75.5814 56.5532 75.4864 55.9705 75.5146 55.3872L76.5331 55.4375C76.5119 55.8751 76.5832 56.3122 76.7423 56.7198C76.9014 57.1275 77.1446 57.4963 77.4558 57.8019C77.767 58.1075 78.139 58.3428 78.5473 58.4922C78.9555 58.6416 79.3906 58.7016 79.8236 58.6684C80.2566 58.6352 80.6777 58.5094 81.0588 58.2995C81.44 58.0895 81.7725 57.8002 82.0343 57.4506C82.2961 57.1011 82.4812 56.6994 82.5774 56.2721C82.6735 55.8449 82.6785 55.4019 82.5919 54.9726L83.5911 54.7676Z" stroke="#3370FF" stroke-width="2" mask="url(#path-22-inside-4_5607_29083)"/>
</g>
<rect x="10.2041" y="17.5" width="35.7143" height="11.3235" rx="1" fill="#434552"/>
<rect x="12.2451" y="19.5586" width="11.2245" height="2.05926" rx="0.5" fill="#2E313D"/>
<rect x="12.2451" y="23.6763" width="28.5714" height="3.08889" rx="0.5" fill="#2E313D"/>
<rect x="50" y="17.5" width="35.7143" height="11.3235" rx="1" fill="#E9E8EC"/>
<rect x="52.041" y="19.5586" width="11.2245" height="2.05926" rx="0.5" fill="white"/>
<rect x="52.041" y="23.6763" width="28.5714" height="3.08889" rx="0.5" fill="white"/>
<g filter="url(#filter1_d_5607_29083)">
<rect x="50" y="17.5" width="47.9592" height="20.5882" rx="1" fill="#434552"/>
<path d="M60.2246 20.5884C60.7769 20.5884 61.2246 21.0361 61.2246 21.5884L61.2246 21.6476C61.2246 22.1999 60.7769 22.6476 60.2246 22.6476L53.0613 22.6476L53.0613 20.5884L60.2246 20.5884Z" fill="#3370FF"/>
<path d="M70.4287 24.7061C70.981 24.7061 71.4287 25.1538 71.4287 25.7061L71.4287 25.7653C71.4287 26.3176 70.981 26.7653 70.4287 26.7653L53.0614 26.7653L53.0614 24.7061L70.4287 24.7061Z" fill="#3370FF"/>
<path d="M84.7139 28.8237C85.2662 28.8237 85.7139 29.2714 85.7139 29.8237L85.7139 29.883C85.7139 30.4353 85.2662 30.883 84.7139 30.883L53.0608 30.883L53.0608 28.8237L84.7139 28.8237Z" fill="#3370FF"/>
<path d="M93.8984 32.9414C94.4507 32.9414 94.8984 33.3891 94.8984 33.9414L94.8984 34.0007C94.8984 34.553 94.4507 35.0007 93.8984 35.0007L53.0617 35.0007L53.0617 32.9414L93.8984 32.9414Z" fill="#3370FF"/>
</g>
<g filter="url(#filter2_d_5607_29083)">
<ellipse cx="12.2452" cy="56.6177" rx="9.18367" ry="9.26471" fill="#EDAC2C"/>
</g>
<path d="M13.6225 51.522L13.6597 51.5234L13.6909 51.5271C13.6987 51.5283 13.7067 51.5297 13.7147 51.5313C13.7248 51.5334 13.7347 51.5358 13.7446 51.5385C13.7518 51.5405 13.7588 51.5427 13.7658 51.545C13.7749 51.548 13.7839 51.5513 13.7929 51.5549L13.8168 51.5654C13.8263 51.5699 13.8357 51.5747 13.8449 51.5798C13.8504 51.5829 13.8561 51.5862 13.8616 51.5896C13.8733 51.5969 13.8848 51.6047 13.8958 51.6129L13.9058 51.6206C13.907 51.6216 13.9084 51.6227 13.9097 51.6237L13.9472 51.6577L16.2431 53.9738L16.2743 54.0095L16.2875 54.0256C16.2957 54.0368 16.3034 54.0483 16.3105 54.0602L16.3204 54.0772C16.3254 54.0863 16.3301 54.0958 16.3346 54.1054L16.3449 54.1294C16.3485 54.1385 16.3518 54.1477 16.3549 54.157C16.3571 54.1639 16.3592 54.171 16.3612 54.1782C16.3639 54.1882 16.3663 54.1982 16.3684 54.2084C16.3699 54.2164 16.3714 54.2245 16.3726 54.2326C16.3733 54.2373 16.3739 54.2423 16.3745 54.2474L16.3759 54.2614C16.3766 54.2698 16.3771 54.2781 16.3774 54.2864L16.3776 54.3014V56.6176H15.4592V54.7646H13.6225C13.387 54.7646 13.1929 54.5858 13.1664 54.3554L13.1633 54.3014V52.4484H9.03067V60.7867H13.1633V61.7132H9.03067C8.52347 61.7132 8.1123 61.2984 8.1123 60.7867V52.4484C8.1123 51.9368 8.52347 51.522 9.03067 51.522H13.6225ZM16.2895 57.2198C17.1003 57.2198 17.6803 57.7587 17.7552 58.45H16.776C16.7199 58.2105 16.5889 58.0254 16.2833 58.0254H15.6284C15.2667 58.0254 15.0359 58.2921 15.0359 58.6133L15.0422 60.3196C15.0422 60.6408 15.2729 60.9075 15.6347 60.9075H16.2895C16.5889 60.9075 16.7136 60.7333 16.776 60.4993H17.7614C17.6866 61.1797 17.1003 61.7132 16.2958 61.7132H15.6284C14.7802 61.7132 14.0879 61.1089 14.0879 60.3686L14.0817 58.5697C14.0817 57.824 14.774 57.2198 15.6222 57.2198H16.2895ZM14.0817 53.1039V53.8381H14.8095L14.0817 53.1039Z" fill="#E3E6F3"/>
<defs>
<filter id="filter0_d_5607_29083" x="4.12207" y="5.20605" width="91.6733" height="64.6177" filterUnits="userSpaceOnUse" color-interpolation-filters="sRGB">
<feFlood flood-opacity="0" result="BackgroundImageFix"/>
<feColorMatrix in="SourceAlpha" type="matrix" values="0 0 0 0 0 0 0 0 0 0 0 0 0 0 0 0 0 0 127 0" result="hardAlpha"/>
<feOffset dx="2" dy="2"/>
<feGaussianBlur stdDeviation="2"/>
<feComposite in2="hardAlpha" operator="out"/>
<feColorMatrix type="matrix" values="0 0 0 0 0.13092 0 0 0 0 0 0 0 0 0 0.342773 0 0 0 0.11 0"/>
<feBlend mode="normal" in2="BackgroundImageFix" result="effect1_dropShadow_5607_29083"/>
<feBlend mode="normal" in="SourceGraphic" in2="effect1_dropShadow_5607_29083" result="shape"/>
</filter>
<filter id="filter1_d_5607_29083" x="46" y="17.5" width="55.959" height="28.5884" filterUnits="userSpaceOnUse" color-interpolation-filters="sRGB">
<feFlood flood-opacity="0" result="BackgroundImageFix"/>
<feColorMatrix in="SourceAlpha" type="matrix" values="0 0 0 0 0 0 0 0 0 0 0 0 0 0 0 0 0 0 127 0" result="hardAlpha"/>
<feOffset dy="4"/>
<feGaussianBlur stdDeviation="2"/>
<feComposite in2="hardAlpha" operator="out"/>
<feColorMatrix type="matrix" values="0 0 0 0 0.141176 0 0 0 0 0.14902 0 0 0 0 0.2 0 0 0 1 0"/>
<feBlend mode="normal" in2="BackgroundImageFix" result="effect1_dropShadow_5607_29083"/>
<feBlend mode="normal" in="SourceGraphic" in2="effect1_dropShadow_5607_29083" result="shape"/>
</filter>
<filter id="filter2_d_5607_29083" x="1.06152" y="45.353" width="26.3672" height="26.5293" filterUnits="userSpaceOnUse" color-interpolation-filters="sRGB">
<feFlood flood-opacity="0" result="BackgroundImageFix"/>
<feColorMatrix in="SourceAlpha" type="matrix" values="0 0 0 0 0 0 0 0 0 0 0 0 0 0 0 0 0 0 127 0" result="hardAlpha"/>
<feOffset dx="2" dy="2"/>
<feGaussianBlur stdDeviation="2"/>
<feComposite in2="hardAlpha" operator="out"/>
<feColorMatrix type="matrix" values="0 0 0 0 0.234009 0 0 0 0 0 0 0 0 0 0.612679 0 0 0 0.2 0"/>
<feBlend mode="normal" in2="BackgroundImageFix" result="effect1_dropShadow_5607_29083"/>
<feBlend mode="normal" in="SourceGraphic" in2="effect1_dropShadow_5607_29083" result="shape"/>
</filter>
<linearGradient id="paint0_linear_5607_29083" x1="32.6531" y1="36.9008" x2="33.1214" y2="64.4517" gradientUnits="userSpaceOnUse">
<stop stop-color="#945DED"/>
<stop offset="1" stop-color="#242633"/>
</linearGradient>
</defs>
</svg>
