<svg width="104" height="78" viewBox="0 0 104 78" fill="none" xmlns="http://www.w3.org/2000/svg">
<ellipse opacity="0.8" cx="74.4888" cy="27.8986" rx="27.5113" ry="27.8986" fill="#E9E8EC" fill-opacity="0.5"/>
<g filter="url(#filter0_d_4763_206335)">
<path d="M10.9629 6.08685C10.9629 4.96627 11.8697 4.05786 12.9884 4.05786H90.971C92.0897 4.05786 92.9965 4.96627 92.9965 6.08685V11.1593H10.9629V6.08685Z" fill="#E9E8EC"/>
<path d="M10.9629 11.1594H92.9965V56.8539C92.9965 57.9511 92.0897 58.8406 90.971 58.8406H12.9884C11.8697 58.8406 10.9629 57.9511 10.9629 56.8539V11.1594Z" fill="#FDF9FF"/>
<rect x="13.9639" y="14.2029" width="35.0144" height="41.5942" rx="1" fill="white"/>
<g opacity="0.4">
<path d="M35.6275 34.6122C35.6275 37.2142 33.5685 39.304 31.0525 39.304C28.5365 39.304 26.4775 37.2142 26.4775 34.6122C26.4775 32.0102 28.5365 29.9204 31.0525 29.9204C33.5685 29.9204 35.6275 32.0102 35.6275 34.6122Z" stroke="#F2FCF7"/>
<mask id="path-6-inside-1_4763_206335" fill="white">
<path d="M31.0525 29.4204C31.719 29.4204 32.3789 29.5547 32.9946 29.8156C33.6103 30.0765 34.1698 30.459 34.6411 30.9411C35.1123 31.4232 35.4861 31.9955 35.7412 32.6254C35.9962 33.2553 36.1275 33.9304 36.1275 34.6122L34.8596 34.6122C34.8596 34.1008 34.7611 33.5943 34.5698 33.1218C34.3785 32.6492 34.0981 32.2199 33.7445 31.8582C33.391 31.4965 32.9713 31.2097 32.5094 31.0139C32.0475 30.8182 31.5525 30.7175 31.0525 30.7175L31.0525 29.4204Z"/>
</mask>
<path d="M31.0525 29.4204C31.719 29.4204 32.3789 29.5547 32.9946 29.8156C33.6103 30.0765 34.1698 30.459 34.6411 30.9411C35.1123 31.4232 35.4861 31.9955 35.7412 32.6254C35.9962 33.2553 36.1275 33.9304 36.1275 34.6122L34.8596 34.6122C34.8596 34.1008 34.7611 33.5943 34.5698 33.1218C34.3785 32.6492 34.0981 32.2199 33.7445 31.8582C33.391 31.4965 32.9713 31.2097 32.5094 31.0139C32.0475 30.8182 31.5525 30.7175 31.0525 30.7175L31.0525 29.4204Z" stroke="#00C261" stroke-width="2" mask="url(#path-6-inside-1_4763_206335)"/>
<mask id="path-7-inside-2_4763_206335" fill="white">
<path d="M36.1169 34.9472C36.068 35.7217 35.8499 36.4752 35.4787 37.1521C35.1076 37.829 34.5928 38.4122 33.9722 38.8588C33.3517 39.3053 32.6412 39.6038 31.893 39.7324C31.1448 39.8609 30.3779 39.8162 29.6488 39.6015L29.9995 38.355C30.5464 38.5161 31.1217 38.5496 31.683 38.4532C32.2443 38.3568 32.7773 38.1328 33.2428 37.7979C33.7083 37.4629 34.0945 37.0254 34.3729 36.5176C34.6514 36.0097 34.815 35.4445 34.8517 34.8635L36.1169 34.9472Z"/>
</mask>
<path d="M36.1169 34.9472C36.068 35.7217 35.8499 36.4752 35.4787 37.1521C35.1076 37.829 34.5928 38.4122 33.9722 38.8588C33.3517 39.3053 32.6412 39.6038 31.893 39.7324C31.1448 39.8609 30.3779 39.8162 29.6488 39.6015L29.9995 38.355C30.5464 38.5161 31.1217 38.5496 31.683 38.4532C32.2443 38.3568 32.7773 38.1328 33.2428 37.7979C33.7083 37.4629 34.0945 37.0254 34.3729 36.5176C34.6514 36.0097 34.815 35.4445 34.8517 34.8635L36.1169 34.9472Z" stroke="#FFA200" stroke-width="2" mask="url(#path-7-inside-2_4763_206335)"/>
<mask id="path-8-inside-3_4763_206335" fill="white">
<path d="M29.2498 39.4654C28.6268 39.2233 28.0565 38.8579 27.5716 38.3903C27.0866 37.9226 26.6964 37.3618 26.4233 36.7399C26.1502 36.118 25.9994 35.4471 25.9798 34.7656C25.9601 34.0841 26.0718 33.4053 26.3085 32.768L27.4937 33.2287C27.3161 33.7068 27.2323 34.2161 27.2471 34.7273C27.2618 35.2385 27.3749 35.7418 27.5798 36.2083C27.7847 36.6749 28.0774 37.0956 28.4412 37.4464C28.805 37.7972 29.2328 38.0713 29.7001 38.253L29.2498 39.4654Z"/>
</mask>
<path d="M29.2498 39.4654C28.6268 39.2233 28.0565 38.8579 27.5716 38.3903C27.0866 37.9226 26.6964 37.3618 26.4233 36.7399C26.1502 36.118 25.9994 35.4471 25.9798 34.7656C25.9601 34.0841 26.0718 33.4053 26.3085 32.768L27.4937 33.2287C27.3161 33.7068 27.2323 34.2161 27.2471 34.7273C27.2618 35.2385 27.3749 35.7418 27.5798 36.2083C27.7847 36.6749 28.0774 37.0956 28.4412 37.4464C28.805 37.7972 29.2328 38.0713 29.7001 38.253L29.2498 39.4654Z" stroke="#3370FF" stroke-width="2" mask="url(#path-8-inside-3_4763_206335)"/>
</g>
<rect x="16.9653" y="17.2463" width="7.00287" height="3.04348" rx="1" fill="#E9E8EC"/>
<rect opacity="0.4" x="25.9688" y="17.2463" width="20.0082" height="3.04348" rx="1" fill="#E9E8EC"/>
<rect x="16.9653" y="23.3333" width="7.00287" height="3.04348" rx="1" fill="#E9E8EC"/>
<rect opacity="0.4" x="25.9688" y="23.3333" width="20.0082" height="3.04348" rx="1" fill="#E9E8EC"/>
<rect x="17.9653" y="48.6956" width="3.00123" height="5.07246" fill="#DDCAFA"/>
<rect x="23.9678" y="44.6377" width="3.00123" height="9.13043" fill="#DDCAFA"/>
<rect x="29.9702" y="46.6667" width="3.00123" height="7.10145" fill="#DDCAFA"/>
<rect x="35.9731" y="48.6956" width="3.00123" height="5.07246" fill="#DDCAFA"/>
<rect x="41.9756" y="48.6956" width="3.00123" height="5.07246" fill="#DDCAFA"/>
</g>
<g filter="url(#filter1_d_4763_206335)">
<rect x="2" y="15.635" width="23.479" height="24.0196" rx="1" fill="white"/>
<g clip-path="url(#clip0_4763_206335)">
<path d="M14.8548 20.9111C15.1628 20.9111 15.4126 21.1666 15.4126 21.4818V23.7644C15.4126 24.0795 15.1628 24.335 14.8548 24.335C14.5467 24.335 14.297 24.0795 14.297 23.7644V21.4818C14.297 21.1666 14.5467 20.9111 14.8548 20.9111ZM13.1934 26.7867C13.1089 26.3541 13.4816 25.9728 13.9044 26.0593L19.9467 27.2956C20.4746 27.4036 20.6113 28.1106 20.1634 28.416L18.9642 29.2338L20.2555 30.5553C20.4733 30.7782 20.49 31.1288 20.3057 31.3713L20.2555 31.4295L18.4428 33.2839C18.2068 33.5253 17.8242 33.5253 17.5883 33.2839L16.2965 31.9629L15.4971 33.1897C15.2121 33.6271 14.5695 33.5196 14.4198 33.0392L14.4019 32.9681L13.1934 26.7867ZM14.5557 27.4529L15.3007 31.2619L15.7001 30.6495C15.8975 30.3466 16.3017 30.2868 16.5739 30.5044L16.6301 30.5553L18.0155 31.9722L18.9732 30.9924L17.5883 29.5751C17.3366 29.3177 17.3586 28.9005 17.6206 28.6701L17.6804 28.6237L18.279 28.2151L14.5557 27.4529ZM18.3311 22.7962C18.5567 22.5654 18.9224 22.5654 19.148 22.7962C19.3736 23.0269 19.3736 23.4011 19.148 23.6318L17.5143 25.3032C17.2887 25.534 16.9229 25.534 16.6974 25.3032C16.4718 25.0725 16.4718 24.6983 16.6974 24.4675L18.3311 22.7962ZM11.6375 29.6439C11.8631 29.4131 12.2288 29.4131 12.4544 29.6439C12.68 29.8747 12.68 30.2488 12.4544 30.4796L10.8206 32.151C10.595 32.3818 10.2293 32.3818 10.0037 32.151C9.77815 31.9202 9.77815 31.5461 10.0037 31.3153L11.6375 29.6439ZM10.9502 27.1882C11.2582 27.1882 11.508 27.4437 11.508 27.7589C11.508 28.0741 11.2582 28.3295 10.9502 28.3295H8.71894C8.41087 28.3295 8.16113 28.0741 8.16113 27.7589C8.16113 27.4437 8.41087 27.1882 8.71894 27.1882H10.9502ZM10.0037 22.7962C10.2293 22.5654 10.595 22.5654 10.8206 22.7962L12.4544 24.4675C12.68 24.6983 12.68 25.0725 12.4544 25.3032C12.2288 25.534 11.8631 25.534 11.6375 25.3032L10.0037 23.6318C9.77815 23.4011 9.77815 23.0269 10.0037 22.7962Z" fill="#3370FF"/>
</g>
</g>
<g filter="url(#filter2_d_4763_206335)">
<rect x="53.8828" y="15.2173" width="46.1165" height="54.7826" rx="1" fill="white"/>
<path d="M82.5738 42.0978C82.5738 45.6089 79.7944 48.4358 76.3897 48.4358C72.985 48.4358 70.2056 45.6089 70.2056 42.0978C70.2056 38.5866 72.985 35.7598 76.3897 35.7598C79.7944 35.7598 82.5738 38.5866 82.5738 42.0978Z" stroke="#F2FCF7"/>
<mask id="path-22-inside-4_4763_206335" fill="white">
<path d="M76.3897 35.2598C77.2674 35.2598 78.1366 35.4366 78.9476 35.7803C79.7585 36.1239 80.4954 36.6276 81.116 37.2626C81.7367 37.8975 82.2291 38.6514 82.565 39.481C82.9009 40.3106 83.0738 41.1998 83.0738 42.0978L81.4039 42.0978C81.4039 41.4241 81.2742 40.7571 81.0222 40.1347C80.7702 39.5124 80.4009 38.9469 79.9353 38.4705C79.4697 37.9942 78.9169 37.6163 78.3085 37.3585C77.7002 37.1008 77.0481 36.9681 76.3897 36.9681L76.3897 35.2598Z"/>
</mask>
<path d="M76.3897 35.2598C77.2674 35.2598 78.1366 35.4366 78.9476 35.7803C79.7585 36.1239 80.4954 36.6276 81.116 37.2626C81.7367 37.8975 82.2291 38.6514 82.565 39.481C82.9009 40.3106 83.0738 41.1998 83.0738 42.0978L81.4039 42.0978C81.4039 41.4241 81.2742 40.7571 81.0222 40.1347C80.7702 39.5124 80.4009 38.9469 79.9353 38.4705C79.4697 37.9942 78.9169 37.6163 78.3085 37.3585C77.7002 37.1008 77.0481 36.9681 76.3897 36.9681L76.3897 35.2598Z" stroke="#00C261" stroke-width="2" mask="url(#path-22-inside-4_4763_206335)"/>
<mask id="path-23-inside-5_4763_206335" fill="white">
<path d="M83.0598 42.5389C82.9954 43.559 82.7082 44.5514 82.2193 45.443C81.7305 46.3345 81.0525 47.1026 80.2352 47.6908C79.4179 48.2789 78.4821 48.6721 77.4966 48.8413C76.5112 49.0106 75.5012 48.9517 74.5409 48.669L75.0028 47.0273C75.7231 47.2394 76.4808 47.2836 77.2201 47.1566C77.9593 47.0296 78.6613 46.7347 79.2745 46.2935C79.8876 45.8523 80.3962 45.2761 80.7629 44.6072C81.1296 43.9384 81.3451 43.194 81.3935 42.4287L83.0598 42.5389Z"/>
</mask>
<path d="M83.0598 42.5389C82.9954 43.559 82.7082 44.5514 82.2193 45.443C81.7305 46.3345 81.0525 47.1026 80.2352 47.6908C79.4179 48.2789 78.4821 48.6721 77.4966 48.8413C76.5112 49.0106 75.5012 48.9517 74.5409 48.669L75.0028 47.0273C75.7231 47.2394 76.4808 47.2836 77.2201 47.1566C77.9593 47.0296 78.6613 46.7347 79.2745 46.2935C79.8876 45.8523 80.3962 45.2761 80.7629 44.6072C81.1296 43.9384 81.3451 43.194 81.3935 42.4287L83.0598 42.5389Z" stroke="#FFA200" stroke-width="2" mask="url(#path-23-inside-5_4763_206335)"/>
<mask id="path-24-inside-6_4763_206335" fill="white">
<path d="M74.0153 48.4898C73.1948 48.1708 72.4437 47.6896 71.805 47.0737C71.1663 46.4578 70.6524 45.7192 70.2926 44.9001C69.9329 44.081 69.7344 43.1974 69.7085 42.2998C69.6826 41.4022 69.8297 40.5082 70.1415 39.6688L71.7024 40.2756C71.4685 40.9053 71.3582 41.576 71.3776 42.2493C71.3971 42.9227 71.546 43.5855 71.8158 44.2C72.0857 44.8145 72.4712 45.3685 72.9504 45.8306C73.4295 46.2926 73.993 46.6536 74.6085 46.8929L74.0153 48.4898Z"/>
</mask>
<path d="M74.0153 48.4898C73.1948 48.1708 72.4437 47.6896 71.805 47.0737C71.1663 46.4578 70.6524 45.7192 70.2926 44.9001C69.9329 44.081 69.7344 43.1974 69.7085 42.2998C69.6826 41.4022 69.8297 40.5082 70.1415 39.6688L71.7024 40.2756C71.4685 40.9053 71.3582 41.576 71.3776 42.2493C71.3971 42.9227 71.546 43.5855 71.8158 44.2C72.0857 44.8145 72.4712 45.3685 72.9504 45.8306C73.4295 46.2926 73.993 46.6536 74.6085 46.8929L74.0153 48.4898Z" stroke="#3370FF" stroke-width="2" mask="url(#path-24-inside-6_4763_206335)"/>
<rect x="57.835" y="19.2261" width="9.2233" height="4.00848" rx="1" fill="#E9E8EC"/>
<rect opacity="0.4" x="69.6943" y="19.2261" width="26.3523" height="4.00848" rx="1" fill="#E9E8EC"/>
<rect x="57.835" y="27.2424" width="9.2233" height="4.00848" rx="1" fill="#E9E8EC"/>
<rect opacity="0.4" x="69.6943" y="27.2424" width="26.3523" height="4.00848" rx="1" fill="#E9E8EC"/>
<rect x="59.1528" y="60.647" width="3.95284" height="6.68081" fill="#945DED"/>
<rect x="67.0591" y="55.302" width="3.95284" height="12.0255" fill="#945DED"/>
<rect x="74.9644" y="57.9746" width="3.95284" height="9.35313" fill="#945DED"/>
<rect x="82.8706" y="60.647" width="3.95284" height="6.68081" fill="#945DED"/>
<rect x="90.7764" y="60.647" width="3.95284" height="6.68081" fill="#945DED"/>
</g>
<g filter="url(#filter3_d_4763_206335)">
<ellipse cx="51.9794" cy="35.5072" rx="7.00287" ry="7.10145" fill="#FFA200"/>
</g>
<g clip-path="url(#clip1_4763_206335)">
<path d="M52.6028 32.5713L52.367 32.8104C52.3019 32.8764 52.3019 32.9835 52.367 33.0495L54.4571 35.1689L48.7595 35.169C48.6674 35.169 48.5928 35.2447 48.5928 35.3381V35.6763C48.5928 35.7697 48.6674 35.8454 48.7595 35.8454L54.4573 35.8452L52.367 37.9649C52.3069 38.0258 52.3023 38.1217 52.3531 38.1881L52.367 38.204L52.6028 38.4431C52.6629 38.5041 52.7575 38.5088 52.8229 38.4572L52.8386 38.4431L55.5991 35.6437C55.636 35.6064 55.652 35.5559 55.6471 35.5071C55.6519 35.4584 55.6359 35.408 55.5991 35.3706L52.8386 32.5713C52.7735 32.5052 52.6679 32.5052 52.6028 32.5713Z" fill="white"/>
</g>
<path d="M17.1182 7.60864C17.1182 8.43707 16.4466 9.10864 15.6182 9.10864C14.7897 9.10864 14.1182 8.43707 14.1182 7.60864C14.1182 6.78022 14.7897 6.10864 15.6182 6.10864C16.4466 6.10864 17.1182 6.78022 17.1182 7.60864Z" fill="#ED0303"/>
<path d="M23.1182 7.60864C23.1182 8.43707 22.4466 9.10864 21.6182 9.10864C20.7897 9.10864 20.1182 8.43707 20.1182 7.60864C20.1182 6.78022 20.7897 6.10864 21.6182 6.10864C22.4466 6.10864 23.1182 6.78022 23.1182 7.60864Z" fill="#FFA200"/>
<path d="M29.1182 7.60864C29.1182 8.43707 28.4466 9.10864 27.6182 9.10864C26.7897 9.10864 26.1182 8.43707 26.1182 7.60864C26.1182 6.78022 26.7897 6.10864 27.6182 6.10864C28.4466 6.10864 29.1182 6.78022 29.1182 7.60864Z" fill="#00C261"/>
<defs>
<filter id="filter0_d_4763_206335" x="6.96289" y="4.05786" width="90.0337" height="62.7827" filterUnits="userSpaceOnUse" color-interpolation-filters="sRGB">
<feFlood flood-opacity="0" result="BackgroundImageFix"/>
<feColorMatrix in="SourceAlpha" type="matrix" values="0 0 0 0 0 0 0 0 0 0 0 0 0 0 0 0 0 0 127 0" result="hardAlpha"/>
<feOffset dy="4"/>
<feGaussianBlur stdDeviation="2"/>
<feComposite in2="hardAlpha" operator="out"/>
<feColorMatrix type="matrix" values="0 0 0 0 0 0 0 0 0 0 0 0 0 0 0 0 0 0 0.05 0"/>
<feBlend mode="normal" in2="BackgroundImageFix" result="effect1_dropShadow_4763_206335"/>
<feBlend mode="normal" in="SourceGraphic" in2="effect1_dropShadow_4763_206335" result="shape"/>
</filter>
<filter id="filter1_d_4763_206335" x="0" y="14.635" width="31.479" height="32.0195" filterUnits="userSpaceOnUse" color-interpolation-filters="sRGB">
<feFlood flood-opacity="0" result="BackgroundImageFix"/>
<feColorMatrix in="SourceAlpha" type="matrix" values="0 0 0 0 0 0 0 0 0 0 0 0 0 0 0 0 0 0 127 0" result="hardAlpha"/>
<feOffset dx="2" dy="3"/>
<feGaussianBlur stdDeviation="2"/>
<feComposite in2="hardAlpha" operator="out"/>
<feColorMatrix type="matrix" values="0 0 0 0 0.218229 0 0 0 0 0.144106 0 0 0 0 0.014989 0 0 0 0.06 0"/>
<feBlend mode="normal" in2="BackgroundImageFix" result="effect1_dropShadow_4763_206335"/>
<feBlend mode="normal" in="SourceGraphic" in2="effect1_dropShadow_4763_206335" result="shape"/>
</filter>
<filter id="filter2_d_4763_206335" x="49.8828" y="15.2173" width="54.1167" height="62.7827" filterUnits="userSpaceOnUse" color-interpolation-filters="sRGB">
<feFlood flood-opacity="0" result="BackgroundImageFix"/>
<feColorMatrix in="SourceAlpha" type="matrix" values="0 0 0 0 0 0 0 0 0 0 0 0 0 0 0 0 0 0 127 0" result="hardAlpha"/>
<feOffset dy="4"/>
<feGaussianBlur stdDeviation="2"/>
<feComposite in2="hardAlpha" operator="out"/>
<feColorMatrix type="matrix" values="0 0 0 0 0 0 0 0 0 0 0 0 0 0 0 0 0 0 0.05 0"/>
<feBlend mode="normal" in2="BackgroundImageFix" result="effect1_dropShadow_4763_206335"/>
<feBlend mode="normal" in="SourceGraphic" in2="effect1_dropShadow_4763_206335" result="shape"/>
</filter>
<filter id="filter3_d_4763_206335" x="42.9766" y="26.4058" width="22.0059" height="22.2029" filterUnits="userSpaceOnUse" color-interpolation-filters="sRGB">
<feFlood flood-opacity="0" result="BackgroundImageFix"/>
<feColorMatrix in="SourceAlpha" type="matrix" values="0 0 0 0 0 0 0 0 0 0 0 0 0 0 0 0 0 0 127 0" result="hardAlpha"/>
<feOffset dx="2" dy="2"/>
<feGaussianBlur stdDeviation="2"/>
<feComposite in2="hardAlpha" operator="out"/>
<feColorMatrix type="matrix" values="0 0 0 0 0.638802 0 0 0 0 0.412778 0 0 0 0 0.019058 0 0 0 0.3 0"/>
<feBlend mode="normal" in2="BackgroundImageFix" result="effect1_dropShadow_4763_206335"/>
<feBlend mode="normal" in="SourceGraphic" in2="effect1_dropShadow_4763_206335" result="shape"/>
</filter>
<clipPath id="clip0_4763_206335">
<rect width="13.3873" height="13.6955" fill="white" transform="translate(7.60352 20.3406)"/>
</clipPath>
<clipPath id="clip1_4763_206335">
<rect width="8.00328" height="8.11594" fill="white" transform="translate(47.978 31.4492)"/>
</clipPath>
</defs>
</svg>
