<svg width="108" height="73" viewBox="0 0 108 73" fill="none" xmlns="http://www.w3.org/2000/svg">
<circle opacity="0.8" cx="29.5" cy="27.5" r="27.5" fill="#E9E8EC" fill-opacity="0.5"/>
<circle opacity="0.8" cx="83" cy="51" r="19" fill="#E9E8EC" fill-opacity="0.5"/>
<g filter="url(#filter0_d_4793_207829)">
<path d="M11 10C11 8.89543 11.8954 8 13 8H90C91.1046 8 92 8.89543 92 10V15H11V10Z" fill="#E9E8EC"/>
<path d="M11 15H92V61C92 62.1046 91.1046 63 90 63H13C11.8954 63 11 62.1046 11 61V15Z" fill="white"/>
<path d="M19 11.5C19 12.3284 18.3284 13 17.5 13C16.6716 13 16 12.3284 16 11.5C16 10.6716 16.6716 10 17.5 10C18.3284 10 19 10.6716 19 11.5Z" fill="#ED0303"/>
<path d="M25 11.5C25 12.3284 24.3284 13 23.5 13C22.6716 13 22 12.3284 22 11.5C22 10.6716 22.6716 10 23.5 10C24.3284 10 25 10.6716 25 11.5Z" fill="#FFA200"/>
<path d="M31 11.5C31 12.3284 30.3284 13 29.5 13C28.6716 13 28 12.3284 28 11.5C28 10.6716 28.6716 10 29.5 10C30.3284 10 31 10.6716 31 11.5Z" fill="#00C261"/>
</g>
<rect x="44" y="46" width="4" height="12" fill="#FFF6E5" fill-opacity="0.929412"/>
<rect x="53" y="33" width="4" height="25" fill="#C2D4FF"/>
<rect x="62" y="40" width="4" height="18" fill="#FFF6E5" fill-opacity="0.929412"/>
<rect x="71" y="45" width="4" height="13" fill="#4DD490"/>
<rect x="80" y="37" width="4" height="21" fill="#FFF6E5" fill-opacity="0.929412"/>
<path d="M44.6934 53.0556L50.4705 47.3727C53.8949 44.0041 59.506 44.4367 62.3736 48.2906L62.8593 48.9433C65.3073 52.2333 70.0158 52.7928 73.1666 50.1683V50.1683C75.5524 48.1811 78.9483 47.9617 81.5699 49.6254L88.2003 53.8333" stroke="url(#paint0_linear_4793_207829)" stroke-width="0.5"/>
<rect opacity="0.2" x="16" y="31" width="19" height="7" rx="1" fill="#945DED"/>
<g opacity="0.9">
<circle cx="19.5" cy="34.5" r="1.5" fill="white"/>
<rect x="22" y="35" width="11" height="1" rx="0.5" fill="white"/>
<rect x="22" y="33" width="11" height="1" rx="0.5" fill="white"/>
</g>
<rect opacity="0.2" x="16" y="41" width="19" height="7" rx="1" fill="#709BFF"/>
<g opacity="0.9">
<circle cx="19.5" cy="44.5" r="1.5" fill="white"/>
<rect x="22" y="45" width="11" height="1" rx="0.5" fill="white"/>
<rect x="22" y="43" width="11" height="1" rx="0.5" fill="white"/>
</g>
<rect opacity="0.2" x="16" y="51" width="19" height="7" rx="1" fill="#F24F4F"/>
<g opacity="0.9">
<circle cx="19.5" cy="54.5" r="1.5" fill="white"/>
<rect x="22" y="55" width="11" height="1" rx="0.5" fill="white"/>
<rect x="22" y="53" width="11" height="1" rx="0.5" fill="white"/>
</g>
<g filter="url(#filter1_d_4793_207829)">
<rect x="73" y="4" width="29" height="10" rx="1" fill="white"/>
<g filter="url(#filter2_d_4793_207829)">
<circle cx="78" cy="9" r="3" fill="#F24F4F"/>
</g>
<path d="M78 10.6875C78.932 10.6875 79.6875 9.93198 79.6875 9C79.6875 8.06802 78.932 7.3125 78 7.3125C77.068 7.3125 76.3125 8.06802 76.3125 9C76.3125 9.93198 77.068 10.6875 78 10.6875ZM78 11.0625C76.8609 11.0625 75.9375 10.1391 75.9375 9C75.9375 7.86091 76.8609 6.9375 78 6.9375C79.1391 6.9375 80.0625 7.86091 80.0625 9C80.0625 10.1391 79.1391 11.0625 78 11.0625ZM78 8.73483L78.3977 8.33708C78.471 8.26386 78.5897 8.26386 78.6629 8.33708V8.33708C78.7361 8.41031 78.7361 8.52902 78.6629 8.60225L78.2652 9L78.6629 9.39774C78.7361 9.47097 78.7361 9.58968 78.6629 9.66291V9.66291C78.5897 9.73613 78.471 9.73613 78.3977 9.66291L78 9.26516L77.6023 9.66291C77.529 9.73613 77.4103 9.73613 77.3371 9.66291V9.66291C77.2639 9.58968 77.2639 9.47097 77.3371 9.39774L77.7348 9L77.3371 8.60225C77.2639 8.52902 77.2639 8.41031 77.3371 8.33708V8.33708C77.4103 8.26386 77.529 8.26386 77.6023 8.33708L78 8.73483Z" fill="white"/>
<rect opacity="0.4" x="82" y="7" width="6" height="2" rx="1" fill="#F24F4F"/>
<rect opacity="0.4" x="82" y="10" width="14" height="2" rx="1" fill="#F24F4F"/>
</g>
<path d="M51.3781 24.6469C51.3781 26.6491 49.7704 28.2646 47.7965 28.2646C45.8225 28.2646 44.2148 26.6491 44.2148 24.6469C44.2148 22.6448 45.8225 21.0293 47.7965 21.0293C49.7704 21.0293 51.3781 22.6448 51.3781 24.6469Z" stroke="#E9E8EC"/>
<mask id="path-32-inside-1_4793_207829" fill="white">
<path d="M47.7965 20.5293C48.7224 20.5293 49.6209 20.8469 50.3443 21.43C51.0677 22.0131 51.5731 22.827 51.7775 23.7381C51.9818 24.6492 51.873 25.6034 51.469 26.4438C51.0649 27.2843 50.3895 27.9612 49.5538 28.3634L49.1147 27.435C49.7417 27.1332 50.2483 26.6255 50.5515 25.9949C50.8546 25.3644 50.9362 24.6487 50.7829 23.9652C50.6296 23.2817 50.2505 22.6711 49.7078 22.2337C49.1651 21.7963 48.4911 21.558 47.7965 21.558L47.7965 20.5293Z"/>
</mask>
<path d="M47.7965 20.5293C48.7224 20.5293 49.6209 20.8469 50.3443 21.43C51.0677 22.0131 51.5731 22.827 51.7775 23.7381C51.9818 24.6492 51.873 25.6034 51.469 26.4438C51.0649 27.2843 50.3895 27.9612 49.5538 28.3634L49.1147 27.435C49.7417 27.1332 50.2483 26.6255 50.5515 25.9949C50.8546 25.3644 50.9362 24.6487 50.7829 23.9652C50.6296 23.2817 50.2505 22.6711 49.7078 22.2337C49.1651 21.7963 48.4911 21.558 47.7965 21.558L47.7965 20.5293Z" stroke="#F02929" stroke-width="2" mask="url(#path-32-inside-1_4793_207829)"/>
<path d="M69.7453 24.6469C69.7453 26.6491 68.1376 28.2646 66.1637 28.2646C64.1897 28.2646 62.582 26.6491 62.582 24.6469C62.582 22.6448 64.1897 21.0293 66.1637 21.0293C68.1376 21.0293 69.7453 22.6448 69.7453 24.6469Z" stroke="#E9E8EC"/>
<mask id="path-34-inside-2_4793_207829" fill="white">
<path d="M66.1637 20.5293C66.8349 20.5293 67.4958 20.6963 68.0877 21.0155C68.6797 21.3347 69.1845 21.7963 69.5574 22.3593C69.9303 22.9223 70.1599 23.5695 70.2256 24.2433C70.2914 24.9172 70.1915 25.5971 69.9346 26.2227C69.6777 26.8483 69.2719 27.4003 68.753 27.8299C68.2342 28.2595 67.6183 28.5534 66.96 28.6855C66.3016 28.8176 65.6212 28.7839 64.9788 28.5873C64.3365 28.3907 63.7521 28.0374 63.2775 27.5586L63.9985 26.8312C64.3546 27.1904 64.793 27.4554 65.2748 27.6029C65.7567 27.7503 66.2672 27.7756 66.761 27.6765C67.2549 27.5774 67.7169 27.357 68.1061 27.0347C68.4954 26.7125 68.7998 26.2983 68.9925 25.829C69.1852 25.3597 69.2602 24.8497 69.2109 24.3442C69.1615 23.8386 68.9893 23.3532 68.7096 22.9308C68.4298 22.5084 68.0511 22.1622 67.6071 21.9227C67.163 21.6833 66.6672 21.558 66.1637 21.558L66.1637 20.5293Z"/>
</mask>
<path d="M66.1637 20.5293C66.8349 20.5293 67.4958 20.6963 68.0877 21.0155C68.6797 21.3347 69.1845 21.7963 69.5574 22.3593C69.9303 22.9223 70.1599 23.5695 70.2256 24.2433C70.2914 24.9172 70.1915 25.5971 69.9346 26.2227C69.6777 26.8483 69.2719 27.4003 68.753 27.8299C68.2342 28.2595 67.6183 28.5534 66.96 28.6855C66.3016 28.8176 65.6212 28.7839 64.9788 28.5873C64.3365 28.3907 63.7521 28.0374 63.2775 27.5586L63.9985 26.8312C64.3546 27.1904 64.793 27.4554 65.2748 27.6029C65.7567 27.7503 66.2672 27.7756 66.761 27.6765C67.2549 27.5774 67.7169 27.357 68.1061 27.0347C68.4954 26.7125 68.7998 26.2983 68.9925 25.829C69.1852 25.3597 69.2602 24.8497 69.2109 24.3442C69.1615 23.8386 68.9893 23.3532 68.7096 22.9308C68.4298 22.5084 68.0511 22.1622 67.6071 21.9227C67.163 21.6833 66.6672 21.558 66.1637 21.558L66.1637 20.5293Z" stroke="#00C261" stroke-width="2" mask="url(#path-34-inside-2_4793_207829)"/>
<path d="M88.113 24.6469C88.113 26.6491 86.5053 28.2646 84.5313 28.2646C82.5574 28.2646 80.9497 26.6491 80.9497 24.6469C80.9497 22.6448 82.5574 21.0293 84.5313 21.0293C86.5053 21.0293 88.113 22.6448 88.113 24.6469Z" stroke="#E9E8EC"/>
<mask id="path-36-inside-3_4793_207829" fill="white">
<path d="M86.9427 27.9692C86.2528 28.4788 85.4218 28.7569 84.5668 28.7644C83.7119 28.7719 82.8762 28.5084 82.1777 28.011C81.4792 27.5137 80.9531 26.8076 80.6737 25.9924C80.3944 25.1772 80.3758 24.2941 80.6207 23.4677L81.5977 23.7623C81.414 24.3822 81.4279 25.0447 81.6375 25.6562C81.847 26.2678 82.2417 26.7975 82.7657 27.1706C83.2897 27.5437 83.9166 27.7414 84.558 27.7358C85.1993 27.7302 85.8228 27.5215 86.3403 27.1392L86.9427 27.9692Z"/>
</mask>
<path d="M86.9427 27.9692C86.2528 28.4788 85.4218 28.7569 84.5668 28.7644C83.7119 28.7719 82.8762 28.5084 82.1777 28.011C81.4792 27.5137 80.9531 26.8076 80.6737 25.9924C80.3944 25.1772 80.3758 24.2941 80.6207 23.4677L81.5977 23.7623C81.414 24.3822 81.4279 25.0447 81.6375 25.6562C81.847 26.2678 82.2417 26.7975 82.7657 27.1706C83.2897 27.5437 83.9166 27.7414 84.558 27.7358C85.1993 27.7302 85.8228 27.5215 86.3403 27.1392L86.9427 27.9692Z" stroke="#3370FF" stroke-width="2" mask="url(#path-36-inside-3_4793_207829)"/>
<g filter="url(#filter3_d_4793_207829)">
<rect x="7" y="42" width="24" height="24" rx="1" fill="white"/>
<g filter="url(#filter4_d_4793_207829)">
<circle cx="19.333" cy="54.3333" r="7" fill="#F02929"/>
</g>
<path fill-rule="evenodd" clip-rule="evenodd" d="M18.3332 53.3334L17.7498 53.3334V54.9373L17.7498 54.9376L17.7498 54.9378V55.0834C17.7498 55.2957 17.8145 55.7462 18.0671 56.1337C18.2754 56.4533 18.6188 56.7441 19.2082 56.8163V53.3334L18.3332 53.3334ZM19.7915 53.3334V56.8165C20.3817 56.7448 20.7249 56.4557 20.9328 56.1378C21.185 55.7522 21.2498 55.3021 21.2498 55.0834V54.9376V53.3334L20.6665 53.3334L19.7915 53.3334ZM20.9574 52.7501H21.4207L22.2103 51.9605C22.3242 51.8466 22.5088 51.8466 22.6227 51.9605C22.7366 52.0744 22.7366 52.2591 22.6227 52.373L21.8332 53.1626V54.6459H22.4165C22.5776 54.6459 22.7082 54.7765 22.7082 54.9376C22.7082 55.0987 22.5776 55.2292 22.4165 55.2292H21.8275C21.8044 55.5431 21.705 56.0195 21.4253 56.4505L22.1852 57.2105C22.2991 57.3244 22.2991 57.5091 22.1852 57.623C22.0713 57.7369 21.8867 57.7369 21.7728 57.623L21.0427 56.893C20.6867 57.2024 20.1862 57.4167 19.4998 57.4167C18.8142 57.4167 18.3142 57.2014 17.9585 56.8914L17.2269 57.623C17.113 57.7369 16.9283 57.7369 16.8144 57.623C16.7005 57.5091 16.7005 57.3244 16.8144 57.2105L17.5762 56.4488C17.2959 56.017 17.1958 55.5404 17.1723 55.2292H16.5832C16.4221 55.2292 16.2915 55.0987 16.2915 54.9376C16.2915 54.7765 16.4221 54.6459 16.5832 54.6459H17.1665V53.1626L16.3769 52.373C16.263 52.2591 16.263 52.0744 16.3769 51.9605C16.4908 51.8466 16.6755 51.8466 16.7894 51.9605L17.579 52.7501H18.0423C18.067 51.9509 18.6995 51.2917 19.4998 51.2917C20.3002 51.2917 20.9327 51.9509 20.9574 52.7501ZM20.3737 52.7501C20.3495 52.2525 19.9572 51.8751 19.4998 51.8751C19.0425 51.8751 18.6501 52.2525 18.626 52.7501L19.4998 52.7501L20.3737 52.7501Z" fill="white"/>
</g>
<g filter="url(#filter5_d_4793_207829)">
<path d="M2 24C2 23.4477 2.44772 23 3 23H30C30.5523 23 31 23.4477 31 24V30C31 30.5523 30.5523 31 30 31H3C2.44772 31 2 30.5523 2 30V24Z" fill="white"/>
<g filter="url(#filter6_d_4793_207829)">
<path d="M10 27C10 28.6569 8.65685 30 7 30C5.34315 30 4 28.6569 4 27C4 25.3431 5.34315 24 7 24C8.65685 24 10 25.3431 10 27Z" fill="#00C261"/>
</g>
<g clip-path="url(#clip0_4793_207829)">
<path d="M7 24.9375C7.55429 24.9375 8.07423 25.1574 8.45841 25.5416C8.84258 25.9258 9.0625 26.4457 9.0625 27C9.0625 27.5543 8.84258 28.0742 8.4584 28.4584C8.07423 28.8426 7.55429 29.0625 7 29.0625C6.44571 29.0625 5.92577 28.8426 5.54159 28.4584C5.15742 28.0742 4.9375 27.5543 4.9375 27C4.9375 26.4457 5.15742 25.9258 5.54159 25.5416C5.92577 25.1574 6.44571 24.9375 7 24.9375ZM7 25.3125C6.54619 25.3125 6.12131 25.4922 5.80676 25.8068C5.49221 26.1213 5.3125 26.5462 5.3125 27C5.3125 27.4538 5.49221 27.8787 5.80676 28.1932C6.12131 28.5078 6.54619 28.6875 7 28.6875C7.45381 28.6875 7.87869 28.5078 8.19324 28.1932C8.50779 27.8787 8.6875 27.4538 8.6875 27C8.6875 26.5462 8.50779 26.1213 8.19324 25.8068C7.87869 25.4922 7.45381 25.3125 7 25.3125ZM8.07008 26.3049C8.14331 26.3781 8.14331 26.4969 8.07008 26.5701L6.94508 27.6951C6.87186 27.7683 6.75314 27.7683 6.67992 27.6951L6.11742 27.1326C6.04419 27.0594 6.04419 26.9406 6.11742 26.8674C6.19064 26.7942 6.30936 26.7942 6.38258 26.8674L6.8125 27.2972L7.80492 26.3049C7.87814 26.2317 7.99686 26.2317 8.07008 26.3049Z" fill="white"/>
</g>
<path opacity="0.4" d="M11 25.5C11 25.2239 11.2239 25 11.5 25H16.5C16.7761 25 17 25.2239 17 25.5V25.5C17 25.7761 16.7761 26 16.5 26H11.5C11.2239 26 11 25.7761 11 25.5V25.5Z" fill="#B2EDD0"/>
<path opacity="0.4" d="M11 28.5C11 28.2239 11.2239 28 11.5 28H24.5C24.7761 28 25 28.2239 25 28.5V28.5C25 28.7761 24.7761 29 24.5 29H11.5C11.2239 29 11 28.7761 11 28.5V28.5Z" fill="#B2EDD0"/>
</g>
<path fill-rule="evenodd" clip-rule="evenodd" d="M28.5748 22.4737C28.5748 24.7385 26.7388 26.5746 24.4739 26.5746C22.2091 26.5746 20.373 24.7385 20.373 22.4737C20.373 20.2088 22.2091 18.3728 24.4739 18.3728C26.7388 18.3728 28.5748 20.2088 28.5748 22.4737ZM25.9652 21.3553C25.9652 22.1788 25.2975 22.8465 24.4739 22.8465C23.6503 22.8465 22.9827 22.1788 22.9827 21.3553C22.9827 20.5317 23.6503 19.864 24.4739 19.864C25.2975 19.864 25.9652 20.5317 25.9652 21.3553ZM27.4186 25.3279C26.6732 26.0967 25.6294 26.5746 24.4739 26.5746C23.3183 26.5746 22.2744 26.0966 21.529 25.3276C21.9731 24.3824 22.7061 23.4057 23.3555 23.4057H25.5923C26.2414 23.4057 26.9743 24.3831 27.4186 25.3279Z" fill="#C2D4FF"/>
<defs>
<filter id="filter0_d_4793_207829" x="7" y="8" width="89" height="63" filterUnits="userSpaceOnUse" color-interpolation-filters="sRGB">
<feFlood flood-opacity="0" result="BackgroundImageFix"/>
<feColorMatrix in="SourceAlpha" type="matrix" values="0 0 0 0 0 0 0 0 0 0 0 0 0 0 0 0 0 0 127 0" result="hardAlpha"/>
<feOffset dy="4"/>
<feGaussianBlur stdDeviation="2"/>
<feComposite in2="hardAlpha" operator="out"/>
<feColorMatrix type="matrix" values="0 0 0 0 0 0 0 0 0 0 0 0 0 0 0 0 0 0 0.05 0"/>
<feBlend mode="normal" in2="BackgroundImageFix" result="effect1_dropShadow_4793_207829"/>
<feBlend mode="normal" in="SourceGraphic" in2="effect1_dropShadow_4793_207829" result="shape"/>
</filter>
<filter id="filter1_d_4793_207829" x="71" y="4" width="37" height="18" filterUnits="userSpaceOnUse" color-interpolation-filters="sRGB">
<feFlood flood-opacity="0" result="BackgroundImageFix"/>
<feColorMatrix in="SourceAlpha" type="matrix" values="0 0 0 0 0 0 0 0 0 0 0 0 0 0 0 0 0 0 127 0" result="hardAlpha"/>
<feOffset dx="2" dy="4"/>
<feGaussianBlur stdDeviation="2"/>
<feComposite in2="hardAlpha" operator="out"/>
<feColorMatrix type="matrix" values="0 0 0 0 0.118655 0 0 0 0 0 0 0 0 0 0.310661 0 0 0 0.1 0"/>
<feBlend mode="normal" in2="BackgroundImageFix" result="effect1_dropShadow_4793_207829"/>
<feBlend mode="normal" in="SourceGraphic" in2="effect1_dropShadow_4793_207829" result="shape"/>
</filter>
<filter id="filter2_d_4793_207829" x="75" y="6" width="8" height="8" filterUnits="userSpaceOnUse" color-interpolation-filters="sRGB">
<feFlood flood-opacity="0" result="BackgroundImageFix"/>
<feColorMatrix in="SourceAlpha" type="matrix" values="0 0 0 0 0 0 0 0 0 0 0 0 0 0 0 0 0 0 127 0" result="hardAlpha"/>
<feOffset dx="1" dy="1"/>
<feGaussianBlur stdDeviation="0.5"/>
<feComposite in2="hardAlpha" operator="out"/>
<feColorMatrix type="matrix" values="0 0 0 0 0.391846 0 0 0 0 0.00690705 0 0 0 0 0.00690705 0 0 0 0.11 0"/>
<feBlend mode="normal" in2="BackgroundImageFix" result="effect1_dropShadow_4793_207829"/>
<feBlend mode="normal" in="SourceGraphic" in2="effect1_dropShadow_4793_207829" result="shape"/>
</filter>
<filter id="filter3_d_4793_207829" x="5" y="41" width="32" height="32" filterUnits="userSpaceOnUse" color-interpolation-filters="sRGB">
<feFlood flood-opacity="0" result="BackgroundImageFix"/>
<feColorMatrix in="SourceAlpha" type="matrix" values="0 0 0 0 0 0 0 0 0 0 0 0 0 0 0 0 0 0 127 0" result="hardAlpha"/>
<feOffset dx="2" dy="3"/>
<feGaussianBlur stdDeviation="2"/>
<feComposite in2="hardAlpha" operator="out"/>
<feColorMatrix type="matrix" values="0 0 0 0 0.218229 0 0 0 0 0.144106 0 0 0 0 0.014989 0 0 0 0.06 0"/>
<feBlend mode="normal" in2="BackgroundImageFix" result="effect1_dropShadow_4793_207829"/>
<feBlend mode="normal" in="SourceGraphic" in2="effect1_dropShadow_4793_207829" result="shape"/>
</filter>
<filter id="filter4_d_4793_207829" x="10.333" y="45.3333" width="22" height="22" filterUnits="userSpaceOnUse" color-interpolation-filters="sRGB">
<feFlood flood-opacity="0" result="BackgroundImageFix"/>
<feColorMatrix in="SourceAlpha" type="matrix" values="0 0 0 0 0 0 0 0 0 0 0 0 0 0 0 0 0 0 127 0" result="hardAlpha"/>
<feOffset dx="2" dy="2"/>
<feGaussianBlur stdDeviation="2"/>
<feComposite in2="hardAlpha" operator="out"/>
<feColorMatrix type="matrix" values="0 0 0 0 0.138925 0 0 0 0 0.000902143 0 0 0 0 0.362272 0 0 0 0.18 0"/>
<feBlend mode="normal" in2="BackgroundImageFix" result="effect1_dropShadow_4793_207829"/>
<feBlend mode="normal" in="SourceGraphic" in2="effect1_dropShadow_4793_207829" result="shape"/>
</filter>
<filter id="filter5_d_4793_207829" x="0" y="23" width="37" height="16" filterUnits="userSpaceOnUse" color-interpolation-filters="sRGB">
<feFlood flood-opacity="0" result="BackgroundImageFix"/>
<feColorMatrix in="SourceAlpha" type="matrix" values="0 0 0 0 0 0 0 0 0 0 0 0 0 0 0 0 0 0 127 0" result="hardAlpha"/>
<feOffset dx="2" dy="4"/>
<feGaussianBlur stdDeviation="2"/>
<feComposite in2="hardAlpha" operator="out"/>
<feColorMatrix type="matrix" values="0 0 0 0 0.118655 0 0 0 0 0 0 0 0 0 0.310661 0 0 0 0.1 0"/>
<feBlend mode="normal" in2="BackgroundImageFix" result="effect1_dropShadow_4793_207829"/>
<feBlend mode="normal" in="SourceGraphic" in2="effect1_dropShadow_4793_207829" result="shape"/>
</filter>
<filter id="filter6_d_4793_207829" x="4" y="24" width="8" height="8" filterUnits="userSpaceOnUse" color-interpolation-filters="sRGB">
<feFlood flood-opacity="0" result="BackgroundImageFix"/>
<feColorMatrix in="SourceAlpha" type="matrix" values="0 0 0 0 0 0 0 0 0 0 0 0 0 0 0 0 0 0 127 0" result="hardAlpha"/>
<feOffset dx="1" dy="1"/>
<feGaussianBlur stdDeviation="0.5"/>
<feComposite in2="hardAlpha" operator="out"/>
<feColorMatrix type="matrix" values="0 0 0 0 0.00635462 0 0 0 0 0.467578 0 0 0 0 0.236966 0 0 0 0.17 0"/>
<feBlend mode="normal" in2="BackgroundImageFix" result="effect1_dropShadow_4793_207829"/>
<feBlend mode="normal" in="SourceGraphic" in2="effect1_dropShadow_4793_207829" result="shape"/>
</filter>
<linearGradient id="paint0_linear_4793_207829" x1="87.5875" y1="52.2778" x2="44.7063" y2="53.243" gradientUnits="userSpaceOnUse">
<stop stop-color="white"/>
<stop offset="1" stop-color="#ED0303"/>
</linearGradient>
<clipPath id="clip0_4793_207829">
<rect width="4.5" height="4.5" fill="white" transform="translate(4.75 24.75)"/>
</clipPath>
</defs>
</svg>
