<svg width="102" height="78" viewBox="0 0 102 78" fill="none" xmlns="http://www.w3.org/2000/svg">
<circle opacity="0.8" cx="74.5" cy="27.5" r="27.5" fill="#E9E8EC" fill-opacity="0.5"/>
<g filter="url(#filter0_d_4780_207122)">
<path d="M11 11C11 9.89543 11.9065 9 13.0247 9H90.9753C92.0935 9 93 9.89543 93 11V16H11V11Z" fill="#E9E8EC"/>
<path d="M11 16.0769H93V62.0769C93 63.1815 92.0935 64.0769 90.9753 64.0769H13.0247C11.9065 64.0769 11 63.1815 11 62.0769V16.0769Z" fill="white"/>
<path d="M86.8682 25.838C86.8682 29.3492 84.0888 32.176 80.6841 32.176C77.2794 32.176 74.5 29.3492 74.5 25.838C74.5 22.3268 77.2794 19.5 80.6841 19.5C84.0888 19.5 86.8682 22.3268 86.8682 25.838Z" stroke="#F2FCF7"/>
<mask id="path-5-inside-1_4780_207122" fill="white">
<path d="M80.6841 19C81.5619 19 82.431 19.1769 83.242 19.5205C84.053 19.8642 84.7898 20.3678 85.4105 21.0028C86.0312 21.6378 86.5235 22.3916 86.8594 23.2212C87.1953 24.0508 87.3682 24.94 87.3682 25.838L85.6983 25.838C85.6983 25.1644 85.5686 24.4973 85.3167 23.875C85.0647 23.2526 84.6953 22.6871 84.2297 22.2108C83.7641 21.7344 83.2113 21.3566 82.603 21.0988C81.9946 20.841 81.3426 20.7083 80.6841 20.7083L80.6841 19Z"/>
</mask>
<path d="M80.6841 19C81.5619 19 82.431 19.1769 83.242 19.5205C84.053 19.8642 84.7898 20.3678 85.4105 21.0028C86.0312 21.6378 86.5235 22.3916 86.8594 23.2212C87.1953 24.0508 87.3682 24.94 87.3682 25.838L85.6983 25.838C85.6983 25.1644 85.5686 24.4973 85.3167 23.875C85.0647 23.2526 84.6953 22.6871 84.2297 22.2108C83.7641 21.7344 83.2113 21.3566 82.603 21.0988C81.9946 20.841 81.3426 20.7083 80.6841 20.7083L80.6841 19Z" stroke="#00C261" stroke-width="2" mask="url(#path-5-inside-1_4780_207122)"/>
<mask id="path-6-inside-2_4780_207122" fill="white">
<path d="M87.3543 26.2791C87.2898 27.2993 87.0026 28.2916 86.5138 29.1832C86.0249 30.0748 85.3469 30.8429 84.5296 31.431C83.7123 32.0191 82.7765 32.4123 81.7911 32.5816C80.8056 32.7509 79.7956 32.692 78.8353 32.4092L79.2972 30.7676C80.0176 30.9797 80.7753 31.0239 81.5145 30.8969C82.2538 30.7699 82.9558 30.4749 83.5689 30.0337C84.182 29.5925 84.6907 29.0163 85.0574 28.3475C85.4241 27.6786 85.6395 26.9342 85.6879 26.1689L87.3543 26.2791Z"/>
</mask>
<path d="M87.3543 26.2791C87.2898 27.2993 87.0026 28.2916 86.5138 29.1832C86.0249 30.0748 85.3469 30.8429 84.5296 31.431C83.7123 32.0191 82.7765 32.4123 81.7911 32.5816C80.8056 32.7509 79.7956 32.692 78.8353 32.4092L79.2972 30.7676C80.0176 30.9797 80.7753 31.0239 81.5145 30.8969C82.2538 30.7699 82.9558 30.4749 83.5689 30.0337C84.182 29.5925 84.6907 29.0163 85.0574 28.3475C85.4241 27.6786 85.6395 26.9342 85.6879 26.1689L87.3543 26.2791Z" stroke="#FFA200" stroke-width="2" mask="url(#path-6-inside-2_4780_207122)"/>
<mask id="path-7-inside-3_4780_207122" fill="white">
<path d="M78.3098 32.23C77.1547 31.781 76.1439 31.0132 75.3896 30.0119C74.6354 29.0105 74.1672 27.8149 74.0371 26.5578L75.6977 26.378C75.7953 27.321 76.1465 28.218 76.7123 28.9691C77.2781 29.7203 78.0364 30.2963 78.9029 30.6331L78.3098 32.23Z"/>
</mask>
<path d="M78.3098 32.23C77.1547 31.781 76.1439 31.0132 75.3896 30.0119C74.6354 29.0105 74.1672 27.8149 74.0371 26.5578L75.6977 26.378C75.7953 27.321 76.1465 28.218 76.7123 28.9691C77.2781 29.7203 78.0364 30.2963 78.9029 30.6331L78.3098 32.23Z" stroke="#F02929" stroke-width="2" mask="url(#path-7-inside-3_4780_207122)"/>
<rect x="53" y="43" width="4" height="15" fill="#FFF6E5" fill-opacity="0.929412"/>
<rect opacity="0.3" x="61" y="31" width="4" height="27" fill="#FFBE4D"/>
<rect x="69" y="37" width="4" height="21" fill="#FFF6E5" fill-opacity="0.929412"/>
<rect opacity="0.5" x="77" y="43" width="4" height="15" fill="#FFB026"/>
<rect x="85" y="43" width="4" height="15" fill="#FFF6E5" fill-opacity="0.929412"/>
<path d="M53 53.5278L60.7525 36.5999C61.5075 34.9513 63.8909 35.0778 64.4672 36.797L69.7754 52.6324C70.3314 54.291 72.5986 54.4869 73.4308 52.9482L77.5975 45.2442C78.3023 43.9411 80.1299 43.8299 80.9875 45.038L88 54.9167" stroke="#FFA200" stroke-width="0.5"/>
<rect x="16.5" y="21.5" width="33" height="38" rx="0.5" fill="#FCFCFC" stroke="white"/>
<rect x="19" y="27" width="16" height="2" rx="1" fill="url(#paint0_linear_4780_207122)"/>
<rect opacity="0.4" x="19" y="33" width="25" height="2" rx="1" fill="url(#paint1_linear_4780_207122)"/>
<rect opacity="0.4" x="19" y="39" width="28" height="2" rx="1" fill="url(#paint2_linear_4780_207122)"/>
<rect opacity="0.4" x="19" y="44" width="28" height="2" rx="1" fill="url(#paint3_linear_4780_207122)"/>
<rect opacity="0.4" x="19" y="50" width="28" height="2" rx="1" fill="url(#paint4_linear_4780_207122)"/>
<rect x="19" y="55" width="28" height="2" rx="1" fill="url(#paint5_linear_4780_207122)"/>
<path d="M16.0361 12.4519C16.0361 13.2803 15.3646 13.9519 14.5361 13.9519C13.7077 13.9519 13.0361 13.2803 13.0361 12.4519C13.0361 11.6235 13.7077 10.9519 14.5361 10.9519C15.3646 10.9519 16.0361 11.6235 16.0361 12.4519Z" fill="#ED0303"/>
<path d="M22.0361 12.4519C22.0361 13.2803 21.3646 13.9519 20.5361 13.9519C19.7077 13.9519 19.0361 13.2803 19.0361 12.4519C19.0361 11.6235 19.7077 10.9519 20.5361 10.9519C21.3646 10.9519 22.0361 11.6235 22.0361 12.4519Z" fill="#FFA200"/>
<path d="M28.0361 12.4519C28.0361 13.2803 27.3646 13.9519 26.5361 13.9519C25.7077 13.9519 25.0361 13.2803 25.0361 12.4519C25.0361 11.6235 25.7077 10.9519 26.5361 10.9519C27.3646 10.9519 28.0361 11.6235 28.0361 12.4519Z" fill="#00C261"/>
</g>
<g filter="url(#filter1_d_4780_207122)">
<rect x="57.5" y="55.5" width="44" height="14" rx="1.5" fill="#FCFCFC" stroke="white"/>
<rect opacity="0.4" x="70" y="62" width="28" height="2" rx="1" fill="#E9E8EC"/>
<rect opacity="0.4" x="70" y="62" width="13" height="2" rx="1" fill="#ED0303"/>
<path fill-rule="evenodd" clip-rule="evenodd" d="M63.0423 60.7501C63.067 59.9509 63.6995 59.2917 64.4998 59.2917C65.3002 59.2917 65.9327 59.9509 65.9574 60.7501H66.4207L67.2103 59.9605C67.3242 59.8466 67.5088 59.8466 67.6227 59.9605C67.7366 60.0744 67.7366 60.2591 67.6227 60.373L66.8332 61.1626V62.6459H67.4165C67.5776 62.6459 67.7082 62.7765 67.7082 62.9376C67.7082 63.0987 67.5776 63.2293 67.4165 63.2293H66.8275C66.8044 63.5431 66.705 64.0195 66.4253 64.4505L67.1852 65.2105C67.2991 65.3244 67.2991 65.5091 67.1852 65.623C67.0713 65.7369 66.8867 65.7369 66.7728 65.623L66.0427 64.893C66.0364 64.8985 66.03 64.9039 66.0236 64.9094L66.0199 64.9126C65.9442 64.9764 65.8626 65.0355 65.7748 65.0892C65.4476 65.2894 65.029 65.4168 64.4998 65.4168C63.9811 65.4168 63.5686 65.2935 63.2445 65.0992C63.2332 65.0924 63.2219 65.0856 63.2108 65.0786C63.1317 65.029 63.0576 64.975 62.9885 64.9172L62.9843 64.9136C62.9756 64.9063 62.967 64.8989 62.9585 64.8914L62.2269 65.623C62.113 65.7369 61.9283 65.7369 61.8144 65.623C61.7005 65.5091 61.7005 65.3244 61.8144 65.2105L62.5762 64.4488C62.2959 64.017 62.1958 63.5404 62.1723 63.2293H61.5832C61.4221 63.2293 61.2915 63.0987 61.2915 62.9376C61.2915 62.7765 61.4221 62.6459 61.5832 62.6459H62.1665V61.1626L61.3769 60.373C61.263 60.2591 61.263 60.0744 61.3769 59.9605C61.4908 59.8466 61.6755 59.8466 61.7894 59.9605L62.579 60.7501H63.0423ZM64.7915 61.2787C64.7915 61.1478 64.6609 61.0417 64.4998 61.0417C64.3388 61.0417 64.2082 61.1478 64.2082 61.2787V64.5964C64.2082 64.7273 64.3388 64.8334 64.4998 64.8334C64.6609 64.8334 64.7915 64.7273 64.7915 64.5964V61.2787Z" fill="#ED0303"/>
</g>
<g filter="url(#filter2_d_4780_207122)">
<rect x="2" width="31.0555" height="35.5337" rx="1" fill="white"/>
<rect x="6.00684" y="24.366" width="10.0179" height="2.0305" rx="1" fill="#BFF8DB"/>
<rect x="6.00684" y="28.4272" width="23.0412" height="2.0305" rx="1" fill="#22CC77"/>
<path d="M22.0358 5.14937C20.4624 4.22875 18.627 3.87725 16.8306 4.1525C15.0342 4.42775 13.3833 5.31341 12.1488 6.66427C10.9142 8.01513 10.1692 9.75102 10.0359 11.5873C9.90263 13.4236 10.3889 15.2513 11.4151 16.7707C12.4413 18.2901 13.9465 19.4111 15.6838 19.9498C17.4211 20.4885 19.2875 20.413 20.9769 19.7357C22.6664 19.0583 24.0786 17.8193 24.982 16.2218C25.8854 14.6244 26.2264 12.7632 25.9491 10.9435L18.0287 12.1832L22.0358 5.14937Z" fill="url(#paint6_angular_4780_207122)"/>
</g>
<defs>
<filter id="filter0_d_4780_207122" x="7" y="9" width="90" height="63.0769" filterUnits="userSpaceOnUse" color-interpolation-filters="sRGB">
<feFlood flood-opacity="0" result="BackgroundImageFix"/>
<feColorMatrix in="SourceAlpha" type="matrix" values="0 0 0 0 0 0 0 0 0 0 0 0 0 0 0 0 0 0 127 0" result="hardAlpha"/>
<feOffset dy="4"/>
<feGaussianBlur stdDeviation="2"/>
<feComposite in2="hardAlpha" operator="out"/>
<feColorMatrix type="matrix" values="0 0 0 0 0 0 0 0 0 0 0 0 0 0 0 0 0 0 0.05 0"/>
<feBlend mode="normal" in2="BackgroundImageFix" result="effect1_dropShadow_4780_207122"/>
<feBlend mode="normal" in="SourceGraphic" in2="effect1_dropShadow_4780_207122" result="shape"/>
</filter>
<filter id="filter1_d_4780_207122" x="49" y="55" width="53" height="23" filterUnits="userSpaceOnUse" color-interpolation-filters="sRGB">
<feFlood flood-opacity="0" result="BackgroundImageFix"/>
<feColorMatrix in="SourceAlpha" type="matrix" values="0 0 0 0 0 0 0 0 0 0 0 0 0 0 0 0 0 0 127 0" result="hardAlpha"/>
<feOffset dx="-4" dy="4"/>
<feGaussianBlur stdDeviation="2"/>
<feComposite in2="hardAlpha" operator="out"/>
<feColorMatrix type="matrix" values="0 0 0 0 0 0 0 0 0 0 0 0 0 0 0 0 0 0 0.05 0"/>
<feBlend mode="normal" in2="BackgroundImageFix" result="effect1_dropShadow_4780_207122"/>
<feBlend mode="normal" in="SourceGraphic" in2="effect1_dropShadow_4780_207122" result="shape"/>
</filter>
<filter id="filter2_d_4780_207122" x="0" y="0" width="39.0557" height="43.5337" filterUnits="userSpaceOnUse" color-interpolation-filters="sRGB">
<feFlood flood-opacity="0" result="BackgroundImageFix"/>
<feColorMatrix in="SourceAlpha" type="matrix" values="0 0 0 0 0 0 0 0 0 0 0 0 0 0 0 0 0 0 127 0" result="hardAlpha"/>
<feOffset dx="2" dy="4"/>
<feGaussianBlur stdDeviation="2"/>
<feComposite in2="hardAlpha" operator="out"/>
<feColorMatrix type="matrix" values="0 0 0 0 0.118655 0 0 0 0 0 0 0 0 0 0.310661 0 0 0 0.1 0"/>
<feBlend mode="normal" in2="BackgroundImageFix" result="effect1_dropShadow_4780_207122"/>
<feBlend mode="normal" in="SourceGraphic" in2="effect1_dropShadow_4780_207122" result="shape"/>
</filter>
<linearGradient id="paint0_linear_4780_207122" x1="8.5" y1="28" x2="42" y2="28.5" gradientUnits="userSpaceOnUse">
<stop stop-color="#00C261"/>
<stop offset="1" stop-color="#FDFFFE"/>
</linearGradient>
<linearGradient id="paint1_linear_4780_207122" x1="19" y1="34" x2="54.913" y2="35.2199" gradientUnits="userSpaceOnUse">
<stop stop-color="#ED0303"/>
<stop offset="1" stop-color="#F7CCCC"/>
</linearGradient>
<linearGradient id="paint2_linear_4780_207122" x1="0.625" y1="40" x2="59.2231" y2="41.5305" gradientUnits="userSpaceOnUse">
<stop stop-color="#00C261"/>
<stop offset="1" stop-color="#FDFFFE"/>
</linearGradient>
<linearGradient id="paint3_linear_4780_207122" x1="0.625" y1="45" x2="59.2231" y2="46.5305" gradientUnits="userSpaceOnUse">
<stop stop-color="#00C261"/>
<stop offset="1" stop-color="#FDFFFE"/>
</linearGradient>
<linearGradient id="paint4_linear_4780_207122" x1="0.625" y1="51" x2="59.2231" y2="52.5305" gradientUnits="userSpaceOnUse">
<stop stop-color="#00C261"/>
<stop offset="1" stop-color="#FDFFFE"/>
</linearGradient>
<linearGradient id="paint5_linear_4780_207122" x1="0.625" y1="56" x2="59.2231" y2="57.5305" gradientUnits="userSpaceOnUse">
<stop stop-color="#00C261"/>
<stop offset="1" stop-color="#FDFFFE"/>
</linearGradient>
<radialGradient id="paint6_angular_4780_207122" cx="0" cy="0" r="1" gradientUnits="userSpaceOnUse" gradientTransform="translate(18.0287 12.1832) rotate(-46.989) scale(7.91985 7.91322)">
<stop stop-color="#00C261"/>
<stop offset="1" stop-color="#D9FFEC"/>
</radialGradient>
</defs>
</svg>
