<svg width="100" height="70" viewBox="0 0 100 70" fill="none" xmlns="http://www.w3.org/2000/svg">
<circle cx="49" cy="35" r="35" fill="#E9E8EC" fill-opacity="0.5"/>
<rect x="14" y="9" width="70" height="52" rx="1" fill="white" stroke="#DFDEE4" stroke-width="2"/>
<rect x="15" y="17" width="68" height="1" rx="0.1" fill="#F4EFF7"/>
<circle cx="20.5" cy="13.5" r="1.5" fill="#ED0303"/>
<circle cx="26.5" cy="13.5" r="1.5" fill="#FFA200"/>
<circle cx="32.5" cy="13.5" r="1.5" fill="#00C261"/>
<circle cx="22" cy="26" r="3.5" stroke="#F4EFF7"/>
<mask id="path-8-inside-1_4722_201730" fill="white">
<path d="M22 22C22.9074 22 23.7879 22.3086 24.4969 22.875C25.2058 23.4414 25.7011 24.2321 25.9014 25.1172C26.1016 26.0022 25.995 26.9291 25.599 27.7456C25.203 28.562 24.5412 29.2196 23.7221 29.6103L23.2919 28.7083C23.9063 28.4153 24.4028 27.922 24.6999 27.3095C24.997 26.697 25.0769 26.0017 24.9267 25.3377C24.7765 24.6738 24.4049 24.0806 23.8731 23.6557C23.3413 23.2308 22.6807 22.9993 22 22.9993L22 22Z"/>
</mask>
<path d="M22 22C22.9074 22 23.7879 22.3086 24.4969 22.875C25.2058 23.4414 25.7011 24.2321 25.9014 25.1172C26.1016 26.0022 25.995 26.9291 25.599 27.7456C25.203 28.562 24.5412 29.2196 23.7221 29.6103L23.2919 28.7083C23.9063 28.4153 24.4028 27.922 24.6999 27.3095C24.997 26.697 25.0769 26.0017 24.9267 25.3377C24.7765 24.6738 24.4049 24.0806 23.8731 23.6557C23.3413 23.2308 22.6807 22.9993 22 22.9993L22 22Z" stroke="#945DED" stroke-width="2" mask="url(#path-8-inside-1_4722_201730)"/>
<circle cx="40" cy="26" r="3.5" stroke="#F4EFF7"/>
<mask id="path-10-inside-2_4722_201730" fill="white">
<path d="M40 22C40.6578 22 41.3055 22.1622 41.8856 22.4723C42.4657 22.7824 42.9604 23.2308 43.3259 23.7777C43.6913 24.3247 43.9163 24.9533 43.9807 25.6079C44.0452 26.2626 43.9472 26.923 43.6955 27.5307C43.4438 28.1385 43.0461 28.6747 42.5376 29.092C42.0291 29.5093 41.4255 29.7948 40.7804 29.9231C40.1352 30.0515 39.4683 30.0187 38.8389 29.8278C38.2094 29.6368 37.6367 29.2936 37.1716 28.8284L37.8782 28.1218C38.2271 28.4707 38.6567 28.7282 39.1289 28.8715C39.6012 29.0147 40.1014 29.0393 40.5854 28.943C41.0694 28.8468 41.5222 28.6326 41.9036 28.3196C42.2851 28.0065 42.5834 27.6042 42.7723 27.1483C42.9611 26.6924 43.0346 26.197 42.9862 25.7059C42.9379 25.2148 42.7691 24.7432 42.495 24.3329C42.2208 23.9226 41.8497 23.5862 41.4145 23.3536C40.9793 23.121 40.4935 22.9993 40 22.9993L40 22Z"/>
</mask>
<path d="M40 22C40.6578 22 41.3055 22.1622 41.8856 22.4723C42.4657 22.7824 42.9604 23.2308 43.3259 23.7777C43.6913 24.3247 43.9163 24.9533 43.9807 25.6079C44.0452 26.2626 43.9472 26.923 43.6955 27.5307C43.4438 28.1385 43.0461 28.6747 42.5376 29.092C42.0291 29.5093 41.4255 29.7948 40.7804 29.9231C40.1352 30.0515 39.4683 30.0187 38.8389 29.8278C38.2094 29.6368 37.6367 29.2936 37.1716 28.8284L37.8782 28.1218C38.2271 28.4707 38.6567 28.7282 39.1289 28.8715C39.6012 29.0147 40.1014 29.0393 40.5854 28.943C41.0694 28.8468 41.5222 28.6326 41.9036 28.3196C42.2851 28.0065 42.5834 27.6042 42.7723 27.1483C42.9611 26.6924 43.0346 26.197 42.9862 25.7059C42.9379 25.2148 42.7691 24.7432 42.495 24.3329C42.2208 23.9226 41.8497 23.5862 41.4145 23.3536C40.9793 23.121 40.4935 22.9993 40 22.9993L40 22Z" stroke="#945DED" stroke-width="2" mask="url(#path-10-inside-2_4722_201730)"/>
<circle cx="58" cy="26" r="3.5" stroke="#F4EFF7"/>
<mask id="path-12-inside-3_4722_201730" fill="white">
<path d="M60.3631 29.2273C59.6871 29.7223 58.8726 29.9926 58.0348 29.9998C57.1969 30.0071 56.378 29.7511 55.6934 29.268C55.0089 28.7848 54.4933 28.0989 54.2196 27.307C53.9458 26.5151 53.9276 25.6572 54.1676 24.8544L55.125 25.1406C54.945 25.7428 54.9586 26.3864 55.164 26.9805C55.3694 27.5745 55.7561 28.0891 56.2697 28.4515C56.7832 28.814 57.3976 29.0061 58.0261 29.0006C58.6546 28.9951 59.2656 28.7924 59.7727 28.4211L60.3631 29.2273Z"/>
</mask>
<path d="M60.3631 29.2273C59.6871 29.7223 58.8726 29.9926 58.0348 29.9998C57.1969 30.0071 56.378 29.7511 55.6934 29.268C55.0089 28.7848 54.4933 28.0989 54.2196 27.307C53.9458 26.5151 53.9276 25.6572 54.1676 24.8544L55.125 25.1406C54.945 25.7428 54.9586 26.3864 55.164 26.9805C55.3694 27.5745 55.7561 28.0891 56.2697 28.4515C56.7832 28.814 57.3976 29.0061 58.0261 29.0006C58.6546 28.9951 59.2656 28.7924 59.7727 28.4211L60.3631 29.2273Z" stroke="#945DED" stroke-width="2" mask="url(#path-12-inside-3_4722_201730)"/>
<circle cx="76" cy="26" r="3.5" stroke="#F4EFF7"/>
<mask id="path-14-inside-4_4722_201730" fill="white">
<path d="M78.3631 29.2273C77.6871 29.7223 76.8726 29.9926 76.0348 29.9998C75.1969 30.0071 74.378 29.7511 73.6934 29.268C73.0089 28.7848 72.4933 28.0989 72.2196 27.307C71.9458 26.5151 71.9276 25.6572 72.1676 24.8544L73.125 25.1406C72.945 25.7428 72.9586 26.3864 73.164 26.9805C73.3694 27.5745 73.7561 28.0891 74.2697 28.4515C74.7832 28.814 75.3976 29.0061 76.0261 29.0006C76.6546 28.9951 77.2656 28.7924 77.7727 28.4211L78.3631 29.2273Z"/>
</mask>
<path d="M78.3631 29.2273C77.6871 29.7223 76.8726 29.9926 76.0348 29.9998C75.1969 30.0071 74.378 29.7511 73.6934 29.268C73.0089 28.7848 72.4933 28.0989 72.2196 27.307C71.9458 26.5151 71.9276 25.6572 72.1676 24.8544L73.125 25.1406C72.945 25.7428 72.9586 26.3864 73.164 26.9805C73.3694 27.5745 73.7561 28.0891 74.2697 28.4515C74.7832 28.814 75.3976 29.0061 76.0261 29.0006C76.6546 28.9951 77.2656 28.7924 77.7727 28.4211L78.3631 29.2273Z" stroke="#945DED" stroke-width="2" mask="url(#path-14-inside-4_4722_201730)"/>
<rect x="21" y="34" width="1" height="23" rx="0.5" fill="#F4EFF7"/>
<rect x="32" y="34" width="1" height="23" rx="0.5" fill="#F4EFF7"/>
<rect x="43" y="34" width="1" height="23" rx="0.5" fill="#F4EFF7"/>
<rect x="54" y="34" width="1" height="23" rx="0.5" fill="#F4EFF7"/>
<rect x="65" y="34" width="1" height="23" rx="0.5" fill="#F4EFF7"/>
<rect x="76" y="34" width="1" height="23" rx="0.5" fill="#F4EFF7"/>
<path d="M32.5 45L21.5 40V57H76.5V41.5L65.5 34.5L54.5 47L43.5 34.5L32.5 45Z" fill="url(#paint0_linear_4722_201730)"/>
<path d="M21.5 40L32.5 45L43.5 34.5L54.5 47L65.5 34.5L76.5 41.5" stroke="#3370FF" stroke-width="0.5"/>
<circle cx="22.5" cy="40.5" r="1.5" fill="#3370FF"/>
<circle cx="32.5" cy="44.5" r="1.5" fill="#3370FF"/>
<circle cx="43.5" cy="34.5" r="1.5" fill="#3370FF"/>
<circle cx="54.5" cy="47.5" r="1.5" fill="#3370FF"/>
<circle cx="65.5" cy="34.5" r="1.5" fill="#3370FF"/>
<circle cx="76.5" cy="40.5" r="1.5" fill="#00C261"/>
<g filter="url(#filter0_d_4722_201730)">
<rect x="59" y="39" width="35" height="14" rx="1" fill="white"/>
<g filter="url(#filter1_d_4722_201730)">
<circle cx="65.9998" cy="46" r="4.2" fill="#00C261"/>
</g>
<path d="M65.9998 48.3625C67.3046 48.3625 68.3623 47.3048 68.3623 46C68.3623 44.6953 67.3046 43.6375 65.9998 43.6375C64.695 43.6375 63.6373 44.6953 63.6373 46C63.6373 47.3048 64.695 48.3625 65.9998 48.3625ZM65.9998 48.8875C64.4051 48.8875 63.1123 47.5948 63.1123 46C63.1123 44.4053 64.4051 43.1125 65.9998 43.1125C67.5945 43.1125 68.8873 44.4053 68.8873 46C68.8873 47.5948 67.5945 48.8875 65.9998 48.8875ZM65.6953 46.5985L67.0874 45.2064C67.1387 45.1552 67.2218 45.1552 67.273 45.2064L67.4587 45.392C67.5099 45.4433 67.5099 45.5264 67.4587 45.5776L65.7881 47.2482C65.7369 47.2994 65.6538 47.2994 65.6025 47.2482L64.6416 46.2873C64.5904 46.2361 64.5904 46.153 64.6416 46.1017L64.8273 45.9161C64.8785 45.8648 64.9616 45.8648 65.0129 45.9161L65.6953 46.5985Z" fill="white"/>
<rect opacity="0.4" x="71.6001" y="43.2" width="8.4" height="2.8" rx="1.4" fill="#00C261"/>
<rect opacity="0.4" x="71.6001" y="47.3999" width="19.6" height="2.8" rx="1.4" fill="#00C261"/>
</g>
<g filter="url(#filter2_d_4722_201730)">
<rect x="6" y="26" width="29" height="10" rx="1" fill="white"/>
<g filter="url(#filter3_d_4722_201730)">
<circle cx="11" cy="31" r="3" fill="#F24F4F"/>
</g>
<path d="M11 32.6875C11.932 32.6875 12.6875 31.932 12.6875 31C12.6875 30.068 11.932 29.3125 11 29.3125C10.068 29.3125 9.3125 30.068 9.3125 31C9.3125 31.932 10.068 32.6875 11 32.6875ZM11 33.0625C9.86091 33.0625 8.9375 32.1391 8.9375 31C8.9375 29.8609 9.86091 28.9375 11 28.9375C12.1391 28.9375 13.0625 29.8609 13.0625 31C13.0625 32.1391 12.1391 33.0625 11 33.0625ZM11 30.7348L11.3977 30.3371C11.471 30.2639 11.5897 30.2639 11.6629 30.3371V30.3371C11.7361 30.4103 11.7361 30.529 11.6629 30.6022L11.2652 31L11.6629 31.3977C11.7361 31.471 11.7361 31.5897 11.6629 31.6629V31.6629C11.5897 31.7361 11.471 31.7361 11.3977 31.6629L11 31.2652L10.6023 31.6629C10.529 31.7361 10.4103 31.7361 10.3371 31.6629V31.6629C10.2639 31.5897 10.2639 31.471 10.3371 31.3977L10.7348 31L10.3371 30.6022C10.2639 30.529 10.2639 30.4103 10.3371 30.3371V30.3371C10.4103 30.2639 10.529 30.2639 10.6023 30.3371L11 30.7348Z" fill="white"/>
<rect opacity="0.4" x="15" y="29" width="6" height="2" rx="1" fill="#F24F4F"/>
<rect opacity="0.4" x="15" y="32" width="14" height="2" rx="1" fill="#F24F4F"/>
</g>
<defs>
<filter id="filter0_d_4722_201730" x="57" y="39" width="43" height="22" filterUnits="userSpaceOnUse" color-interpolation-filters="sRGB">
<feFlood flood-opacity="0" result="BackgroundImageFix"/>
<feColorMatrix in="SourceAlpha" type="matrix" values="0 0 0 0 0 0 0 0 0 0 0 0 0 0 0 0 0 0 127 0" result="hardAlpha"/>
<feOffset dx="2" dy="4"/>
<feGaussianBlur stdDeviation="2"/>
<feComposite in2="hardAlpha" operator="out"/>
<feColorMatrix type="matrix" values="0 0 0 0 0.118655 0 0 0 0 0 0 0 0 0 0.310661 0 0 0 0.1 0"/>
<feBlend mode="normal" in2="BackgroundImageFix" result="effect1_dropShadow_4722_201730"/>
<feBlend mode="normal" in="SourceGraphic" in2="effect1_dropShadow_4722_201730" result="shape"/>
</filter>
<filter id="filter1_d_4722_201730" x="61.7998" y="41.8" width="10.3999" height="10.3999" filterUnits="userSpaceOnUse" color-interpolation-filters="sRGB">
<feFlood flood-opacity="0" result="BackgroundImageFix"/>
<feColorMatrix in="SourceAlpha" type="matrix" values="0 0 0 0 0 0 0 0 0 0 0 0 0 0 0 0 0 0 127 0" result="hardAlpha"/>
<feOffset dx="1" dy="1"/>
<feGaussianBlur stdDeviation="0.5"/>
<feComposite in2="hardAlpha" operator="out"/>
<feColorMatrix type="matrix" values="0 0 0 0 0 0 0 0 0 0.443245 0 0 0 0 0.221623 0 0 0 0.14 0"/>
<feBlend mode="normal" in2="BackgroundImageFix" result="effect1_dropShadow_4722_201730"/>
<feBlend mode="normal" in="SourceGraphic" in2="effect1_dropShadow_4722_201730" result="shape"/>
</filter>
<filter id="filter2_d_4722_201730" x="4" y="26" width="37" height="18" filterUnits="userSpaceOnUse" color-interpolation-filters="sRGB">
<feFlood flood-opacity="0" result="BackgroundImageFix"/>
<feColorMatrix in="SourceAlpha" type="matrix" values="0 0 0 0 0 0 0 0 0 0 0 0 0 0 0 0 0 0 127 0" result="hardAlpha"/>
<feOffset dx="2" dy="4"/>
<feGaussianBlur stdDeviation="2"/>
<feComposite in2="hardAlpha" operator="out"/>
<feColorMatrix type="matrix" values="0 0 0 0 0.118655 0 0 0 0 0 0 0 0 0 0.310661 0 0 0 0.1 0"/>
<feBlend mode="normal" in2="BackgroundImageFix" result="effect1_dropShadow_4722_201730"/>
<feBlend mode="normal" in="SourceGraphic" in2="effect1_dropShadow_4722_201730" result="shape"/>
</filter>
<filter id="filter3_d_4722_201730" x="8" y="28" width="8" height="8" filterUnits="userSpaceOnUse" color-interpolation-filters="sRGB">
<feFlood flood-opacity="0" result="BackgroundImageFix"/>
<feColorMatrix in="SourceAlpha" type="matrix" values="0 0 0 0 0 0 0 0 0 0 0 0 0 0 0 0 0 0 127 0" result="hardAlpha"/>
<feOffset dx="1" dy="1"/>
<feGaussianBlur stdDeviation="0.5"/>
<feComposite in2="hardAlpha" operator="out"/>
<feColorMatrix type="matrix" values="0 0 0 0 0.391846 0 0 0 0 0.00690705 0 0 0 0 0.00690705 0 0 0 0.11 0"/>
<feBlend mode="normal" in2="BackgroundImageFix" result="effect1_dropShadow_4722_201730"/>
<feBlend mode="normal" in="SourceGraphic" in2="effect1_dropShadow_4722_201730" result="shape"/>
</filter>
<linearGradient id="paint0_linear_4722_201730" x1="49" y1="34.5" x2="49" y2="57" gradientUnits="userSpaceOnUse">
<stop stop-color="#3370FF" stop-opacity="0.37"/>
<stop offset="1" stop-color="white" stop-opacity="0"/>
</linearGradient>
</defs>
</svg>
