<svg width="101" height="104" viewBox="0 0 101 104" fill="none" xmlns="http://www.w3.org/2000/svg">
<g clip-path="url(#clip0_4504_86736)">
<rect width="100" height="103.681" transform="translate(0.5)" fill="white"/>
<path fill-rule="evenodd" clip-rule="evenodd" d="M26.8241 29.0045C24.5762 29.0045 22.7537 30.8258 22.7537 33.0737V39.8569H22.81C22.7728 40.0786 22.7537 40.3051 22.7537 40.5363V94.8045C22.7537 97.0524 24.5762 98.8749 26.8241 98.8749H81.2036C83.1184 98.8749 84.7744 97.54 85.1818 95.6696L96.9784 41.4003C97.5308 38.8636 95.598 36.4659 93.0014 36.4659H62.7771C60.9043 36.4659 59.3849 34.9478 59.3849 33.0737C59.3849 30.8258 57.5624 29.0045 55.3145 29.0045H26.8241Z" fill="#D4D4D8"/>
<path fill-rule="evenodd" clip-rule="evenodd" d="M26.6563 29.4479C24.4085 29.4479 22.5859 31.2704 22.5859 33.5183V40.3015H22.6423C22.6051 40.5232 22.5859 40.7496 22.5859 40.9809V95.249C22.5859 97.4969 24.4085 99.3194 26.6563 99.3194H81.0359C82.9507 99.3194 84.6066 97.9846 85.014 96.1129L96.8107 41.8448C97.3631 39.3082 95.4303 36.9105 92.8337 36.9105H62.6094C60.7366 36.9105 59.2172 35.3923 59.2172 33.5183C59.2172 31.2704 57.3947 29.4479 55.1468 29.4479H26.6563Z" fill="#D4D4D8"/>
<path d="M81.091 40.3626H15.9692C13.586 40.3626 11.6532 42.2954 11.6532 44.6787V94.8057C11.6532 97.189 13.586 99.1205 15.9692 99.1205H81.091C83.4743 99.1205 85.407 97.189 85.407 94.8057V44.6787C85.407 42.2954 83.4743 40.3626 81.091 40.3626Z" fill="#EDEDF1" stroke="url(#paint0_linear_4504_86736)" stroke-width="4.096"/>
<path d="M4.32743 48.9216H69.835C71.5629 48.9216 73.0762 50.0803 73.528 51.7483L84.8944 93.8064C85.5523 96.2376 83.7202 98.6293 81.2027 98.6293H15.6939C13.966 98.6293 12.4527 97.4706 12.0009 95.8026L0.634464 53.7445C-0.022169 51.3133 1.80873 48.9216 4.32743 48.9216Z" fill="#EDEDF1" stroke="url(#paint1_linear_4504_86736)" stroke-width="4.096"/>
<path d="M30.2175 33.0726C30.2175 34.1965 29.3056 35.1084 28.1817 35.1084C27.0578 35.1084 26.1471 34.1965 26.1471 33.0726C26.1471 31.9498 27.0578 31.038 28.1817 31.038C29.3056 31.038 30.2175 31.9498 30.2175 33.0726Z" fill="#FDE6E6"/>
<path d="M36.9995 33.0726C36.9995 34.1965 36.0888 35.1084 34.9649 35.1084C33.8409 35.1084 32.9291 34.1965 32.9291 33.0726C32.9291 31.9498 33.8409 31.038 34.9649 31.038C36.0888 31.038 36.9995 31.9498 36.9995 33.0726Z" fill="#FFF9ED"/>
<path d="M43.7803 33.0726C43.7803 34.1965 42.8696 35.1084 41.7457 35.1084C40.6217 35.1084 39.7111 34.1965 39.7111 33.0726C39.7111 31.9498 40.6217 31.038 41.7457 31.038C42.8696 31.038 43.7803 31.9498 43.7803 33.0726Z" fill="#E5F9EF"/>
<path d="M29.7989 65.8575C29.6611 65.0307 30.2998 64.2782 31.1373 64.2782H37.8834C38.5472 64.2782 39.1128 64.7575 39.2218 65.4117L40.1265 70.8385C40.2643 71.6653 39.6268 72.4178 38.7881 72.4178H32.042C31.3782 72.4178 30.8126 71.9385 30.7036 71.2843L29.7989 65.8575Z" fill="white"/>
<path d="M31.8359 76.7111C31.6981 75.8831 32.3356 75.1306 33.1744 75.1306H39.9204C40.5831 75.1306 41.1498 75.6099 41.2577 76.2641L42.1623 81.691C42.3001 82.5177 41.6627 83.2714 40.8239 83.2714H34.0778C33.4152 83.2714 32.8484 82.7921 32.7406 82.1379L31.8359 76.7111Z" fill="white"/>
<path d="M43.3677 65.8575C43.2299 65.0307 43.8673 64.2782 44.7061 64.2782H51.4522C52.1148 64.2782 52.6816 64.7575 52.7906 65.4117L53.6953 70.8385C53.8319 71.6653 53.1944 72.4178 52.3568 72.4178H45.6108C44.9469 72.4178 44.3814 71.9385 44.2723 71.2843L43.3677 65.8575Z" fill="#D9BCE3"/>
<path d="M45.3999 76.7111C45.2621 75.8831 45.8996 75.1306 46.7383 75.1306H53.4844C54.1482 75.1306 54.7138 75.6099 54.8228 76.2641L55.7275 81.691C55.8653 82.5177 55.2278 83.2714 54.3891 83.2714H47.643C46.9792 83.2714 46.4136 82.7921 46.3046 82.1379L45.3999 76.7111Z" fill="white"/>
<path fill-rule="evenodd" clip-rule="evenodd" d="M95.8836 8.82983C95.8836 8.82983 96.7403 10.7135 97.222 12.3598C97.8906 14.6437 97.3562 17.2403 97.2388 17.2654C96.5977 17.4056 94.4217 14.3441 94.4565 12.548C94.4864 10.9327 95.8836 8.82983 95.8836 8.82983Z" fill="#D4D4D8"/>
<g filter="url(#filter0_d_4504_86736)">
<path fill-rule="evenodd" clip-rule="evenodd" d="M65.4492 14.9336C65.4492 14.9336 78.1637 11.9189 82.5924 1.84052C84.4568 2.25391 87.7376 3.8907 95.7131 8.65848C96.8274 9.3235 94.4693 12.5288 94.4693 12.5288C94.4693 12.5288 98.1826 15.7736 97.2696 17.0701C91.9973 24.5651 87.7819 27.2875 82.9303 27.4648C75.4054 25.6219 65.4492 14.9336 65.4492 14.9336Z" fill="#EDEDF1"/>
</g>
<path fill-rule="evenodd" clip-rule="evenodd" d="M39.3564 35.5229C41.7852 40.4525 39.7327 46.8762 36.3081 52.055C40.7919 52.9597 48.6643 53.723 54.8508 53.7553C55.1444 53.7565 55.9568 53.3946 56.2324 53.3611C57.9027 53.1526 58.4467 51.7291 58.9452 51.1983C60.6347 47.824 62.5063 45.1891 62.631 41.1439C62.6957 39.0697 62.5675 37.3586 62.3721 36.6673C59.7852 35.4115 54.985 36.9369 39.3564 35.5229Z" fill="#F9F4FA"/>
<path fill-rule="evenodd" clip-rule="evenodd" d="M56.23 49.8299C57.3671 50.8328 56.514 53.7145 54.3871 53.7756C56.6458 53.6882 57.82 52.8039 58.6528 51.934C59.4868 51.0652 63.4026 47.0272 62.3554 36.6864C62.8802 45.4479 60.951 49.8382 56.23 49.8299Z" fill="#F2E9F6"/>
</g>
<defs>
<filter id="filter0_d_4504_86736" x="65.4492" y="1.84052" width="31.9648" height="218.108" filterUnits="userSpaceOnUse" color-interpolation-filters="sRGB">
<feFlood flood-opacity="0" result="BackgroundImageFix"/>
<feColorMatrix in="SourceAlpha" type="matrix" values="0 0 0 0 0 0 0 0 0 0 0 0 0 0 0 0 0 0 127 0" result="hardAlpha"/>
<feOffset dy="192.484"/>
<feColorMatrix type="matrix" values="0 0 0 0 0.470588 0 0 0 0 0.219608 0 0 0 0 0.529412 0 0 0 0.3 0"/>
<feBlend mode="normal" in2="BackgroundImageFix" result="effect1_dropShadow_4504_86736"/>
<feBlend mode="normal" in="SourceGraphic" in2="effect1_dropShadow_4504_86736" result="shape"/>
</filter>
<linearGradient id="paint0_linear_4504_86736" x1="48.3135" y1="44.1179" x2="77.2705" y2="105.468" gradientUnits="userSpaceOnUse">
<stop stop-color="white"/>
<stop offset="1" stop-color="white" stop-opacity="0"/>
</linearGradient>
<linearGradient id="paint1_linear_4504_86736" x1="29.418" y1="48.7795" x2="24.0192" y2="96.6323" gradientUnits="userSpaceOnUse">
<stop stop-color="white"/>
<stop offset="1" stop-color="white" stop-opacity="0"/>
</linearGradient>
<clipPath id="clip0_4504_86736">
<rect width="100" height="103.681" fill="white" transform="translate(0.5)"/>
</clipPath>
</defs>
</svg>
