<svg width="103" height="72" viewBox="0 0 103 72" fill="none" xmlns="http://www.w3.org/2000/svg">
<g filter="url(#filter0_d_5607_29073)">
<path d="M10 8C10 6.89543 10.8954 6 12 6H89C90.1046 6 91 6.89543 91 8V13H10V8Z" fill="#434552"/>
<path d="M10 13H91V59C91 60.1046 90.1046 61 89 61H12C10.8954 61 10 60.1046 10 59V13Z" fill="#242633"/>
<rect x="18" y="53" width="66" height="1" rx="0.1" fill="#2E313D"/>
<circle cx="16.5" cy="9.5" r="1.5" fill="#E2324F"/>
<circle cx="22.5" cy="9.5" r="1.5" fill="#EDAC2C"/>
<circle cx="28.5" cy="9.5" r="1.5" fill="#11B671"/>
<rect opacity="0.2" x="14" y="18" width="19" height="7" rx="1" fill="#D96CFF"/>
<g opacity="0.9">
<circle cx="17.5" cy="21.5" r="1.5" fill="#E3E6F3"/>
<rect x="20" y="22" width="11" height="1" rx="0.5" fill="#E3E6F3"/>
<rect x="20" y="20" width="11" height="1" rx="0.5" fill="#E3E6F3"/>
</g>
<rect opacity="0.2" x="37" y="18" width="19" height="7" rx="1" fill="#169262"/>
<g opacity="0.9">
<circle cx="40.5" cy="21.5" r="1.5" fill="#E3E6F3"/>
<rect x="43" y="22" width="11" height="1" rx="0.5" fill="#E3E6F3"/>
<rect x="43" y="20" width="11" height="1" rx="0.5" fill="#E3E6F3"/>
</g>
<rect opacity="0.2" x="60" y="18" width="19" height="7" rx="1" fill="#3370FF"/>
<g opacity="0.9">
<circle cx="63.5" cy="21.5" r="1.5" fill="white"/>
<rect x="66" y="22" width="11" height="1" rx="0.5" fill="white"/>
<rect x="66" y="20" width="11" height="1" rx="0.5" fill="white"/>
</g>
<path d="M24 41C24 40.4477 24.4477 40 25 40H26C26.5523 40 27 40.4477 27 41V53H24V41Z" fill="#D7C1F8"/>
<path d="M29 46C29 45.4477 29.4477 45 30 45H31C31.5523 45 32 45.4477 32 46V53H29V46Z" fill="#1D5849"/>
<path d="M39 44C39 43.4477 39.4477 43 40 43H41C41.5523 43 42 43.4477 42 44V53H39V44Z" fill="#D7C1F8"/>
<path d="M44 47.8462C44 47.2939 44.4477 46.8462 45 46.8462H46C46.5523 46.8462 47 47.2939 47 47.8462V53H44V47.8462Z" fill="#11B671"/>
<path d="M54 37C54 36.4477 54.4477 36 55 36H56C56.5523 36 57 36.4477 57 37V53H54V37Z" fill="#945DED"/>
<path d="M59 43.5386C59 42.9863 59.4477 42.5386 60 42.5386H61C61.5523 42.5386 62 42.9863 62 43.5386V53.0001H59V43.5386Z" fill="#1D5849"/>
<path d="M70 37C70 36.4477 70.4477 36 71 36H72C72.5523 36 73 36.4477 73 37V53H70V37Z" fill="#D7C1F8"/>
<path d="M75 43.5386C75 42.9863 75.4477 42.5386 76 42.5386H77C77.5523 42.5386 78 42.9863 78 43.5386V53.0001H75V43.5386Z" fill="#1D5849"/>
<g filter="url(#filter1_d_5607_29073)">
<rect x="4" y="37" width="27" height="18" rx="1" fill="#945DED"/>
<rect x="7" y="40" width="8" height="2" rx="1" fill="#F4EFF7"/>
<rect x="7" y="44" width="21" height="2" rx="1" fill="#F4EFF7"/>
<rect x="7" y="48" width="21" height="2" rx="1" fill="#F4EFF7"/>
</g>
<g filter="url(#filter2_d_5607_29073)">
<g filter="url(#filter3_d_5607_29073)">
<rect x="61" y="12" width="36" height="28" rx="2" fill="#434552"/>
</g>
<rect x="74" y="15" width="11" height="2" rx="1" fill="#242633"/>
<rect x="67" y="20" width="24" height="2" rx="1" fill="#242633"/>
<rect x="67" y="25" width="24" height="2" rx="1" fill="#242633"/>
<rect x="67" y="30" width="24" height="2" rx="1" fill="#242633"/>
<rect x="67" y="35" width="24" height="2" rx="1" fill="#242633"/>
</g>
<g filter="url(#filter4_d_5607_29073)">
<circle cx="85.5" cy="54.5" r="9.5" fill="#E3E6F3"/>
<circle cx="85.5" cy="54.5" r="9" stroke="#E3E6F3"/>
</g>
<path fill-rule="evenodd" clip-rule="evenodd" d="M84.8335 53.9998C83.2235 53.9998 81.9168 52.694 81.9168 51.0832C81.9168 49.4723 83.2235 48.1665 84.8335 48.1665C86.4435 48.1665 87.7502 49.4723 87.7502 51.0832C87.7502 52.694 86.4435 53.9998 84.8335 53.9998ZM84.8335 52.8332C85.7995 52.8332 86.5835 52.0494 86.5835 51.0832C86.5835 50.117 85.7995 49.3332 84.8335 49.3332C83.8675 49.3332 83.0835 50.117 83.0835 51.0832C83.0835 52.0494 83.8675 52.8332 84.8335 52.8332ZM79.5835 58.0832C79.5835 56.1503 81.1497 54.5832 83.0835 54.5832H86.5835C88.5172 54.5832 90.0835 56.1503 90.0835 58.0832V59.564C90.0835 59.8863 89.821 60.1473 89.5002 60.1473H80.1668C79.846 60.1473 79.5835 59.8863 79.5835 59.564V58.0832ZM88.9168 58.0832C88.9168 56.7943 87.8726 55.7498 86.5835 55.7498H83.0835C81.7944 55.7498 80.7502 56.7943 80.7502 58.0832V58.9807H88.9168V58.0832ZM89.2085 52.2498H92.1252C92.2862 52.2498 92.4168 52.3804 92.4168 52.5415V53.1248C92.4168 53.2859 92.2862 53.4165 92.1252 53.4165H89.2085C89.0474 53.4165 88.9168 53.2859 88.9168 53.1248V52.5415C88.9168 52.3804 89.0474 52.2498 89.2085 52.2498ZM90.9585 54.5832H92.1252C92.2862 54.5832 92.4168 54.7138 92.4168 54.8748V55.4582C92.4168 55.6193 92.2862 55.7498 92.1252 55.7498H90.9585C90.7974 55.7498 90.6668 55.6193 90.6668 55.4582V54.8748C90.6668 54.7138 90.7974 54.5832 90.9585 54.5832Z" fill="#945DED"/>
</g>
<defs>
<filter id="filter0_d_5607_29073" x="-2" y="-2" width="108" height="78" filterUnits="userSpaceOnUse" color-interpolation-filters="sRGB">
<feFlood flood-opacity="0" result="BackgroundImageFix"/>
<feColorMatrix in="SourceAlpha" type="matrix" values="0 0 0 0 0 0 0 0 0 0 0 0 0 0 0 0 0 0 127 0" result="hardAlpha"/>
<feOffset dx="2" dy="2"/>
<feGaussianBlur stdDeviation="2"/>
<feComposite in2="hardAlpha" operator="out"/>
<feColorMatrix type="matrix" values="0 0 0 0 0.285377 0 0 0 0 0 0 0 0 0 0.747168 0 0 0 0.11 0"/>
<feBlend mode="normal" in2="BackgroundImageFix" result="effect1_dropShadow_5607_29073"/>
<feBlend mode="normal" in="SourceGraphic" in2="effect1_dropShadow_5607_29073" result="shape"/>
</filter>
<filter id="filter1_d_5607_29073" x="2" y="37" width="35" height="26" filterUnits="userSpaceOnUse" color-interpolation-filters="sRGB">
<feFlood flood-opacity="0" result="BackgroundImageFix"/>
<feColorMatrix in="SourceAlpha" type="matrix" values="0 0 0 0 0 0 0 0 0 0 0 0 0 0 0 0 0 0 127 0" result="hardAlpha"/>
<feOffset dx="2" dy="4"/>
<feGaussianBlur stdDeviation="2"/>
<feComposite in2="hardAlpha" operator="out"/>
<feColorMatrix type="matrix" values="0 0 0 0 0.242617 0 0 0 0 0.0117542 0 0 0 0 0.616195 0 0 0 0.23 0"/>
<feBlend mode="normal" in2="BackgroundImageFix" result="effect1_dropShadow_5607_29073"/>
<feBlend mode="normal" in="SourceGraphic" in2="effect1_dropShadow_5607_29073" result="shape"/>
</filter>
<filter id="filter2_d_5607_29073" x="59" y="12" width="44" height="36" filterUnits="userSpaceOnUse" color-interpolation-filters="sRGB">
<feFlood flood-opacity="0" result="BackgroundImageFix"/>
<feColorMatrix in="SourceAlpha" type="matrix" values="0 0 0 0 0 0 0 0 0 0 0 0 0 0 0 0 0 0 127 0" result="hardAlpha"/>
<feOffset dx="2" dy="4"/>
<feGaussianBlur stdDeviation="2"/>
<feComposite in2="hardAlpha" operator="out"/>
<feColorMatrix type="matrix" values="0 0 0 0 0.118655 0 0 0 0 0 0 0 0 0 0.310661 0 0 0 0.1 0"/>
<feBlend mode="normal" in2="BackgroundImageFix" result="effect1_dropShadow_5607_29073"/>
<feBlend mode="normal" in="SourceGraphic" in2="effect1_dropShadow_5607_29073" result="shape"/>
</filter>
<filter id="filter3_d_5607_29073" x="60" y="11" width="38" height="30" filterUnits="userSpaceOnUse" color-interpolation-filters="sRGB">
<feFlood flood-opacity="0" result="BackgroundImageFix"/>
<feColorMatrix in="SourceAlpha" type="matrix" values="0 0 0 0 0 0 0 0 0 0 0 0 0 0 0 0 0 0 127 0" result="hardAlpha"/>
<feOffset/>
<feGaussianBlur stdDeviation="0.5"/>
<feComposite in2="hardAlpha" operator="out"/>
<feColorMatrix type="matrix" values="0 0 0 0 0.141176 0 0 0 0 0.14902 0 0 0 0 0.2 0 0 0 1 0"/>
<feBlend mode="normal" in2="BackgroundImageFix" result="effect1_dropShadow_5607_29073"/>
<feBlend mode="normal" in="SourceGraphic" in2="effect1_dropShadow_5607_29073" result="shape"/>
</filter>
<filter id="filter4_d_5607_29073" x="74" y="45" width="27" height="27" filterUnits="userSpaceOnUse" color-interpolation-filters="sRGB">
<feFlood flood-opacity="0" result="BackgroundImageFix"/>
<feColorMatrix in="SourceAlpha" type="matrix" values="0 0 0 0 0 0 0 0 0 0 0 0 0 0 0 0 0 0 127 0" result="hardAlpha"/>
<feOffset dx="2" dy="4"/>
<feGaussianBlur stdDeviation="2"/>
<feComposite in2="hardAlpha" operator="out"/>
<feColorMatrix type="matrix" values="0 0 0 0 0.118655 0 0 0 0 0 0 0 0 0 0.310661 0 0 0 0.1 0"/>
<feBlend mode="normal" in2="BackgroundImageFix" result="effect1_dropShadow_5607_29073"/>
<feBlend mode="normal" in="SourceGraphic" in2="effect1_dropShadow_5607_29073" result="shape"/>
</filter>
</defs>
</svg>
