<svg width="106" height="78" viewBox="0 0 106 78" fill="none" xmlns="http://www.w3.org/2000/svg">
<circle opacity="0.8" cx="30" cy="30" r="30" fill="#E9E8EC" fill-opacity="0.5"/>
<g filter="url(#filter0_d_4780_207368)">
<path d="M6 9.67833C6 8.49199 6.90649 7.53027 8.02469 7.53027H85.9753C87.0935 7.53027 88 8.49199 88 9.67833V15.0485H6V9.67833Z" fill="#E9E8EC"/>
<path d="M6 15.1433H88V64.5487C88 65.735 87.0935 66.6967 85.9753 66.6967H8.02469C6.90648 66.6967 6 65.735 6 64.5487V15.1433Z" fill="white"/>
<path d="M11.0361 11.2437C11.0361 12.0721 10.3646 12.7437 9.53613 12.7437C8.70771 12.7437 8.03613 12.0721 8.03613 11.2437C8.03613 10.4152 8.70771 9.74365 9.53613 9.74365C10.3646 9.74365 11.0361 10.4152 11.0361 11.2437Z" fill="#ED0303"/>
<path d="M17.0361 11.2437C17.0361 12.0721 16.3646 12.7437 15.5361 12.7437C14.7077 12.7437 14.0361 12.0721 14.0361 11.2437C14.0361 10.4152 14.7077 9.74365 15.5361 9.74365C16.3646 9.74365 17.0361 10.4152 17.0361 11.2437Z" fill="#FFA200"/>
<path d="M23.0361 11.2437C23.0361 12.0721 22.3646 12.7437 21.5361 12.7437C20.7077 12.7437 20.0361 12.0721 20.0361 11.2437C20.0361 10.4152 20.7077 9.74365 21.5361 9.74365C22.3646 9.74365 23.0361 10.4152 23.0361 11.2437Z" fill="#00C261"/>
</g>
<rect x="10" y="21.5151" width="39" height="4.30303" rx="1" fill="#F4F4F6"/>
<rect x="10" y="44.106" width="39" height="4.30303" rx="1" fill="#F4F4F6"/>
<rect x="10" y="21.5151" width="23" height="4.30303" rx="1" fill="#00C261"/>
<rect x="10" y="44.106" width="15" height="4.30303" rx="1" fill="#ED0303"/>
<path d="M13.72 28.6781H14.72V33.3981H15.8V34.2681H14.72V35.8181H13.68V34.2681H10.2V33.2381L13.72 28.6781ZM13.65 30.0581L11.09 33.3981H13.68V30.0581H13.65ZM19.0961 28.5381C20.4761 28.5381 21.2661 29.1781 21.4461 30.4781H20.3861C20.2361 29.7781 19.8061 29.4381 19.0861 29.4381C18.5861 29.4381 18.1961 29.6781 17.9061 30.1681C17.6161 30.6281 17.4761 31.1981 17.4761 31.8981C17.4761 31.9281 17.4761 31.9681 17.4861 32.0281H17.5261C17.7261 31.7081 17.9761 31.4781 18.2861 31.3281C18.5661 31.1781 18.8961 31.1081 19.2761 31.1081C19.9761 31.1081 20.5361 31.3281 20.9561 31.7681C21.3661 32.2181 21.5761 32.7981 21.5761 33.4981C21.5761 34.2081 21.3361 34.7981 20.8661 35.2581C20.3861 35.7181 19.7861 35.9581 19.0861 35.9581C18.2061 35.9581 17.5461 35.6381 17.0861 34.9981C16.6461 34.3881 16.4261 33.5381 16.4261 32.4481C16.4261 31.2881 16.6561 30.3481 17.1361 29.6281C17.6161 28.8981 18.2761 28.5381 19.0961 28.5381ZM19.0561 31.9881C18.6061 31.9881 18.2561 32.1281 17.9961 32.4081C17.7361 32.6881 17.6061 33.0581 17.6061 33.5281C17.6061 33.9881 17.7361 34.3581 18.0061 34.6381C18.2661 34.9181 18.6161 35.0581 19.0461 35.0581C19.4861 35.0581 19.8361 34.9081 20.0961 34.6181C20.3661 34.3181 20.5061 33.9481 20.5061 33.4981C20.5061 33.0381 20.3761 32.6681 20.1161 32.4081C19.8561 32.1281 19.4961 31.9881 19.0561 31.9881Z" fill="black"/>
<path d="M13.07 51.1289C13.79 51.1289 14.36 51.2989 14.8 51.6489C15.22 51.9989 15.44 52.4789 15.44 53.0889C15.44 53.8689 15.04 54.3989 14.26 54.6589C14.68 54.7889 15 54.9889 15.22 55.2489C15.46 55.5189 15.58 55.8689 15.58 56.2889C15.58 56.9489 15.35 57.4889 14.9 57.9089C14.42 58.3289 13.79 58.5489 13.03 58.5489C12.3 58.5489 11.71 58.3589 11.27 57.9889C10.77 57.5689 10.49 56.9589 10.43 56.1589H11.53C11.55 56.6389 11.7 57.0089 12 57.2689C12.26 57.5089 12.6 57.6289 13.02 57.6289C13.48 57.6289 13.85 57.4889 14.13 57.2289C14.37 56.9889 14.5 56.6989 14.5 56.3389C14.5 55.9189 14.37 55.6089 14.11 55.4089C13.87 55.2089 13.51 55.1089 13.04 55.1089H12.52V54.2889H13.03C13.47 54.2889 13.8 54.1889 14.02 53.9989C14.24 53.8089 14.36 53.5289 14.36 53.1689C14.36 52.8089 14.25 52.5389 14.05 52.3489C13.83 52.1489 13.5 52.0589 13.08 52.0589C12.65 52.0589 12.31 52.1689 12.07 52.3889C11.83 52.6089 11.68 52.9389 11.64 53.3789H10.57C10.63 52.6689 10.89 52.1189 11.36 51.7189C11.8 51.3189 12.37 51.1289 13.07 51.1289ZM19.1061 51.1289C19.7861 51.1289 20.3561 51.3189 20.7961 51.7189C21.2261 52.1189 21.4461 52.6289 21.4461 53.2589C21.4461 53.8789 21.2061 54.4389 20.7461 54.9489C20.4661 55.2389 19.9761 55.6189 19.2661 56.0989C18.4961 56.6089 18.0361 57.0589 17.8861 57.4489H21.4561V58.4089H16.5361C16.5361 57.6989 16.7661 57.0789 17.2461 56.5389C17.5061 56.2289 18.0461 55.7989 18.8561 55.2389C19.3361 54.8989 19.6761 54.6289 19.8761 54.4189C20.1961 54.0589 20.3661 53.6689 20.3661 53.2489C20.3661 52.8489 20.2561 52.5489 20.0361 52.3489C19.8161 52.1489 19.4861 52.0489 19.0661 52.0489C18.6161 52.0489 18.2761 52.1989 18.0461 52.5089C17.8061 52.8089 17.6861 53.2389 17.6661 53.8189H16.5761C16.5861 53.0189 16.8161 52.3789 17.2661 51.8989C17.7261 51.3789 18.3461 51.1289 19.1061 51.1289Z" fill="black"/>
<path d="M53 60.2424L55.549 54.4499L58.6078 57.7599L61.6667 52.7949L65.7451 54.4499L70.3333 49.4849L75.4314 52.7949L79 49.4849" stroke="#ED0303" stroke-width="0.5"/>
<path d="M55.549 54.6485L53 60.6727V66.697H79V49.4849L75.4314 52.9273L70.3333 49.4849L65.7451 54.6485L61.6667 52.9273L58.6078 58.0909L55.549 54.6485Z" fill="url(#paint0_linear_4780_207368)"/>
<g filter="url(#filter1_d_4780_207368)">
<rect width="20" height="21.5152" rx="1" transform="matrix(1 0 0 -1 80 71)" fill="white"/>
<path fill-rule="evenodd" clip-rule="evenodd" d="M88.5751 62.6959H87.6248V59.8846V59.629C87.6248 59.2571 87.7302 58.4676 88.1416 57.7884C88.481 57.2283 89.0403 56.7186 90.0005 56.5921V62.6959H88.5751ZM90.9508 62.6959V56.5919C91.9123 56.7175 92.4714 57.224 92.8101 57.7812C93.2209 58.4569 93.3266 59.2458 93.3266 59.629V59.8846V62.6959H92.3763H90.9508ZM92.8502 63.7182H93.6049L94.8912 65.1019C95.0768 65.3015 95.3776 65.3015 95.5632 65.1019C95.7487 64.9023 95.7487 64.5787 95.5632 64.379L94.2769 62.9953V60.3957H95.2272C95.4896 60.3957 95.7023 60.1669 95.7023 59.8846C95.7023 59.6023 95.4896 59.3734 95.2272 59.3734H94.2677C94.2301 58.8235 94.0681 57.9885 93.6124 57.2331L94.8504 55.9013C95.036 55.7017 95.036 55.378 94.8504 55.1784C94.6649 54.9788 94.364 54.9788 94.1785 55.1784L92.9892 56.4578C92.4091 55.9155 91.5938 55.5398 90.4757 55.5398C89.3586 55.5398 88.5442 55.9173 87.9646 56.4604L86.7729 55.1784C86.5873 54.9788 86.2865 54.9788 86.1009 55.1784C85.9154 55.378 85.9154 55.7017 86.1009 55.9013L87.3419 57.2362C86.8853 57.9929 86.7222 58.8282 86.684 59.3734H85.7242C85.4618 59.3734 85.249 59.6023 85.249 59.8846C85.249 60.1669 85.4618 60.3957 85.7242 60.3957H86.6745V62.9953L85.3882 64.379C85.2026 64.5787 85.2026 64.9023 85.3882 65.1019C85.5737 65.3015 85.8746 65.3015 86.0602 65.1019L87.3464 63.7182H88.1012C88.1414 65.1188 89.1718 66.2739 90.4757 66.2739C91.7795 66.2739 92.8099 65.1188 92.8502 63.7182ZM91.8992 63.7182C91.8599 64.5902 91.2208 65.2516 90.4757 65.2516C89.7306 65.2516 89.0914 64.5902 89.0521 63.7182H90.4757H91.8992Z" fill="#F02929"/>
</g>
<g filter="url(#filter2_d_4780_207368)">
<rect x="51" width="49" height="41.9545" rx="1" fill="white"/>
<rect x="55.21" y="4.54541" width="9.82481" height="4.54525" rx="1" fill="#E9E8EC"/>
<rect opacity="0.4" x="67.8428" y="4.54541" width="28.0709" height="4.54525" rx="1" fill="#E9E8EC"/>
<rect x="55.21" y="13.6353" width="9.82481" height="4.54525" rx="1" fill="#E9E8EC"/>
<rect opacity="0.4" x="67.8428" y="13.6353" width="28.0709" height="4.54525" rx="1" fill="#E9E8EC"/>
<rect x="56.6133" y="27.7009" width="4.21063" height="7.57541" fill="#E5F9EF"/>
<rect x="65.0352" y="21.6404" width="4.21063" height="13.6357" fill="#00C261"/>
<rect x="73.4561" y="24.6709" width="4.21063" height="10.6056" fill="#E5F9EF"/>
<rect x="81.8779" y="27.7009" width="4.21063" height="7.57541" fill="#26CB79"/>
<rect x="90.3008" y="27.7009" width="4.21063" height="7.57541" fill="#E5F9EF"/>
</g>
<defs>
<filter id="filter0_d_4780_207368" x="2" y="7.53027" width="90" height="67.1665" filterUnits="userSpaceOnUse" color-interpolation-filters="sRGB">
<feFlood flood-opacity="0" result="BackgroundImageFix"/>
<feColorMatrix in="SourceAlpha" type="matrix" values="0 0 0 0 0 0 0 0 0 0 0 0 0 0 0 0 0 0 127 0" result="hardAlpha"/>
<feOffset dy="4"/>
<feGaussianBlur stdDeviation="2"/>
<feComposite in2="hardAlpha" operator="out"/>
<feColorMatrix type="matrix" values="0 0 0 0 0 0 0 0 0 0 0 0 0 0 0 0 0 0 0.05 0"/>
<feBlend mode="normal" in2="BackgroundImageFix" result="effect1_dropShadow_4780_207368"/>
<feBlend mode="normal" in="SourceGraphic" in2="effect1_dropShadow_4780_207368" result="shape"/>
</filter>
<filter id="filter1_d_4780_207368" x="78" y="48.4849" width="28" height="29.5151" filterUnits="userSpaceOnUse" color-interpolation-filters="sRGB">
<feFlood flood-opacity="0" result="BackgroundImageFix"/>
<feColorMatrix in="SourceAlpha" type="matrix" values="0 0 0 0 0 0 0 0 0 0 0 0 0 0 0 0 0 0 127 0" result="hardAlpha"/>
<feOffset dx="2" dy="3"/>
<feGaussianBlur stdDeviation="2"/>
<feComposite in2="hardAlpha" operator="out"/>
<feColorMatrix type="matrix" values="0 0 0 0 0.218229 0 0 0 0 0.144106 0 0 0 0 0.014989 0 0 0 0.06 0"/>
<feBlend mode="normal" in2="BackgroundImageFix" result="effect1_dropShadow_4780_207368"/>
<feBlend mode="normal" in="SourceGraphic" in2="effect1_dropShadow_4780_207368" result="shape"/>
</filter>
<filter id="filter2_d_4780_207368" x="47" y="0" width="57" height="49.9546" filterUnits="userSpaceOnUse" color-interpolation-filters="sRGB">
<feFlood flood-opacity="0" result="BackgroundImageFix"/>
<feColorMatrix in="SourceAlpha" type="matrix" values="0 0 0 0 0 0 0 0 0 0 0 0 0 0 0 0 0 0 127 0" result="hardAlpha"/>
<feOffset dy="4"/>
<feGaussianBlur stdDeviation="2"/>
<feComposite in2="hardAlpha" operator="out"/>
<feColorMatrix type="matrix" values="0 0 0 0 0 0 0 0 0 0 0 0 0 0 0 0 0 0 0.05 0"/>
<feBlend mode="normal" in2="BackgroundImageFix" result="effect1_dropShadow_4780_207368"/>
<feBlend mode="normal" in="SourceGraphic" in2="effect1_dropShadow_4780_207368" result="shape"/>
</filter>
<linearGradient id="paint0_linear_4780_207368" x1="66" y1="37.4364" x2="66" y2="66.697" gradientUnits="userSpaceOnUse">
<stop stop-color="#ED0303"/>
<stop offset="1" stop-color="white" stop-opacity="0"/>
</linearGradient>
</defs>
</svg>
