<svg width="106" height="79" viewBox="0 0 106 79" fill="none" xmlns="http://www.w3.org/2000/svg">
<circle opacity="0.1" cx="30" cy="30" r="30" fill="#60626F"/>
<g filter="url(#filter0_d_5607_29093)">
<path d="M6 9.67833C6 8.49199 6.90649 7.53027 8.02469 7.53027H85.9753C87.0935 7.53027 88 8.49199 88 9.67833V15.0485H6V9.67833Z" fill="#434552"/>
<path d="M6 15.1436H88V64.5489C88 65.7353 87.0935 66.697 85.9753 66.697H8.02469C6.90648 66.697 6 65.7353 6 64.5489V15.1436Z" fill="#242633"/>
<path d="M11.0361 11.2437C11.0361 12.0721 10.3646 12.7437 9.53613 12.7437C8.70771 12.7437 8.03613 12.0721 8.03613 11.2437C8.03613 10.4152 8.70771 9.74365 9.53613 9.74365C10.3646 9.74365 11.0361 10.4152 11.0361 11.2437Z" fill="#E2324F"/>
<path d="M17.0361 11.2437C17.0361 12.0721 16.3646 12.7437 15.5361 12.7437C14.7077 12.7437 14.0361 12.0721 14.0361 11.2437C14.0361 10.4152 14.7077 9.74365 15.5361 9.74365C16.3646 9.74365 17.0361 10.4152 17.0361 11.2437Z" fill="#EDAC2C"/>
<path d="M23.0361 11.2437C23.0361 12.0721 22.3646 12.7437 21.5361 12.7437C20.7077 12.7437 20.0361 12.0721 20.0361 11.2437C20.0361 10.4152 20.7077 9.74365 21.5361 9.74365C22.3646 9.74365 23.0361 10.4152 23.0361 11.2437Z" fill="#11B671"/>
</g>
<rect x="10" y="21.5151" width="39" height="4.30303" rx="1" fill="#434552"/>
<rect x="10" y="44.106" width="39" height="4.30303" rx="1" fill="#434552"/>
<rect x="10" y="21.5151" width="23" height="4.30303" rx="1" fill="#00C261"/>
<rect x="10" y="44.106" width="15" height="4.30303" rx="1" fill="#E2324F"/>
<path d="M13.72 28.6779H14.72V33.3979H15.8V34.2679H14.72V35.8179H13.68V34.2679H10.2V33.2379L13.72 28.6779ZM13.65 30.0579L11.09 33.3979H13.68V30.0579H13.65ZM19.0961 28.5379C20.4761 28.5379 21.2661 29.1779 21.4461 30.4779H20.3861C20.2361 29.7779 19.8061 29.4379 19.0861 29.4379C18.5861 29.4379 18.1961 29.6779 17.9061 30.1679C17.6161 30.6279 17.4761 31.1979 17.4761 31.8979C17.4761 31.9279 17.4761 31.9679 17.4861 32.0279H17.5261C17.7261 31.7079 17.9761 31.4779 18.2861 31.3279C18.5661 31.1779 18.8961 31.1079 19.2761 31.1079C19.9761 31.1079 20.5361 31.3279 20.9561 31.7679C21.3661 32.2179 21.5761 32.7979 21.5761 33.4979C21.5761 34.2079 21.3361 34.7979 20.8661 35.2579C20.3861 35.7179 19.7861 35.9579 19.0861 35.9579C18.2061 35.9579 17.5461 35.6379 17.0861 34.9979C16.6461 34.3879 16.4261 33.5379 16.4261 32.4479C16.4261 31.2879 16.6561 30.3479 17.1361 29.6279C17.6161 28.8979 18.2761 28.5379 19.0961 28.5379ZM19.0561 31.9879C18.6061 31.9879 18.2561 32.1279 17.9961 32.4079C17.7361 32.6879 17.6061 33.0579 17.6061 33.5279C17.6061 33.9879 17.7361 34.3579 18.0061 34.6379C18.2661 34.9179 18.6161 35.0579 19.0461 35.0579C19.4861 35.0579 19.8361 34.9079 20.0961 34.6179C20.3661 34.3179 20.5061 33.9479 20.5061 33.4979C20.5061 33.0379 20.3761 32.6679 20.1161 32.4079C19.8561 32.1279 19.4961 31.9879 19.0561 31.9879Z" fill="#E3E6F3"/>
<path d="M13.07 51.1292C13.79 51.1292 14.36 51.2992 14.8 51.6492C15.22 51.9992 15.44 52.4792 15.44 53.0892C15.44 53.8692 15.04 54.3992 14.26 54.6592C14.68 54.7892 15 54.9892 15.22 55.2492C15.46 55.5192 15.58 55.8692 15.58 56.2892C15.58 56.9492 15.35 57.4892 14.9 57.9092C14.42 58.3292 13.79 58.5492 13.03 58.5492C12.3 58.5492 11.71 58.3592 11.27 57.9892C10.77 57.5692 10.49 56.9592 10.43 56.1592H11.53C11.55 56.6392 11.7 57.0092 12 57.2692C12.26 57.5092 12.6 57.6292 13.02 57.6292C13.48 57.6292 13.85 57.4892 14.13 57.2292C14.37 56.9892 14.5 56.6992 14.5 56.3392C14.5 55.9192 14.37 55.6092 14.11 55.4092C13.87 55.2092 13.51 55.1092 13.04 55.1092H12.52V54.2892H13.03C13.47 54.2892 13.8 54.1892 14.02 53.9992C14.24 53.8092 14.36 53.5292 14.36 53.1692C14.36 52.8092 14.25 52.5392 14.05 52.3492C13.83 52.1492 13.5 52.0592 13.08 52.0592C12.65 52.0592 12.31 52.1692 12.07 52.3892C11.83 52.6092 11.68 52.9392 11.64 53.3792H10.57C10.63 52.6692 10.89 52.1192 11.36 51.7192C11.8 51.3192 12.37 51.1292 13.07 51.1292ZM19.1061 51.1292C19.7861 51.1292 20.3561 51.3192 20.7961 51.7192C21.2261 52.1192 21.4461 52.6292 21.4461 53.2592C21.4461 53.8792 21.2061 54.4392 20.7461 54.9492C20.4661 55.2392 19.9761 55.6192 19.2661 56.0992C18.4961 56.6092 18.0361 57.0592 17.8861 57.4492H21.4561V58.4092H16.5361C16.5361 57.6992 16.7661 57.0792 17.2461 56.5392C17.5061 56.2292 18.0461 55.7992 18.8561 55.2392C19.3361 54.8992 19.6761 54.6292 19.8761 54.4192C20.1961 54.0592 20.3661 53.6692 20.3661 53.2492C20.3661 52.8492 20.2561 52.5492 20.0361 52.3492C19.8161 52.1492 19.4861 52.0492 19.0661 52.0492C18.6161 52.0492 18.2761 52.1992 18.0461 52.5092C17.8061 52.8092 17.6861 53.2392 17.6661 53.8192H16.5761C16.5861 53.0192 16.8161 52.3792 17.2661 51.8992C17.7261 51.3792 18.3461 51.1292 19.1061 51.1292Z" fill="#E3E6F3"/>
<path d="M53 60.2424L55.549 54.4499L58.6078 57.7599L61.6667 52.7949L65.7451 54.4499L70.3333 49.4849L75.4314 52.7949L79 49.4849" stroke="#E2324F" stroke-width="0.5"/>
<path opacity="0.4" d="M55.549 54.6485L53 60.6727V66.697H79V49.4849L75.4314 52.9273L70.3333 49.4849L65.7451 54.6485L61.6667 52.9273L58.6078 58.0909L55.549 54.6485Z" fill="url(#paint0_linear_5607_29093)"/>
<g filter="url(#filter1_d_5607_29093)">
<g filter="url(#filter2_d_5607_29093)">
<rect width="20" height="21.5152" rx="1" transform="matrix(1 0 0 -1 80 71)" fill="#434552"/>
</g>
<path fill-rule="evenodd" clip-rule="evenodd" d="M88.5746 62.6959H87.6243V59.8846V59.629C87.6243 59.2571 87.7297 58.4676 88.1411 57.7884C88.4805 57.2283 89.0398 56.7186 90 56.5921V62.6959H88.5746ZM90.9503 62.6959V56.5919C91.9118 56.7175 92.4709 57.224 92.8096 57.7812C93.2204 58.4569 93.3261 59.2458 93.3261 59.629V59.8846V62.6959H92.3758H90.9503ZM92.8497 63.7182H93.6044L94.8907 65.1019C95.0763 65.3015 95.3771 65.3015 95.5627 65.1019C95.7482 64.9023 95.7482 64.5787 95.5627 64.379L94.2764 62.9953V60.3957H95.2267C95.4891 60.3957 95.7019 60.1669 95.7019 59.8846C95.7019 59.6023 95.4891 59.3734 95.2267 59.3734H94.2672C94.2296 58.8235 94.0676 57.9885 93.6119 57.2331L94.85 55.9013C95.0355 55.7017 95.0355 55.378 94.85 55.1784C94.6644 54.9788 94.3636 54.9788 94.178 55.1784L92.9887 56.4578C92.4086 55.9155 91.5933 55.5398 90.4752 55.5398C89.3582 55.5398 88.5437 55.9173 87.9642 56.4604L86.7724 55.1784C86.5868 54.9788 86.286 54.9788 86.1004 55.1784C85.9149 55.378 85.9149 55.7017 86.1004 55.9013L87.3414 57.2362C86.8848 57.9929 86.7217 58.8282 86.6835 59.3734H85.7237C85.4613 59.3734 85.2485 59.6023 85.2485 59.8846C85.2485 60.1669 85.4613 60.3957 85.7237 60.3957H86.674V62.9953L85.3877 64.379C85.2021 64.5787 85.2021 64.9023 85.3877 65.1019C85.5733 65.3015 85.8741 65.3015 86.0597 65.1019L87.346 63.7182H88.1007C88.141 65.1188 89.1713 66.2739 90.4752 66.2739C91.779 66.2739 92.8094 65.1188 92.8497 63.7182ZM91.8987 63.7182C91.8594 64.5902 91.2203 65.2516 90.4752 65.2516C89.7301 65.2516 89.0909 64.5902 89.0517 63.7182H90.4752H91.8987Z" fill="#E2324F"/>
</g>
<g filter="url(#filter3_d_5607_29093)">
<g filter="url(#filter4_d_5607_29093)">
<rect x="51" width="49" height="41.9545" rx="1" fill="#434552"/>
</g>
<rect x="55.21" y="4.54541" width="9.82481" height="4.54525" rx="1" fill="#242633"/>
<rect opacity="0.4" x="67.8428" y="4.54541" width="28.0709" height="4.54525" rx="1" fill="#9597A4"/>
<rect x="55.21" y="13.6353" width="9.82481" height="4.54525" rx="1" fill="#242633"/>
<rect opacity="0.4" x="67.8428" y="13.6353" width="28.0709" height="4.54525" rx="1" fill="#9597A4"/>
<rect opacity="0.2" x="56.6138" y="27.7012" width="4.21063" height="7.57541" fill="#4DC894"/>
<rect x="65.0356" y="21.6401" width="4.21063" height="13.6357" fill="#11B671"/>
<rect opacity="0.2" x="73.4561" y="24.6709" width="4.21063" height="10.6056" fill="#4DC894"/>
<rect x="81.8779" y="27.7012" width="4.21063" height="7.57541" fill="#4DC894"/>
<rect opacity="0.2" x="90.3003" y="27.7012" width="4.21063" height="7.57541" fill="#4DC894"/>
</g>
<defs>
<filter id="filter0_d_5607_29093" x="2" y="7.53027" width="90" height="67.1665" filterUnits="userSpaceOnUse" color-interpolation-filters="sRGB">
<feFlood flood-opacity="0" result="BackgroundImageFix"/>
<feColorMatrix in="SourceAlpha" type="matrix" values="0 0 0 0 0 0 0 0 0 0 0 0 0 0 0 0 0 0 127 0" result="hardAlpha"/>
<feOffset dy="4"/>
<feGaussianBlur stdDeviation="2"/>
<feComposite in2="hardAlpha" operator="out"/>
<feColorMatrix type="matrix" values="0 0 0 0 0 0 0 0 0 0 0 0 0 0 0 0 0 0 0.05 0"/>
<feBlend mode="normal" in2="BackgroundImageFix" result="effect1_dropShadow_5607_29093"/>
<feBlend mode="normal" in="SourceGraphic" in2="effect1_dropShadow_5607_29093" result="shape"/>
</filter>
<filter id="filter1_d_5607_29093" x="78" y="48.4849" width="28" height="29.5151" filterUnits="userSpaceOnUse" color-interpolation-filters="sRGB">
<feFlood flood-opacity="0" result="BackgroundImageFix"/>
<feColorMatrix in="SourceAlpha" type="matrix" values="0 0 0 0 0 0 0 0 0 0 0 0 0 0 0 0 0 0 127 0" result="hardAlpha"/>
<feOffset dx="2" dy="3"/>
<feGaussianBlur stdDeviation="2"/>
<feComposite in2="hardAlpha" operator="out"/>
<feColorMatrix type="matrix" values="0 0 0 0 0.218229 0 0 0 0 0.144106 0 0 0 0 0.014989 0 0 0 0.06 0"/>
<feBlend mode="normal" in2="BackgroundImageFix" result="effect1_dropShadow_5607_29093"/>
<feBlend mode="normal" in="SourceGraphic" in2="effect1_dropShadow_5607_29093" result="shape"/>
</filter>
<filter id="filter2_d_5607_29093" x="76" y="49.4849" width="28" height="29.5151" filterUnits="userSpaceOnUse" color-interpolation-filters="sRGB">
<feFlood flood-opacity="0" result="BackgroundImageFix"/>
<feColorMatrix in="SourceAlpha" type="matrix" values="0 0 0 0 0 0 0 0 0 0 0 0 0 0 0 0 0 0 127 0" result="hardAlpha"/>
<feOffset dy="4"/>
<feGaussianBlur stdDeviation="2"/>
<feComposite in2="hardAlpha" operator="out"/>
<feColorMatrix type="matrix" values="0 0 0 0 0 0 0 0 0 0 0 0 0 0 0 0 0 0 0.25 0"/>
<feBlend mode="normal" in2="BackgroundImageFix" result="effect1_dropShadow_5607_29093"/>
<feBlend mode="normal" in="SourceGraphic" in2="effect1_dropShadow_5607_29093" result="shape"/>
</filter>
<filter id="filter3_d_5607_29093" x="47" y="0" width="57" height="49.9546" filterUnits="userSpaceOnUse" color-interpolation-filters="sRGB">
<feFlood flood-opacity="0" result="BackgroundImageFix"/>
<feColorMatrix in="SourceAlpha" type="matrix" values="0 0 0 0 0 0 0 0 0 0 0 0 0 0 0 0 0 0 127 0" result="hardAlpha"/>
<feOffset dy="4"/>
<feGaussianBlur stdDeviation="2"/>
<feComposite in2="hardAlpha" operator="out"/>
<feColorMatrix type="matrix" values="0 0 0 0 0 0 0 0 0 0 0 0 0 0 0 0 0 0 0.05 0"/>
<feBlend mode="normal" in2="BackgroundImageFix" result="effect1_dropShadow_5607_29093"/>
<feBlend mode="normal" in="SourceGraphic" in2="effect1_dropShadow_5607_29093" result="shape"/>
</filter>
<filter id="filter4_d_5607_29093" x="47" y="0" width="57" height="49.9546" filterUnits="userSpaceOnUse" color-interpolation-filters="sRGB">
<feFlood flood-opacity="0" result="BackgroundImageFix"/>
<feColorMatrix in="SourceAlpha" type="matrix" values="0 0 0 0 0 0 0 0 0 0 0 0 0 0 0 0 0 0 127 0" result="hardAlpha"/>
<feOffset dy="4"/>
<feGaussianBlur stdDeviation="2"/>
<feComposite in2="hardAlpha" operator="out"/>
<feColorMatrix type="matrix" values="0 0 0 0 0 0 0 0 0 0 0 0 0 0 0 0 0 0 0.25 0"/>
<feBlend mode="normal" in2="BackgroundImageFix" result="effect1_dropShadow_5607_29093"/>
<feBlend mode="normal" in="SourceGraphic" in2="effect1_dropShadow_5607_29093" result="shape"/>
</filter>
<linearGradient id="paint0_linear_5607_29093" x1="66" y1="37.4364" x2="66" y2="66.697" gradientUnits="userSpaceOnUse">
<stop stop-color="#E2324F"/>
<stop offset="1" stop-color="white" stop-opacity="0"/>
</linearGradient>
</defs>
</svg>
