<svg width="160" height="103" viewBox="0 0 160 103" fill="none" xmlns="http://www.w3.org/2000/svg">
<ellipse cx="80" cy="76.702" rx="80" ry="26.2982" fill="url(#paint0_linear_5607_29113)"/>
<g filter="url(#filter0_d_5607_29113)">
<path d="M27.4932 9C27.4932 6.79086 29.284 5 31.4932 5H128.096C130.305 5 132.096 6.79086 132.096 9V83.9921C132.096 86.2013 130.305 87.9921 128.096 87.9921H31.4932C29.284 87.9921 27.4932 86.2013 27.4932 83.9921V9Z" fill="#434552"/>
<path d="M27.9932 9C27.9932 7.067 29.5602 5.5 31.4932 5.5H128.096C130.029 5.5 131.596 7.067 131.596 9V83.9921C131.596 85.9251 130.029 87.4921 128.096 87.4921H31.4932C29.5602 87.4921 27.9932 85.9251 27.9932 83.9921V9Z" stroke="#242633"/>
</g>
<path d="M29.5 10C29.5 8.34315 30.8431 7 32.5 7H127.5C129.157 7 130.5 8.34315 130.5 10V16H29.5V10Z" fill="#2E313D"/>
<ellipse cx="39.8738" cy="11.5499" rx="1.95486" ry="1.94982" fill="#242633"/>
<ellipse cx="46.3904" cy="11.5499" rx="1.95486" ry="1.94982" fill="#242633"/>
<ellipse cx="33.3577" cy="11.5499" rx="1.95486" ry="1.94982" fill="#242633"/>
<path d="M31.5498 20.0366C31.5498 18.932 32.4452 18.0366 33.5498 18.0366H126.001C127.105 18.0366 128.001 18.9321 128.001 20.0366V81.2201C128.001 82.3247 127.105 83.2201 126.001 83.2201H33.5498C32.4452 83.2201 31.5498 82.3247 31.5498 81.2201V20.0366Z" fill="#242633"/>
<path fill-rule="evenodd" clip-rule="evenodd" d="M76.6152 39.2401C76.6152 37.387 78.1234 35.8716 80.0002 35.8716C81.877 35.8716 83.3852 37.387 83.3852 39.2401V43.4358H76.6152V39.2401ZM70.6152 43.4358V39.2401C70.6152 34.0587 74.8244 29.8716 80.0002 29.8716C85.176 29.8716 89.3852 34.0587 89.3852 39.2401V43.4358H90.2163C91.4194 43.4358 92.3947 44.4086 92.3947 45.6086V57.0719C92.3947 58.2719 91.4194 59.2447 90.2163 59.2447H69.7844C68.5813 59.2447 67.606 58.2719 67.606 57.0719V45.6086C67.606 44.4086 68.5813 43.4358 69.7844 43.4358H70.6152ZM80.0005 47.4297C81.1051 47.4297 82.0005 48.3251 82.0005 49.4297V53.2508C82.0005 54.3554 81.1051 55.2508 80.0005 55.2508C78.8959 55.2508 78.0005 54.3554 78.0005 53.2508V49.4297C78.0005 48.3251 78.8959 47.4297 80.0005 47.4297Z" fill="#434552"/>
<defs>
<filter id="filter0_d_5607_29113" x="18.4932" y="0" width="122.603" height="100.992" filterUnits="userSpaceOnUse" color-interpolation-filters="sRGB">
<feFlood flood-opacity="0" result="BackgroundImageFix"/>
<feColorMatrix in="SourceAlpha" type="matrix" values="0 0 0 0 0 0 0 0 0 0 0 0 0 0 0 0 0 0 127 0" result="hardAlpha"/>
<feMorphology radius="1" operator="erode" in="SourceAlpha" result="effect1_dropShadow_5607_29113"/>
<feOffset dy="4"/>
<feGaussianBlur stdDeviation="5"/>
<feColorMatrix type="matrix" values="0 0 0 0 0.392157 0 0 0 0 0.392157 0 0 0 0 0.4 0 0 0 0.15 0"/>
<feBlend mode="normal" in2="BackgroundImageFix" result="effect1_dropShadow_5607_29113"/>
<feBlend mode="normal" in="SourceGraphic" in2="effect1_dropShadow_5607_29113" result="shape"/>
</filter>
<linearGradient id="paint0_linear_5607_29113" x1="80.2254" y1="50.4038" x2="80.2253" y2="103" gradientUnits="userSpaceOnUse">
<stop stop-color="#363A4F"/>
<stop offset="1" stop-color="#242633"/>
</linearGradient>
</defs>
</svg>
