<svg width="102" height="69" viewBox="0 0 102 69" fill="none" xmlns="http://www.w3.org/2000/svg">
<circle opacity="0.1" cx="25.5" cy="25.5" r="25.5" fill="#60626F"/>
<path d="M14 6C14 4.89543 14.8954 4 16 4H84C85.1046 4 86 4.89543 86 6V50H14V6Z" fill="#242633"/>
<path d="M14 50H86V56C86 57.1046 85.1046 58 84 58H16C14.8954 58 14 57.1046 14 56V50Z" fill="#60626F"/>
<circle cx="50.5" cy="53.5" r="1.5" fill="#434552"/>
<rect x="17" y="7" width="66" height="40" rx="1" fill="#2E313D"/>
<rect x="17" y="14" width="66" height="1" rx="0.1" fill="#242633"/>
<circle cx="22.5" cy="10.5" r="1.5" fill="#E2324F"/>
<circle cx="28.5" cy="10.5" r="1.5" fill="#EDAC2C"/>
<circle cx="34.5" cy="10.5" r="1.5" fill="#11B671"/>
<rect x="19" y="17" width="15" height="28" rx="1" fill="#434552"/>
<circle cx="26.5" cy="22.5" r="1.5" fill="#2E313D"/>
<rect x="21" y="26" width="11" height="1" rx="0.5" fill="#2E313D"/>
<rect x="21" y="29" width="11" height="1" rx="0.5" fill="#2E313D"/>
<rect x="21" y="32" width="11" height="1" rx="0.5" fill="#2E313D"/>
<rect x="21" y="35" width="11" height="1" rx="0.5" fill="#2E313D"/>
<rect x="21" y="38" width="5" height="1" rx="0.5" fill="#2E313D"/>
<rect x="37" y="32" width="1" height="13" rx="0.5" fill="#242633"/>
<rect x="49" y="32" width="1" height="13" rx="0.5" fill="#242633"/>
<rect x="59" y="32" width="1" height="13" rx="0.5" fill="#242633"/>
<rect x="69" y="32" width="1" height="13" rx="0.5" fill="#242633"/>
<rect x="79" y="32" width="1" height="13" rx="0.5" fill="#242633"/>
<path d="M48.3824 35L37 41.8421V45H80V35L69.8824 40.2632L59.7647 41.8421L48.3824 35Z" fill="url(#paint0_linear_5607_29069)"/>
<path d="M37 42L48.3824 35L59.7647 42L69.8824 40.3846L80 35" stroke="#945DED" stroke-width="0.5"/>
<circle cx="40" cy="21" r="3.5" stroke="#252734"/>
<mask id="path-25-inside-1_5607_29069" fill="white">
<path d="M40 17C40.9074 17 41.7879 17.3086 42.4969 17.875C43.2058 18.4414 43.7011 19.2321 43.9014 20.1172C44.1016 21.0022 43.995 21.9291 43.599 22.7456C43.203 23.562 42.5412 24.2196 41.7221 24.6103L41.2919 23.7083C41.9063 23.4153 42.4028 22.922 42.6999 22.3095C42.997 21.697 43.0769 21.0017 42.9267 20.3377C42.7765 19.6738 42.4049 19.0806 41.8731 18.6557C41.3413 18.2308 40.6807 17.9993 40 17.9993V17Z"/>
</mask>
<path d="M40 17C40.9074 17 41.7879 17.3086 42.4969 17.875C43.2058 18.4414 43.7011 19.2321 43.9014 20.1172C44.1016 21.0022 43.995 21.9291 43.599 22.7456C43.203 23.562 42.5412 24.2196 41.7221 24.6103L41.2919 23.7083C41.9063 23.4153 42.4028 22.922 42.6999 22.3095C42.997 21.697 43.0769 21.0017 42.9267 20.3377C42.7765 19.6738 42.4049 19.0806 41.8731 18.6557C41.3413 18.2308 40.6807 17.9993 40 17.9993V17Z" stroke="#8E49FF" stroke-width="2" mask="url(#path-25-inside-1_5607_29069)"/>
<circle cx="58" cy="21" r="3.5" stroke="#252734"/>
<mask id="path-27-inside-2_5607_29069" fill="white">
<path d="M58 17C58.6578 17 59.3055 17.1622 59.8856 17.4723C60.4657 17.7824 60.9604 18.2308 61.3259 18.7777C61.6913 19.3247 61.9163 19.9533 61.9807 20.6079C62.0452 21.2626 61.9472 21.923 61.6955 22.5307C61.4438 23.1385 61.0461 23.6747 60.5376 24.092C60.0291 24.5093 59.4255 24.7948 58.7804 24.9231C58.1352 25.0515 57.4683 25.0187 56.8389 24.8278C56.2094 24.6368 55.6367 24.2936 55.1716 23.8284L55.8782 23.1218C56.2271 23.4707 56.6567 23.7282 57.1289 23.8715C57.6012 24.0147 58.1014 24.0393 58.5854 23.943C59.0694 23.8468 59.5222 23.6326 59.9036 23.3196C60.2851 23.0065 60.5834 22.6042 60.7723 22.1483C60.9611 21.6924 61.0346 21.197 60.9862 20.7059C60.9379 20.2148 60.7691 19.7432 60.495 19.3329C60.2208 18.9226 59.8497 18.5862 59.4145 18.3536C58.9793 18.121 58.4935 17.9993 58 17.9993V17Z"/>
</mask>
<path d="M58 17C58.6578 17 59.3055 17.1622 59.8856 17.4723C60.4657 17.7824 60.9604 18.2308 61.3259 18.7777C61.6913 19.3247 61.9163 19.9533 61.9807 20.6079C62.0452 21.2626 61.9472 21.923 61.6955 22.5307C61.4438 23.1385 61.0461 23.6747 60.5376 24.092C60.0291 24.5093 59.4255 24.7948 58.7804 24.9231C58.1352 25.0515 57.4683 25.0187 56.8389 24.8278C56.2094 24.6368 55.6367 24.2936 55.1716 23.8284L55.8782 23.1218C56.2271 23.4707 56.6567 23.7282 57.1289 23.8715C57.6012 24.0147 58.1014 24.0393 58.5854 23.943C59.0694 23.8468 59.5222 23.6326 59.9036 23.3196C60.2851 23.0065 60.5834 22.6042 60.7723 22.1483C60.9611 21.6924 61.0346 21.197 60.9862 20.7059C60.9379 20.2148 60.7691 19.7432 60.495 19.3329C60.2208 18.9226 59.8497 18.5862 59.4145 18.3536C58.9793 18.121 58.4935 17.9993 58 17.9993V17Z" stroke="#8E49FF" stroke-width="2" mask="url(#path-27-inside-2_5607_29069)"/>
<circle cx="76" cy="21" r="3.5" stroke="#252734"/>
<mask id="path-29-inside-3_5607_29069" fill="white">
<path d="M78.3631 24.2273C77.6871 24.7223 76.8726 24.9926 76.0348 24.9998C75.1969 25.0071 74.378 24.7511 73.6934 24.268C73.0089 23.7848 72.4933 23.0989 72.2196 22.307C71.9458 21.5151 71.9276 20.6572 72.1676 19.8544L73.125 20.1406C72.945 20.7428 72.9586 21.3864 73.164 21.9805C73.3694 22.5745 73.7561 23.0891 74.2697 23.4515C74.7832 23.814 75.3976 24.0061 76.0261 24.0006C76.6546 23.9951 77.2656 23.7924 77.7727 23.4211L78.3631 24.2273Z"/>
</mask>
<path d="M78.3631 24.2273C77.6871 24.7223 76.8726 24.9926 76.0348 24.9998C75.1969 25.0071 74.378 24.7511 73.6934 24.268C73.0089 23.7848 72.4933 23.0989 72.2196 22.307C71.9458 21.5151 71.9276 20.6572 72.1676 19.8544L73.125 20.1406C72.945 20.7428 72.9586 21.3864 73.164 21.9805C73.3694 22.5745 73.7561 23.0891 74.2697 23.4515C74.7832 23.814 75.3976 24.0061 76.0261 24.0006C76.6546 23.9951 77.2656 23.7924 77.7727 23.4211L78.3631 24.2273Z" stroke="#8E49FF" stroke-width="2" mask="url(#path-29-inside-3_5607_29069)"/>
<path d="M41 58H59L61 65H39L41 58Z" fill="url(#paint1_linear_5607_29069)"/>
<rect x="34" y="65" width="32" height="2" rx="1" fill="#424551"/>
<g filter="url(#filter0_d_5607_29069)">
<circle cx="86" cy="12" r="10" fill="#8E49FF"/>
</g>
<path fill-rule="evenodd" clip-rule="evenodd" d="M78.6665 11.9998C78.6665 7.94975 81.9497 4.6665 85.9998 4.6665C87.338 4.6665 88.5943 5.02553 89.6756 5.65296C89.994 5.83775 90.1024 6.24572 89.9176 6.56417C89.7328 6.88263 89.3248 6.99099 89.0064 6.80619C88.1229 6.29356 87.0967 5.99984 85.9998 5.99984C82.6861 5.99984 79.9998 8.68613 79.9998 11.9998C79.9998 15.3135 82.6861 17.9998 85.9998 17.9998C89.3135 17.9998 91.9998 15.3135 91.9998 11.9998C91.9998 10.9105 91.7102 9.8909 91.2041 9.01164C91.0204 8.69253 91.1302 8.28495 91.4493 8.10128C91.7684 7.91761 92.176 8.0274 92.3597 8.3465C92.9791 9.42271 93.3332 10.6709 93.3332 11.9998C93.3332 16.0499 90.0499 19.3332 85.9998 19.3332C81.9497 19.3332 78.6665 16.0499 78.6665 11.9998Z" fill="#E3E6F3"/>
<path fill-rule="evenodd" clip-rule="evenodd" d="M89.2741 9.58379L88.6498 9.34995L88.4159 8.72564C88.6607 8.63398 88.9364 8.69376 89.1212 8.87855C89.306 9.06334 89.3657 9.33906 89.2741 9.58379ZM87.4565 10.5432C87.4171 10.5597 87.3775 10.5765 87.3376 10.5934C86.934 10.7646 86.5233 10.9482 86.186 11.1179C86.0172 11.2029 85.8741 11.2807 85.7629 11.3485C85.7076 11.3823 85.6643 11.4111 85.632 11.4346C85.5997 11.4581 85.5857 11.4712 85.5857 11.4712C85.3253 11.7316 85.3253 12.1537 85.5856 12.4141C85.846 12.6744 86.2681 12.6744 86.5285 12.4141C86.5285 12.4141 86.5417 12.4 86.5651 12.3678C86.5886 12.3355 86.6174 12.2922 86.6512 12.2368C86.719 12.1256 86.7968 11.9826 86.8818 11.8137C87.0515 11.4764 87.2351 11.0657 87.4064 10.6621C87.4232 10.6223 87.44 10.5826 87.4565 10.5432ZM88.6498 9.34995C88.4159 8.72564 88.4159 8.72564 88.4159 8.72564L88.4063 8.72925L88.38 8.73919C88.3571 8.74784 88.3237 8.76051 88.2812 8.77675C88.1962 8.80923 88.0746 8.85607 87.9272 8.91386C87.6328 9.02928 87.2337 9.1891 86.8169 9.36593C86.4018 9.54205 85.9611 9.73843 85.5866 9.92688C85.3996 10.021 85.2217 10.1168 85.0684 10.2104C84.9244 10.2983 84.7654 10.4059 84.6428 10.5284C83.8618 11.3095 83.8618 12.5758 84.6428 13.3569C85.4239 14.1379 86.6902 14.1379 87.4713 13.3569C87.5938 13.2344 87.7015 13.0754 87.7893 12.9313C87.8829 12.778 87.9787 12.6001 88.0728 12.4131C88.2613 12.0386 88.4577 11.598 88.6338 11.1828C88.8106 10.7661 88.9704 10.3669 89.0859 10.0725C89.1437 9.9251 89.1905 9.8035 89.223 9.71851C89.2392 9.67601 89.2519 9.64263 89.2605 9.61974L89.2705 9.59341L89.2741 9.58379C89.2741 9.58379 89.2741 9.58379 88.6498 9.34995Z" fill="#E3E6F3"/>
<g filter="url(#filter1_d_5607_29069)">
<circle cx="19" cy="53" r="7" fill="#11B671"/>
</g>
<path d="M14.6274 48.625H15.2687C16.3864 48.6322 17.16 48.7152 17.6172 48.8867C18.2506 49.1243 18.8648 49.5231 19.458 50.079L19.636 50.2504L19.8002 50.4207L19.9609 50.5951L20.1335 50.7924L20.332 51.0282L22.34 50.9428L23.6484 53.7702L22.242 54.0728C22.5939 54.5594 22.8634 55.333 23.0794 56.4128L23.1215 56.633L23.2328 57.2285L22.6336 57.1371L22.4104 57.101C21.3878 56.9308 20.6364 56.6986 20.1461 56.3852L20.0451 56.3166L19.8911 57.1106L19.7852 57.6478L16.9488 56.3328L17.0343 54.3248L16.719 54.0565C16.5398 53.9001 16.4098 53.7798 16.2594 53.6324C15.5797 52.9496 15.1165 52.2843 14.868 51.6262C14.7345 51.2731 14.6593 50.6968 14.6346 49.8775L14.6292 49.6844L14.625 49.2717L14.6274 48.625ZM15.4876 49.4882L15.4949 49.842C15.5171 50.5729 15.5791 51.0722 15.6735 51.3218C15.8576 51.8109 16.2053 52.3282 16.7214 52.8726L16.8658 53.0218L17.0511 53.1987L17.1816 53.3172L17.4193 53.5229L17.9125 53.9362L17.8331 55.7938L19.153 56.4062L19.3593 55.3583C19.6324 54.5299 20.2015 53.8881 20.9384 53.5374L21.0786 53.4754L21.2518 53.4092L22.4158 53.1566L21.8004 51.8271L19.9416 51.9059L19.7028 51.6172C19.5715 51.458 19.4371 51.3013 19.2997 51.1474L19.1638 51L19.0254 50.8574C18.4624 50.2967 17.8897 49.9081 17.3152 49.6934C17.024 49.5839 16.467 49.5141 15.6639 49.4925L15.4882 49.4888L15.4876 49.4882ZM21.4588 54.4692L21.3047 54.3164C20.8913 54.5135 20.5516 54.8374 20.335 55.241L20.2743 55.3643L20.4289 55.5183L20.483 55.5682C20.72 55.7674 21.1646 55.9508 21.8095 56.1036L21.9743 56.1421L22.1487 56.1782L22.1072 56.0086C21.9286 55.2897 21.724 54.7934 21.5087 54.5269L21.4588 54.4698V54.4692ZM16.9242 50.5037C17.0493 50.5037 17.1576 50.5476 17.2466 50.6348C17.2895 50.675 17.3236 50.7236 17.3467 50.7777C17.3698 50.8318 17.3814 50.8901 17.3808 50.9488C17.3817 51.0077 17.3702 51.0662 17.3471 51.1204C17.324 51.1746 17.2898 51.2233 17.2466 51.2635C17.2044 51.3059 17.1541 51.3393 17.0987 51.3618C17.0433 51.3844 16.984 51.3955 16.9242 51.3946C16.8644 51.3956 16.8051 51.3846 16.7498 51.362C16.6945 51.3395 16.6443 51.3059 16.6023 51.2635C16.5592 51.2233 16.525 51.1745 16.5018 51.1204C16.4786 51.0662 16.4669 51.0078 16.4676 50.9488C16.4668 50.89 16.4784 50.8316 16.5016 50.7775C16.5248 50.7234 16.5591 50.6748 16.6023 50.6348C16.6444 50.5925 16.6946 50.5591 16.7499 50.5365C16.8052 50.514 16.8645 50.5028 16.9242 50.5037Z" fill="#E3E6F3"/>
<defs>
<filter id="filter0_d_5607_29069" x="74" y="0" width="28" height="28" filterUnits="userSpaceOnUse" color-interpolation-filters="sRGB">
<feFlood flood-opacity="0" result="BackgroundImageFix"/>
<feColorMatrix in="SourceAlpha" type="matrix" values="0 0 0 0 0 0 0 0 0 0 0 0 0 0 0 0 0 0 127 0" result="hardAlpha"/>
<feOffset dx="2" dy="2"/>
<feGaussianBlur stdDeviation="2"/>
<feComposite in2="hardAlpha" operator="out"/>
<feColorMatrix type="matrix" values="0 0 0 0 0.234009 0 0 0 0 0 0 0 0 0 0.612679 0 0 0 0.2 0"/>
<feBlend mode="normal" in2="BackgroundImageFix" result="effect1_dropShadow_5607_29069"/>
<feBlend mode="normal" in="SourceGraphic" in2="effect1_dropShadow_5607_29069" result="shape"/>
</filter>
<filter id="filter1_d_5607_29069" x="12" y="46" width="16" height="16" filterUnits="userSpaceOnUse" color-interpolation-filters="sRGB">
<feFlood flood-opacity="0" result="BackgroundImageFix"/>
<feColorMatrix in="SourceAlpha" type="matrix" values="0 0 0 0 0 0 0 0 0 0 0 0 0 0 0 0 0 0 127 0" result="hardAlpha"/>
<feOffset dx="1" dy="1"/>
<feGaussianBlur stdDeviation="0.5"/>
<feComposite in2="hardAlpha" operator="out"/>
<feColorMatrix type="matrix" values="0 0 0 0 0 0 0 0 0 0.443245 0 0 0 0 0.221623 0 0 0 0.14 0"/>
<feBlend mode="normal" in2="BackgroundImageFix" result="effect1_dropShadow_5607_29069"/>
<feBlend mode="normal" in="SourceGraphic" in2="effect1_dropShadow_5607_29069" result="shape"/>
</filter>
<linearGradient id="paint0_linear_5607_29069" x1="59" y1="33" x2="59.1324" y2="47.5" gradientUnits="userSpaceOnUse">
<stop stop-color="#702F8F"/>
<stop offset="1" stop-color="#702F8F" stop-opacity="0"/>
</linearGradient>
<linearGradient id="paint1_linear_5607_29069" x1="50" y1="65.6364" x2="50" y2="57.3636" gradientUnits="userSpaceOnUse">
<stop stop-color="#424551"/>
<stop offset="1" stop-color="#2E313D"/>
</linearGradient>
</defs>
</svg>
