<svg width="104" height="74" viewBox="0 0 104 74" fill="none" xmlns="http://www.w3.org/2000/svg">
<ellipse opacity="0.1" cx="20.1031" cy="20.3731" rx="20.1031" ry="20.3731" fill="#60626F"/>
<path d="M14.4331 6.1792C14.4331 5.07463 15.3285 4.1792 16.4331 4.1792H86.6599C87.7645 4.1792 88.6599 5.07463 88.6599 6.1792V52.2389H14.4331V6.1792Z" fill="#242633"/>
<path d="M14.4331 52.2388H88.6599V58.597C88.6599 59.7015 87.7645 60.597 86.6599 60.597H16.4331C15.3285 60.597 14.4331 59.7015 14.4331 58.597V52.2388Z" fill="#60626F"/>
<ellipse cx="52.062" cy="55.8953" rx="1.54639" ry="1.56716" fill="#D4D3D7"/>
<rect x="17.5259" y="7.31348" width="68.0412" height="41.791" rx="1" fill="#2E313D"/>
<path d="M43.6425 21.6655C43.4527 21.6655 43.2988 21.4686 43.2988 21.2256L43.2988 19.466C43.2988 19.223 43.4527 19.0261 43.6425 19.0261L82.1304 19.0261C82.3202 19.0261 82.4741 19.223 82.4741 19.466L82.4741 21.2256C82.4741 21.4686 82.3202 21.6655 82.1304 21.6655L43.6425 21.6655Z" fill="url(#paint0_linear_5607_29084)"/>
<path d="M43.6425 26.9438C43.4527 26.9438 43.2988 26.7469 43.2988 26.5039L43.2988 24.7443C43.2988 24.5014 43.4527 24.3044 43.6425 24.3044L82.1304 24.3044C82.3202 24.3044 82.4741 24.5014 82.4741 24.7443L82.4741 26.5039C82.4741 26.7469 82.3202 26.9438 82.1304 26.9438L43.6425 26.9438Z" fill="url(#paint1_linear_5607_29084)"/>
<path d="M43.6425 32.2231C43.4527 32.2231 43.2988 32.0262 43.2988 31.7832L43.2988 30.0236C43.2988 29.7807 43.4527 29.5837 43.6425 29.5837L82.1304 29.5837C82.3202 29.5837 82.4741 29.7807 82.4741 30.0236L82.4741 31.7832C82.4741 32.0262 82.3202 32.2231 82.1304 32.2231L43.6425 32.2231Z" fill="url(#paint2_linear_5607_29084)"/>
<path d="M43.6425 37.502C43.4527 37.502 43.2988 37.305 43.2988 37.062L43.2988 35.3024C43.2988 35.0595 43.4527 34.8625 43.6425 34.8625L82.1304 34.8625C82.3202 34.8625 82.4741 35.0595 82.4741 35.3024L82.4741 37.062C82.4741 37.305 82.3202 37.502 82.1304 37.502L43.6425 37.502Z" fill="url(#paint3_linear_5607_29084)"/>
<path d="M43.6425 42.7808C43.4527 42.7808 43.2988 42.5838 43.2988 42.3409L43.2988 40.5812C43.2988 40.3383 43.4527 40.1413 43.6425 40.1413L82.1304 40.1413C82.3202 40.1413 82.4741 40.3383 82.4741 40.5812L82.4741 42.3409C82.4741 42.5838 82.3202 42.7808 82.1304 42.7808L43.6425 42.7808Z" fill="url(#paint4_linear_5607_29084)"/>
<path d="M43.6425 48.0596C43.4527 48.0596 43.2988 47.8626 43.2988 47.6197L43.2988 45.86C43.2988 45.6171 43.4527 45.4201 43.6425 45.4201L82.1304 45.4201C82.3202 45.4201 82.4741 45.6171 82.4741 45.86L82.4741 47.6197C82.4741 47.8626 82.3202 48.0596 82.1304 48.0596L43.6425 48.0596Z" fill="url(#paint5_linear_5607_29084)"/>
<rect x="17.5259" y="14.6265" width="68.0412" height="1.04478" rx="0.1" fill="#242633"/>
<ellipse cx="23.1958" cy="10.97" rx="1.54639" ry="1.56716" fill="#E2324F"/>
<ellipse cx="29.3814" cy="10.97" rx="1.54639" ry="1.56716" fill="#EDAC2C"/>
<ellipse cx="35.5669" cy="10.97" rx="1.54639" ry="1.56716" fill="#11B671"/>
<path d="M42.2679 60.5972H60.8246L62.8865 67.9106H40.2061L42.2679 60.5972Z" fill="url(#paint6_linear_5607_29084)"/>
<rect x="35.0518" y="67.9106" width="32.9897" height="2.08955" rx="1.04478" fill="#424551"/>
<rect x="20.6187" y="17.7612" width="19.5876" height="13.5821" rx="1" fill="#242633"/>
<rect x="22.7568" y="19.9121" width="6.08998" height="2.15147" rx="0.5" fill="#2E313D"/>
<rect x="22.6802" y="24.0298" width="15.4639" height="1.04478" rx="0.5" fill="#2E313D"/>
<rect x="22.6802" y="27.1641" width="15.4639" height="1.04478" rx="0.5" fill="#2E313D"/>
<rect x="20.6187" y="32.3882" width="19.5876" height="13.5821" rx="1" fill="#242633"/>
<rect x="22.7568" y="34.5391" width="6.08998" height="2.15147" rx="0.5" fill="#2E313D"/>
<rect x="22.6802" y="38.6567" width="14.433" height="1.04478" rx="0.5" fill="#2E313D"/>
<rect x="22.6802" y="41.791" width="14.433" height="1.04478" rx="0.5" fill="#2E313D"/>
<g filter="url(#filter0_d_5607_29084)">
<rect x="43.2988" y="24.0298" width="56.5538" height="33.4328" rx="1" fill="#434552"/>
<rect opacity="0.2" x="48.0117" y="28.8062" width="1.20225" height="23.3538" rx="0.601124" fill="#2E313D"/>
<rect opacity="0.2" x="60.082" y="28.8062" width="1.20225" height="23.3538" rx="0.601124" fill="#2E313D"/>
<rect opacity="0.2" x="72.105" y="28.8062" width="1.20225" height="23.3538" rx="0.601124" fill="#2E313D"/>
<rect opacity="0.2" x="82.709" y="28.8062" width="1.20225" height="23.3538" rx="0.601124" fill="#2E313D"/>
<rect opacity="0.2" x="93.5527" y="28.8062" width="1.20225" height="23.3538" rx="0.601124" fill="#2E313D"/>
<path opacity="0.4" d="M60.1338 30.4392L48.0117 45.5224V52.6866H95.1399V35.9701L83.3578 32.3881L72.754 42.5373L60.8809 30.4028C60.6713 30.1885 60.3216 30.2056 60.1338 30.4392Z" fill="url(#paint7_linear_5607_29084)"/>
<path d="M48.0117 45.5224L60.1338 30.4392C60.3216 30.2056 60.6713 30.1885 60.8809 30.4028L72.754 42.5373L83.3578 32.3881L95.1399 35.9701" stroke="#FFA200" stroke-width="0.5"/>
</g>
<g filter="url(#filter1_d_5607_29084)">
<rect x="5.15479" y="37.6118" width="24.7423" height="28.3101" rx="1" fill="#434552"/>
<rect x="8.34717" y="57.0244" width="7.98138" height="1.61772" rx="0.808859" fill="#BFF8DB"/>
<rect x="8.34717" y="60.2603" width="18.3572" height="1.61772" rx="0.808859" fill="#22CC77"/>
<path d="M21.1176 41.7144C19.864 40.981 18.4017 40.7009 16.9705 40.9202C15.5393 41.1395 14.224 41.8451 13.2404 42.9214C12.2569 43.9976 11.6633 45.3806 11.5571 46.8436C11.4509 48.3066 11.8384 49.7627 12.6559 50.9733C13.4735 52.1838 14.6727 53.0769 16.0568 53.5061C17.441 53.9353 18.9279 53.8751 20.2739 53.3355C21.6199 52.7958 22.745 51.8087 23.4648 50.536C24.1845 49.2633 24.4562 47.7805 24.2353 46.3307L17.925 47.3184L21.1176 41.7144Z" fill="url(#paint8_angular_5607_29084)"/>
</g>
<g filter="url(#filter2_d_5607_29084)">
<path d="M70.103 9.40317C70.103 8.82616 70.5646 8.3584 71.134 8.3584H98.969C99.5384 8.3584 99.9999 8.82616 99.9999 9.40317V15.6718C99.9999 16.2488 99.5384 16.7166 98.969 16.7166H71.134C70.5646 16.7166 70.103 16.2488 70.103 15.6718V9.40317Z" fill="#434552"/>
<g filter="url(#filter3_d_5607_29084)">
<path d="M78.3506 12.5376C78.3506 14.2687 76.9659 15.672 75.2578 15.672C73.5497 15.672 72.165 14.2687 72.165 12.5376C72.165 10.8066 73.5497 9.40332 75.2578 9.40332C76.9659 9.40332 78.3506 10.8066 78.3506 12.5376Z" fill="#00C261"/>
</g>
<g clip-path="url(#clip0_5607_29084)">
<path d="M75.2576 10.3828C75.8291 10.3828 76.3651 10.6126 76.7611 11.014C77.1572 11.4153 77.3839 11.9586 77.3839 12.5377C77.3839 13.1168 77.1572 13.66 76.7611 14.0614C76.3651 14.4627 75.8291 14.6925 75.2576 14.6925C74.6862 14.6925 74.1502 14.4627 73.7541 14.0614C73.3581 13.66 73.1313 13.1168 73.1313 12.5377C73.1313 11.9586 73.3581 11.4153 73.7541 11.014C74.1502 10.6126 74.6862 10.3828 75.2576 10.3828ZM75.2576 10.7746C74.7898 10.7746 74.3518 10.9624 74.0275 11.291C73.7032 11.6196 73.5179 12.0635 73.5179 12.5377C73.5179 13.0118 73.7032 13.4557 74.0275 13.7843C74.3518 14.113 74.7898 14.3007 75.2576 14.3007C75.7255 14.3007 76.1635 14.113 76.4878 13.7843C76.8121 13.4557 76.9973 13.0118 76.9973 12.5377C76.9973 12.0635 76.8121 11.6196 76.4878 11.291C76.1635 10.9624 75.7255 10.7746 75.2576 10.7746ZM76.3608 11.8115C76.4363 11.888 76.4363 12.012 76.3608 12.0885L75.201 13.2639C75.1255 13.3404 75.0031 13.3404 74.9277 13.2639L74.3478 12.6762C74.2723 12.5997 74.2723 12.4756 74.3478 12.3991C74.4232 12.3226 74.5456 12.3226 74.6211 12.3991L75.0643 12.8482L76.0874 11.8115C76.1629 11.735 76.2853 11.735 76.3608 11.8115Z" fill="white"/>
</g>
<path opacity="0.4" d="M79.3813 10.9706C79.3813 10.6821 79.6121 10.4482 79.8968 10.4482H85.0515C85.3361 10.4482 85.5669 10.6821 85.5669 10.9706C85.5669 11.2591 85.3361 11.493 85.0515 11.493H79.8968C79.6121 11.493 79.3813 11.2591 79.3813 10.9706Z" fill="#B2EDD0"/>
<path opacity="0.4" d="M79.3813 14.1049C79.3813 13.8164 79.6121 13.5825 79.8968 13.5825H93.2989C93.5836 13.5825 93.8143 13.8164 93.8143 14.1049C93.8143 14.3934 93.5836 14.6273 93.2989 14.6273H79.8968C79.6121 14.6273 79.3813 14.3934 79.3813 14.1049Z" fill="#B2EDD0"/>
</g>
<defs>
<filter id="filter0_d_5607_29084" x="37.2988" y="24.0298" width="64.5537" height="41.4326" filterUnits="userSpaceOnUse" color-interpolation-filters="sRGB">
<feFlood flood-opacity="0" result="BackgroundImageFix"/>
<feColorMatrix in="SourceAlpha" type="matrix" values="0 0 0 0 0 0 0 0 0 0 0 0 0 0 0 0 0 0 127 0" result="hardAlpha"/>
<feOffset dx="-2" dy="4"/>
<feGaussianBlur stdDeviation="2"/>
<feComposite in2="hardAlpha" operator="out"/>
<feColorMatrix type="matrix" values="0 0 0 0 0.118655 0 0 0 0 0 0 0 0 0 0.310661 0 0 0 0.1 0"/>
<feBlend mode="normal" in2="BackgroundImageFix" result="effect1_dropShadow_5607_29084"/>
<feBlend mode="normal" in="SourceGraphic" in2="effect1_dropShadow_5607_29084" result="shape"/>
</filter>
<filter id="filter1_d_5607_29084" x="3.15479" y="37.6118" width="32.7422" height="36.3101" filterUnits="userSpaceOnUse" color-interpolation-filters="sRGB">
<feFlood flood-opacity="0" result="BackgroundImageFix"/>
<feColorMatrix in="SourceAlpha" type="matrix" values="0 0 0 0 0 0 0 0 0 0 0 0 0 0 0 0 0 0 127 0" result="hardAlpha"/>
<feOffset dx="2" dy="4"/>
<feGaussianBlur stdDeviation="2"/>
<feComposite in2="hardAlpha" operator="out"/>
<feColorMatrix type="matrix" values="0 0 0 0 0.118655 0 0 0 0 0 0 0 0 0 0.310661 0 0 0 0.1 0"/>
<feBlend mode="normal" in2="BackgroundImageFix" result="effect1_dropShadow_5607_29084"/>
<feBlend mode="normal" in="SourceGraphic" in2="effect1_dropShadow_5607_29084" result="shape"/>
</filter>
<filter id="filter2_d_5607_29084" x="66.103" y="8.3584" width="37.897" height="16.3584" filterUnits="userSpaceOnUse" color-interpolation-filters="sRGB">
<feFlood flood-opacity="0" result="BackgroundImageFix"/>
<feColorMatrix in="SourceAlpha" type="matrix" values="0 0 0 0 0 0 0 0 0 0 0 0 0 0 0 0 0 0 127 0" result="hardAlpha"/>
<feOffset dy="4"/>
<feGaussianBlur stdDeviation="2"/>
<feComposite in2="hardAlpha" operator="out"/>
<feColorMatrix type="matrix" values="0 0 0 0 0.141176 0 0 0 0 0.14902 0 0 0 0 0.2 0 0 0 1 0"/>
<feBlend mode="normal" in2="BackgroundImageFix" result="effect1_dropShadow_5607_29084"/>
<feBlend mode="normal" in="SourceGraphic" in2="effect1_dropShadow_5607_29084" result="shape"/>
</filter>
<filter id="filter3_d_5607_29084" x="72.165" y="9.40332" width="8.18555" height="8.26855" filterUnits="userSpaceOnUse" color-interpolation-filters="sRGB">
<feFlood flood-opacity="0" result="BackgroundImageFix"/>
<feColorMatrix in="SourceAlpha" type="matrix" values="0 0 0 0 0 0 0 0 0 0 0 0 0 0 0 0 0 0 127 0" result="hardAlpha"/>
<feOffset dx="1" dy="1"/>
<feGaussianBlur stdDeviation="0.5"/>
<feComposite in2="hardAlpha" operator="out"/>
<feColorMatrix type="matrix" values="0 0 0 0 0.00635462 0 0 0 0 0.467578 0 0 0 0 0.236966 0 0 0 0.17 0"/>
<feBlend mode="normal" in2="BackgroundImageFix" result="effect1_dropShadow_5607_29084"/>
<feBlend mode="normal" in="SourceGraphic" in2="effect1_dropShadow_5607_29084" result="shape"/>
</filter>
<linearGradient id="paint0_linear_5607_29084" x1="43.2988" y1="19.9059" x2="82.1124" y2="20.205" gradientUnits="userSpaceOnUse">
<stop stop-color="#434552"/>
<stop offset="1" stop-color="#242633"/>
</linearGradient>
<linearGradient id="paint1_linear_5607_29084" x1="43.2988" y1="25.1842" x2="82.1124" y2="25.4833" gradientUnits="userSpaceOnUse">
<stop stop-color="white"/>
<stop offset="1" stop-color="#E9E8EC"/>
</linearGradient>
<linearGradient id="paint2_linear_5607_29084" x1="43.2988" y1="30.4635" x2="82.1124" y2="30.7626" gradientUnits="userSpaceOnUse">
<stop stop-color="white"/>
<stop offset="1" stop-color="#E9E8EC"/>
</linearGradient>
<linearGradient id="paint3_linear_5607_29084" x1="43.2988" y1="35.7423" x2="82.1124" y2="36.0414" gradientUnits="userSpaceOnUse">
<stop stop-color="white"/>
<stop offset="1" stop-color="#E9E8EC"/>
</linearGradient>
<linearGradient id="paint4_linear_5607_29084" x1="43.2988" y1="41.0211" x2="82.1124" y2="41.3202" gradientUnits="userSpaceOnUse">
<stop stop-color="white"/>
<stop offset="1" stop-color="#E9E8EC"/>
</linearGradient>
<linearGradient id="paint5_linear_5607_29084" x1="43.2988" y1="46.2999" x2="82.1124" y2="46.599" gradientUnits="userSpaceOnUse">
<stop stop-color="white"/>
<stop offset="1" stop-color="#E9E8EC"/>
</linearGradient>
<linearGradient id="paint6_linear_5607_29084" x1="51.5463" y1="68.5755" x2="51.5463" y2="59.9323" gradientUnits="userSpaceOnUse">
<stop stop-color="#424551"/>
<stop offset="1" stop-color="#2E313D"/>
</linearGradient>
<linearGradient id="paint7_linear_5607_29084" x1="72.6718" y1="17.3964" x2="72.0882" y2="47.3605" gradientUnits="userSpaceOnUse">
<stop stop-color="#EDAC2C" stop-opacity="0.74"/>
<stop offset="1" stop-color="#FFFDFD" stop-opacity="0"/>
</linearGradient>
<radialGradient id="paint8_angular_5607_29084" cx="0" cy="0" r="1" gradientUnits="userSpaceOnUse" gradientTransform="translate(17.925 47.3184) rotate(-46.989) scale(6.30982 6.30455)">
<stop stop-color="#00C261"/>
<stop offset="1" stop-color="#D9FFEC"/>
</radialGradient>
<clipPath id="clip0_5607_29084">
<rect width="4.63918" height="4.70149" fill="white" transform="translate(72.938 10.187)"/>
</clipPath>
</defs>
</svg>
