<svg width="106" height="74" viewBox="0 0 106 74" fill="none" xmlns="http://www.w3.org/2000/svg">
<ellipse opacity="0.8" cx="20.1031" cy="20.3731" rx="20.1031" ry="20.3731" fill="#E9E8EC" fill-opacity="0.5"/>
<path d="M14.4336 6.1792C14.4336 5.07463 15.329 4.1792 16.4336 4.1792H86.6604C87.765 4.1792 88.6604 5.07463 88.6604 6.1792V52.2389H14.4336V6.1792Z" fill="#DFDEE4"/>
<path d="M14.4336 52.2388H88.6604V58.597C88.6604 59.7015 87.765 60.597 86.6604 60.597H16.4336C15.329 60.597 14.4336 59.7015 14.4336 58.597V52.2388Z" fill="#F2F2F4"/>
<ellipse cx="52.062" cy="55.8955" rx="1.54639" ry="1.56716" fill="#D4D3D7"/>
<rect x="17.5264" y="7.31348" width="68.0412" height="41.791" rx="1" fill="white"/>
<path d="M43.6425 21.6653C43.4527 21.6653 43.2988 21.4683 43.2988 21.2254L43.2988 19.4658C43.2988 19.2228 43.4527 19.0259 43.6425 19.0259L82.1304 19.0258C82.3202 19.0258 82.4741 19.2228 82.4741 19.4658L82.4741 21.2254C82.4741 21.4683 82.3202 21.6653 82.1304 21.6653L43.6425 21.6653Z" fill="url(#paint0_linear_4758_206002)"/>
<path d="M43.6425 26.9441C43.4527 26.9441 43.2988 26.7471 43.2988 26.5042L43.2988 24.7446C43.2988 24.5016 43.4527 24.3047 43.6425 24.3047L82.1304 24.3047C82.3202 24.3047 82.4741 24.5016 82.4741 24.7446L82.4741 26.5042C82.4741 26.7471 82.3202 26.9441 82.1304 26.9441L43.6425 26.9441Z" fill="url(#paint1_linear_4758_206002)"/>
<path d="M43.6425 32.2231C43.4527 32.2231 43.2988 32.0262 43.2988 31.7832L43.2988 30.0236C43.2988 29.7807 43.4527 29.5837 43.6425 29.5837L82.1304 29.5837C82.3202 29.5837 82.4741 29.7807 82.4741 30.0236L82.4741 31.7832C82.4741 32.0262 82.3202 32.2231 82.1304 32.2231L43.6425 32.2231Z" fill="url(#paint2_linear_4758_206002)"/>
<path d="M43.6425 37.502C43.4527 37.502 43.2988 37.305 43.2988 37.062L43.2988 35.3024C43.2988 35.0595 43.4527 34.8625 43.6425 34.8625L82.1304 34.8625C82.3202 34.8625 82.4741 35.0595 82.4741 35.3024L82.4741 37.062C82.4741 37.305 82.3202 37.502 82.1304 37.502L43.6425 37.502Z" fill="url(#paint3_linear_4758_206002)"/>
<path d="M43.6425 42.7808C43.4527 42.7808 43.2988 42.5838 43.2988 42.3409L43.2988 40.5812C43.2988 40.3383 43.4527 40.1413 43.6425 40.1413L82.1304 40.1413C82.3202 40.1413 82.4741 40.3383 82.4741 40.5812L82.4741 42.3409C82.4741 42.5838 82.3202 42.7808 82.1304 42.7808L43.6425 42.7808Z" fill="url(#paint4_linear_4758_206002)"/>
<path d="M43.6425 48.0598C43.4527 48.0598 43.2988 47.8629 43.2988 47.6199L43.2988 45.8603C43.2988 45.6173 43.4527 45.4204 43.6425 45.4204L82.1304 45.4204C82.3202 45.4204 82.4741 45.6173 82.4741 45.8603L82.4741 47.6199C82.4741 47.8629 82.3202 48.0598 82.1304 48.0598L43.6425 48.0598Z" fill="url(#paint5_linear_4758_206002)"/>
<rect x="17.5264" y="14.627" width="68.0412" height="1.04478" rx="0.1" fill="#F4EFF7"/>
<ellipse cx="23.1968" cy="10.9702" rx="1.54639" ry="1.56716" fill="#ED0303"/>
<ellipse cx="29.3823" cy="10.9702" rx="1.54639" ry="1.56716" fill="#FFA200"/>
<ellipse cx="35.5679" cy="10.9702" rx="1.54639" ry="1.56716" fill="#00C261"/>
<path d="M42.2689 60.5969H60.8256L62.8874 67.9104H40.207L42.2689 60.5969Z" fill="url(#paint6_linear_4758_206002)"/>
<rect x="35.0527" y="67.9104" width="32.9897" height="2.08955" rx="1.04478" fill="#E9E8EC"/>
<rect x="20.6191" y="17.7612" width="19.5876" height="13.5821" rx="1" fill="#F4EFF7"/>
<rect x="22.7578" y="19.9119" width="6.08998" height="2.15147" rx="0.5" fill="white"/>
<rect x="22.6807" y="24.0298" width="15.4639" height="1.04478" rx="0.5" fill="white"/>
<rect x="22.6807" y="27.1641" width="15.4639" height="1.04478" rx="0.5" fill="white"/>
<rect x="20.6191" y="32.3882" width="19.5876" height="13.5821" rx="1" fill="#F4EFF7"/>
<rect x="22.7578" y="34.5388" width="6.08998" height="2.15147" rx="0.5" fill="white"/>
<rect x="22.6807" y="38.6567" width="14.433" height="1.04478" rx="0.5" fill="white"/>
<rect x="22.6807" y="41.791" width="14.433" height="1.04478" rx="0.5" fill="white"/>
<g filter="url(#filter0_d_4758_206002)">
<rect x="43.2988" y="24.0298" width="56.5538" height="33.4328" rx="1" fill="white"/>
<rect opacity="0.2" x="48.0117" y="28.8062" width="1.20225" height="23.3538" rx="0.601124" fill="#F2F2F2"/>
<rect opacity="0.2" x="60.082" y="28.8062" width="1.20225" height="23.3538" rx="0.601124" fill="#F2F2F2"/>
<rect opacity="0.2" x="72.1055" y="28.8062" width="1.20225" height="23.3538" rx="0.601124" fill="#F2F2F2"/>
<rect opacity="0.2" x="82.709" y="28.8062" width="1.20225" height="23.3538" rx="0.601124" fill="#F2F2F2"/>
<rect opacity="0.2" x="93.5527" y="28.8062" width="1.20225" height="23.3538" rx="0.601124" fill="#F2F2F2"/>
<path d="M60.1338 30.4392L48.0117 45.5224V52.6866H95.1399V35.9701L83.3578 32.3881L72.754 42.5373L60.8809 30.4028C60.6713 30.1885 60.3216 30.2056 60.1338 30.4392Z" fill="url(#paint7_linear_4758_206002)"/>
<path d="M48.0117 45.5224L60.1338 30.4392C60.3216 30.2056 60.6713 30.1885 60.8809 30.4028L72.754 42.5373L83.3578 32.3881L95.1399 35.9701" stroke="#FFA200" stroke-width="0.5"/>
</g>
<g filter="url(#filter1_d_4758_206002)">
<rect x="5.1543" y="37.6118" width="24.7423" height="28.3101" rx="1" fill="white"/>
<rect x="8.34668" y="57.0244" width="7.98138" height="1.61772" rx="0.808859" fill="#BFF8DB"/>
<rect x="8.34668" y="60.26" width="18.3572" height="1.61772" rx="0.808859" fill="#22CC77"/>
<path d="M21.1176 41.7144C19.864 40.981 18.4017 40.7009 16.9705 40.9202C15.5393 41.1395 14.224 41.8451 13.2404 42.9214C12.2569 43.9976 11.6633 45.3806 11.5571 46.8436C11.4509 48.3066 11.8384 49.7627 12.6559 50.9733C13.4735 52.1838 14.6727 53.0769 16.0568 53.5061C17.441 53.9353 18.9279 53.8751 20.2739 53.3355C21.6199 52.7958 22.745 51.8087 23.4648 50.536C24.1845 49.2633 24.4562 47.7805 24.2353 46.3307L17.925 47.3184L21.1176 41.7144Z" fill="url(#paint8_angular_4758_206002)"/>
</g>
<g filter="url(#filter2_d_4758_206002)">
<path d="M70.1035 9.40293C70.1035 8.82592 70.5651 8.35815 71.1344 8.35815H98.9695C99.5389 8.35815 100 8.82592 100 9.40293V15.6716C100 16.2486 99.5389 16.7164 98.9695 16.7164H71.1344C70.5651 16.7164 70.1035 16.2486 70.1035 15.6716V9.40293Z" fill="white"/>
<g filter="url(#filter3_d_4758_206002)">
<path d="M78.3516 12.5374C78.3516 14.2684 76.9669 15.6717 75.2588 15.6717C73.5507 15.6717 72.166 14.2684 72.166 12.5374C72.166 10.8064 73.5507 9.40308 75.2588 9.40308C76.9669 9.40308 78.3516 10.8064 78.3516 12.5374Z" fill="#00C261"/>
</g>
<g clip-path="url(#clip0_4758_206002)">
<path d="M75.2591 10.3823C75.8305 10.3823 76.3666 10.6121 76.7626 11.0135C77.1587 11.4148 77.3854 11.9581 77.3854 12.5372C77.3854 13.1163 77.1587 13.6595 76.7626 14.0609C76.3666 14.4623 75.8305 14.692 75.2591 14.692C74.6877 14.692 74.1517 14.4623 73.7556 14.0609C73.3595 13.6595 73.1328 13.1163 73.1328 12.5372C73.1328 11.9581 73.3595 11.4148 73.7556 11.0135C74.1517 10.6121 74.6877 10.3823 75.2591 10.3823ZM75.2591 10.7741C74.7913 10.7741 74.3532 10.9619 74.029 11.2905C73.7047 11.6191 73.5194 12.063 73.5194 12.5372C73.5194 13.0113 73.7047 13.4552 74.029 13.7838C74.3532 14.1125 74.7913 14.3002 75.2591 14.3002C75.7269 14.3002 76.165 14.1125 76.4892 13.7838C76.8135 13.4552 76.9988 13.0113 76.9988 12.5372C76.9988 12.063 76.8135 11.6191 76.4892 11.2905C76.165 10.9619 75.7269 10.7741 75.2591 10.7741ZM76.3623 11.811C76.4378 11.8875 76.4378 12.0115 76.3623 12.088L75.2025 13.2634C75.127 13.3399 75.0046 13.3399 74.9291 13.2634L74.3492 12.6757C74.2737 12.5992 74.2737 12.4752 74.3492 12.3987C74.4247 12.3222 74.5471 12.3222 74.6226 12.3987L75.0658 12.8477L76.0889 11.811C76.1644 11.7345 76.2868 11.7345 76.3623 11.811Z" fill="white"/>
</g>
<path opacity="0.4" d="M79.3818 10.9701C79.3818 10.6816 79.6126 10.4478 79.8973 10.4478H85.0519C85.3366 10.4478 85.5674 10.6816 85.5674 10.9701V10.9701C85.5674 11.2586 85.3366 11.4925 85.0519 11.4925H79.8973C79.6126 11.4925 79.3818 11.2586 79.3818 10.9701V10.9701Z" fill="#B2EDD0"/>
<path opacity="0.4" d="M79.3818 14.1044C79.3818 13.8159 79.6126 13.582 79.8973 13.582H93.2994C93.584 13.582 93.8148 13.8159 93.8148 14.1044V14.1044C93.8148 14.3929 93.584 14.6268 93.2994 14.6268H79.8973C79.6126 14.6268 79.3818 14.3929 79.3818 14.1044V14.1044Z" fill="#B2EDD0"/>
</g>
<defs>
<filter id="filter0_d_4758_206002" x="37.2988" y="24.0298" width="64.5537" height="41.4329" filterUnits="userSpaceOnUse" color-interpolation-filters="sRGB">
<feFlood flood-opacity="0" result="BackgroundImageFix"/>
<feColorMatrix in="SourceAlpha" type="matrix" values="0 0 0 0 0 0 0 0 0 0 0 0 0 0 0 0 0 0 127 0" result="hardAlpha"/>
<feOffset dx="-2" dy="4"/>
<feGaussianBlur stdDeviation="2"/>
<feComposite in2="hardAlpha" operator="out"/>
<feColorMatrix type="matrix" values="0 0 0 0 0.118655 0 0 0 0 0 0 0 0 0 0.310661 0 0 0 0.1 0"/>
<feBlend mode="normal" in2="BackgroundImageFix" result="effect1_dropShadow_4758_206002"/>
<feBlend mode="normal" in="SourceGraphic" in2="effect1_dropShadow_4758_206002" result="shape"/>
</filter>
<filter id="filter1_d_4758_206002" x="3.1543" y="37.6118" width="32.7422" height="36.3101" filterUnits="userSpaceOnUse" color-interpolation-filters="sRGB">
<feFlood flood-opacity="0" result="BackgroundImageFix"/>
<feColorMatrix in="SourceAlpha" type="matrix" values="0 0 0 0 0 0 0 0 0 0 0 0 0 0 0 0 0 0 127 0" result="hardAlpha"/>
<feOffset dx="2" dy="4"/>
<feGaussianBlur stdDeviation="2"/>
<feComposite in2="hardAlpha" operator="out"/>
<feColorMatrix type="matrix" values="0 0 0 0 0.118655 0 0 0 0 0 0 0 0 0 0.310661 0 0 0 0.1 0"/>
<feBlend mode="normal" in2="BackgroundImageFix" result="effect1_dropShadow_4758_206002"/>
<feBlend mode="normal" in="SourceGraphic" in2="effect1_dropShadow_4758_206002" result="shape"/>
</filter>
<filter id="filter2_d_4758_206002" x="68.1035" y="8.35815" width="37.8965" height="16.3582" filterUnits="userSpaceOnUse" color-interpolation-filters="sRGB">
<feFlood flood-opacity="0" result="BackgroundImageFix"/>
<feColorMatrix in="SourceAlpha" type="matrix" values="0 0 0 0 0 0 0 0 0 0 0 0 0 0 0 0 0 0 127 0" result="hardAlpha"/>
<feOffset dx="2" dy="4"/>
<feGaussianBlur stdDeviation="2"/>
<feComposite in2="hardAlpha" operator="out"/>
<feColorMatrix type="matrix" values="0 0 0 0 0.118655 0 0 0 0 0 0 0 0 0 0.310661 0 0 0 0.1 0"/>
<feBlend mode="normal" in2="BackgroundImageFix" result="effect1_dropShadow_4758_206002"/>
<feBlend mode="normal" in="SourceGraphic" in2="effect1_dropShadow_4758_206002" result="shape"/>
</filter>
<filter id="filter3_d_4758_206002" x="72.166" y="9.40308" width="8.18555" height="8.26855" filterUnits="userSpaceOnUse" color-interpolation-filters="sRGB">
<feFlood flood-opacity="0" result="BackgroundImageFix"/>
<feColorMatrix in="SourceAlpha" type="matrix" values="0 0 0 0 0 0 0 0 0 0 0 0 0 0 0 0 0 0 127 0" result="hardAlpha"/>
<feOffset dx="1" dy="1"/>
<feGaussianBlur stdDeviation="0.5"/>
<feComposite in2="hardAlpha" operator="out"/>
<feColorMatrix type="matrix" values="0 0 0 0 0.00635462 0 0 0 0 0.467578 0 0 0 0 0.236966 0 0 0 0.17 0"/>
<feBlend mode="normal" in2="BackgroundImageFix" result="effect1_dropShadow_4758_206002"/>
<feBlend mode="normal" in="SourceGraphic" in2="effect1_dropShadow_4758_206002" result="shape"/>
</filter>
<linearGradient id="paint0_linear_4758_206002" x1="43.2988" y1="19.9056" x2="82.1124" y2="20.2047" gradientUnits="userSpaceOnUse">
<stop stop-color="white"/>
<stop offset="1" stop-color="#E9E8EC"/>
</linearGradient>
<linearGradient id="paint1_linear_4758_206002" x1="43.2988" y1="25.1844" x2="82.1124" y2="25.4836" gradientUnits="userSpaceOnUse">
<stop stop-color="white"/>
<stop offset="1" stop-color="#E9E8EC"/>
</linearGradient>
<linearGradient id="paint2_linear_4758_206002" x1="43.2988" y1="30.4635" x2="82.1124" y2="30.7626" gradientUnits="userSpaceOnUse">
<stop stop-color="white"/>
<stop offset="1" stop-color="#E9E8EC"/>
</linearGradient>
<linearGradient id="paint3_linear_4758_206002" x1="43.2988" y1="35.7423" x2="82.1124" y2="36.0414" gradientUnits="userSpaceOnUse">
<stop stop-color="white"/>
<stop offset="1" stop-color="#E9E8EC"/>
</linearGradient>
<linearGradient id="paint4_linear_4758_206002" x1="43.2988" y1="41.0211" x2="82.1124" y2="41.3202" gradientUnits="userSpaceOnUse">
<stop stop-color="white"/>
<stop offset="1" stop-color="#E9E8EC"/>
</linearGradient>
<linearGradient id="paint5_linear_4758_206002" x1="43.2988" y1="46.3002" x2="82.1124" y2="46.5993" gradientUnits="userSpaceOnUse">
<stop stop-color="white"/>
<stop offset="1" stop-color="#E9E8EC"/>
</linearGradient>
<linearGradient id="paint6_linear_4758_206002" x1="51.5472" y1="68.5752" x2="51.5472" y2="59.9321" gradientUnits="userSpaceOnUse">
<stop stop-color="#F9F9FB"/>
<stop offset="1" stop-color="#E9E8EC"/>
</linearGradient>
<linearGradient id="paint7_linear_4758_206002" x1="72.6718" y1="17.3964" x2="72.674" y2="58.3582" gradientUnits="userSpaceOnUse">
<stop stop-color="#FFA200" stop-opacity="0.71"/>
<stop offset="1" stop-color="white" stop-opacity="0.05"/>
</linearGradient>
<radialGradient id="paint8_angular_4758_206002" cx="0" cy="0" r="1" gradientUnits="userSpaceOnUse" gradientTransform="translate(17.925 47.3184) rotate(-46.989) scale(6.30982 6.30455)">
<stop stop-color="#00C261"/>
<stop offset="1" stop-color="#D9FFEC"/>
</radialGradient>
<clipPath id="clip0_4758_206002">
<rect width="4.63918" height="4.70149" fill="white" transform="translate(72.9395 10.1865)"/>
</clipPath>
</defs>
</svg>
