<svg width="178" height="108" viewBox="0 0 178 108" fill="none" xmlns="http://www.w3.org/2000/svg">
<g filter="url(#filter0_d_5607_29043)">
<path d="M9 9C9 6.79086 10.7909 5 13 5H165C167.209 5 169 6.79086 169 9V91C169 93.2091 167.209 95 165 95H13C10.7909 95 9 93.2091 9 91V9Z" fill="#2E313D"/>
<path d="M9.5 9C9.5 7.067 11.067 5.5 13 5.5H165C166.933 5.5 168.5 7.067 168.5 9V91C168.5 92.933 166.933 94.5 165 94.5H13C11.067 94.5 9.5 92.933 9.5 91V9Z" stroke="#242633"/>
</g>
<path d="M10 8C10 6.89543 10.8954 6 12 6H166C167.105 6 168 6.89543 168 8V19H10V8Z" fill="#434552"/>
<circle cx="28" cy="12" r="3" fill="#5B5E6A"/>
<circle cx="38" cy="12" r="3" fill="#5B5E6A"/>
<circle cx="18" cy="12" r="3" fill="#5B5E6A"/>
<rect x="61.1" y="23.1" width="101.8" height="67.8" rx="0.9" fill="#242633" stroke="#242633" stroke-width="0.2"/>
<rect x="65" y="27" width="94" height="8" rx="0.5" fill="#2E313D"/>
<rect x="13.1" y="23.1" width="43.8" height="67.8" rx="0.9" fill="#242633" stroke="#242633" stroke-width="0.2"/>
<rect x="17.1" y="27.1" width="35.8" height="7.8" rx="0.4" fill="#4E2B66" stroke="#783887" stroke-width="0.2" stroke-dasharray="0.4 0.4"/>
<rect x="17" y="37" width="36" height="8" rx="0.5" fill="#434552"/>
<rect x="17" y="47" width="36" height="8" rx="0.5" fill="#434552"/>
<rect x="17" y="57" width="36" height="8" rx="0.5" fill="#434552"/>
<rect x="17" y="67" width="36" height="8" rx="0.5" fill="#434552"/>
<rect x="17" y="77" width="36" height="8" rx="0.5" fill="#434552"/>
<g filter="url(#filter1_d_5607_29043)">
<rect x="29" y="29" width="44" height="12" rx="0.5" fill="#242633"/>
</g>
<rect x="39" y="33" width="28" height="4" rx="2" fill="#8933AD"/>
<circle cx="35" cy="35" r="2" fill="#8933AD"/>
<defs>
<filter id="filter0_d_5607_29043" x="0" y="0" width="178" height="108" filterUnits="userSpaceOnUse" color-interpolation-filters="sRGB">
<feFlood flood-opacity="0" result="BackgroundImageFix"/>
<feColorMatrix in="SourceAlpha" type="matrix" values="0 0 0 0 0 0 0 0 0 0 0 0 0 0 0 0 0 0 127 0" result="hardAlpha"/>
<feMorphology radius="1" operator="erode" in="SourceAlpha" result="effect1_dropShadow_5607_29043"/>
<feOffset dy="4"/>
<feGaussianBlur stdDeviation="5"/>
<feColorMatrix type="matrix" values="0 0 0 0 0.141176 0 0 0 0 0.14902 0 0 0 0 0.2 0 0 0 1 0"/>
<feBlend mode="normal" in2="BackgroundImageFix" result="effect1_dropShadow_5607_29043"/>
<feBlend mode="normal" in="SourceGraphic" in2="effect1_dropShadow_5607_29043" result="shape"/>
</filter>
<filter id="filter1_d_5607_29043" x="28" y="29" width="46" height="14" filterUnits="userSpaceOnUse" color-interpolation-filters="sRGB">
<feFlood flood-opacity="0" result="BackgroundImageFix"/>
<feColorMatrix in="SourceAlpha" type="matrix" values="0 0 0 0 0 0 0 0 0 0 0 0 0 0 0 0 0 0 127 0" result="hardAlpha"/>
<feMorphology radius="1" operator="erode" in="SourceAlpha" result="effect1_dropShadow_5607_29043"/>
<feOffset dy="1"/>
<feGaussianBlur stdDeviation="1"/>
<feColorMatrix type="matrix" values="0 0 0 0 0.141176 0 0 0 0 0.14902 0 0 0 0 0.2 0 0 0 1 0"/>
<feBlend mode="normal" in2="BackgroundImageFix" result="effect1_dropShadow_5607_29043"/>
<feBlend mode="normal" in="SourceGraphic" in2="effect1_dropShadow_5607_29043" result="shape"/>
</filter>
</defs>
</svg>
